{"glyphs":{"0":{"ha":475,"x_min":0,"x_max":422,"o":"m 105 91 q 52 110 75 91 q 12 184 23 137 q 0 282 0 231 q 6 372 1 334 q 57 565 19 458 q 154 754 96 671 q 224 824 193 805 q 274 845 254 844 q 299 842 293 846 q 390 783 359 831 q 418 676 416 739 q 406 547 419 614 q 376 424 393 481 q 351 348 370 399 q 298 239 332 296 q 139 96 227 123 q 105 91 121 91 l 105 91 m 282 818 q 259 813 274 818 q 223 790 244 808 q 176 738 202 773 q 79 546 115 652 q 33 368 43 439 q 30 237 24 309 q 69 130 35 165 q 131 121 93 110 q 247 211 200 146 q 319 340 293 275 q 351 431 345 406 q 367 768 422 682 q 293 816 343 807 q 292 817 292 817 q 290 817 291 817 q 282 818 289 818 l 282 818 z "},"1":{"ha":291,"x_min":0,"x_max":243,"o":"m 14 98 q 11 98 13 98 q 3 105 5 100 q 1 115 0 110 l 216 837 q 222 845 218 842 q 233 846 227 848 q 241 840 238 844 q 242 829 243 835 l 28 108 q 14 98 23 98 l 14 98 z "},"2":{"ha":519,"x_min":0,"x_max":471,"o":"m 319 96 l 16 96 q 3 105 7 96 q 6 120 0 113 q 98 210 10 121 q 323 463 186 299 q 436 756 469 644 q 368 818 418 806 q 266 757 317 829 q 234 703 245 727 q 223 677 223 679 q 216 669 221 671 q 205 669 211 667 q 198 676 200 671 q 198 686 196 681 q 212 718 199 691 q 247 777 224 745 q 302 831 270 810 q 374 844 334 852 q 462 765 439 828 q 470 699 471 742 q 440 593 468 656 q 345 446 413 530 q 164 240 241 321 q 50 123 87 158 l 319 123 q 328 119 324 123 q 332 110 332 115 q 328 100 332 104 q 319 96 324 96 l 319 96 z "},"3":{"ha":467,"x_min":0,"x_max":420,"o":"m 145 92 q 94 98 120 92 q 2 182 33 116 q 2 193 0 188 q 9 201 4 198 q 19 201 14 203 q 27 194 24 199 q 102 125 52 139 q 223 140 166 107 q 309 258 288 179 q 288 420 330 351 q 192 482 255 471 q 181 494 182 484 q 189 508 180 503 q 216 523 191 509 q 274 563 241 538 q 328 620 307 588 q 357 784 388 717 q 300 822 337 819 q 195 749 242 822 q 186 743 192 744 q 176 744 181 741 q 170 752 172 747 q 172 763 169 758 q 300 848 228 850 q 380 796 354 846 q 351 606 420 715 q 292 543 327 570 q 230 500 258 515 q 311 435 281 480 q 336 252 359 356 q 237 116 312 161 q 145 92 194 92 l 145 92 z "},"4":{"ha":426,"x_min":0,"x_max":378,"o":"m 253 370 q 199 368 229 369 q 117 367 157 367 q 17 372 52 367 q 2 385 6 374 q 2 399 0 390 q 14 429 3 409 q 47 483 24 448 q 158 629 87 540 q 271 766 221 707 q 323 827 320 824 q 333 832 328 832 q 342 829 338 833 q 347 820 347 825 q 344 810 348 814 q 293 750 341 806 q 184 618 245 694 q 89 494 121 540 q 43 426 56 448 q 29 397 31 404 q 97 394 53 395 q 187 395 140 394 q 261 397 230 396 l 351 705 q 357 714 353 711 q 368 715 362 716 q 376 708 373 713 q 377 698 378 703 l 290 398 q 300 399 299 399 q 311 395 307 399 q 315 386 315 392 q 311 376 315 380 q 302 372 308 372 q 282 371 299 372 l 206 111 q 193 101 201 101 q 189 102 191 101 q 181 108 184 103 q 180 119 178 113 l 253 370 z "},"5":{"ha":486,"x_min":0,"x_max":439,"o":"m 115 127 q 4 174 56 127 q 0 184 0 178 q 4 193 0 189 q 14 197 8 197 q 23 194 19 197 q 112 154 69 153 q 184 174 154 155 q 299 300 254 213 q 330 458 342 387 q 222 547 313 536 q 176 540 199 549 q 136 522 153 531 q 113 511 121 514 q 96 516 102 509 q 91 534 90 521 q 104 581 92 548 q 141 679 116 618 q 181 773 163 732 q 201 816 199 813 q 213 823 205 823 q 213 823 213 823 l 425 821 q 435 818 431 821 q 439 808 439 814 q 435 798 439 802 q 425 794 431 794 l 222 796 q 158 648 186 718 q 120 544 130 578 q 123 546 122 545 q 169 567 142 557 q 225 574 195 576 q 357 463 335 560 q 323 288 371 383 q 198 150 274 193 q 115 127 155 127 l 115 127 z "},"6":{"ha":433,"x_min":0,"x_max":386,"o":"m 147 90 q 59 117 98 90 q 1 209 9 153 q 1 211 1 210 q 0 224 0 218 q 109 569 0 393 q 365 827 213 732 q 375 829 370 830 q 383 823 380 828 q 385 813 386 818 q 379 804 384 808 q 220 670 296 753 q 92 484 144 587 q 29 269 41 380 q 156 397 78 346 q 303 408 241 446 q 359 271 366 363 q 220 104 343 152 q 147 90 182 90 l 147 90 m 28 210 q 75 138 36 167 q 211 129 132 100 q 332 274 318 172 q 289 385 338 350 q 170 374 241 415 q 83 297 122 344 q 28 210 45 251 l 28 210 z "},"7":{"ha":421,"x_min":0,"x_max":374,"o":"m 194 456 q 193 454 193 454 q 79 230 128 326 q 26 127 31 134 q 14 120 22 120 q 8 121 12 120 q 2 129 3 124 q 3 140 0 134 q 55 242 9 153 q 161 450 100 332 l 163 456 l 136 456 q 126 460 130 456 q 122 469 122 464 q 126 479 122 475 q 136 483 130 483 l 177 483 q 272 669 228 583 q 340 803 323 768 q 299 806 332 805 q 194 804 266 808 q 100 798 140 801 q 57 793 60 794 q 47 797 52 793 q 42 806 43 800 q 45 816 42 812 q 54 821 49 820 q 100 825 57 821 q 199 831 142 828 q 303 833 264 835 q 351 828 337 832 q 368 817 365 824 q 369 799 374 808 q 309 682 360 782 q 208 483 263 592 l 233 483 q 243 479 239 483 q 247 469 247 475 q 243 460 247 464 q 233 456 239 456 l 194 456 z "},"8":{"ha":532,"x_min":0,"x_max":485,"o":"m 140 93 q 69 114 103 93 q 14 205 27 140 q 45 371 0 269 q 116 477 73 429 q 178 542 158 525 q 158 631 157 582 q 203 774 164 722 q 290 842 242 826 q 422 816 370 869 q 420 598 485 743 q 352 477 389 534 q 299 397 315 419 q 306 382 302 389 q 315 243 334 302 q 260 149 296 184 q 140 93 207 94 l 140 93 m 191 517 q 132 453 170 497 q 69 360 94 410 q 40 214 30 270 q 84 137 50 159 q 163 122 120 114 q 240 167 205 130 q 280 372 324 260 q 224 467 258 422 q 191 517 207 491 l 191 517 m 339 824 q 298 817 319 824 q 224 757 258 803 q 185 629 191 711 q 203 552 184 588 q 247 482 221 517 q 285 425 267 454 q 337 504 304 452 q 395 610 370 556 q 402 798 453 737 q 339 824 376 824 l 339 824 z "},"9":{"ha":568,"x_min":17,"x_max":503,"o":"m 125 106 q 23 140 75 103 q 18 149 18 143 q 20 159 17 154 q 28 164 23 163 q 39 162 34 165 q 155 140 99 119 q 279 260 224 168 q 375 469 334 353 q 441 684 416 585 q 332 514 393 595 q 216 406 271 433 q 126 431 153 380 q 121 556 106 477 q 184 713 137 635 q 306 835 232 791 q 371 847 339 852 q 428 826 403 842 q 468 796 454 810 q 476 815 473 806 q 483 823 479 821 q 493 823 488 825 q 501 817 498 821 q 502 807 503 812 q 492 769 498 791 q 446 601 475 700 q 377 399 418 501 q 283 218 336 296 q 165 114 231 140 q 125 106 145 106 l 125 106 m 352 821 q 319 811 336 820 q 171 625 225 756 q 151 444 125 506 q 167 427 155 433 q 205 431 179 420 q 292 508 245 450 q 384 639 340 567 q 456 770 428 711 q 432 791 448 779 q 395 812 416 803 q 352 821 374 822 l 352 821 z "},"\u0000":{"ha":0,"x_min":0,"x_max":0,"o":""},"\u001d":{"ha":0,"x_min":0,"x_max":0,"o":""}," ":{"ha":199,"x_min":0,"x_max":0,"o":""}," ":{"ha":199,"x_min":0,"x_max":0,"o":""},"!":{"ha":366,"x_min":0,"x_max":318,"o":"m 41 135 q 36 136 39 135 q 28 143 31 138 q 28 154 26 149 l 291 743 q 298 750 294 748 q 309 750 303 752 q 316 742 314 747 q 315 732 318 737 l 54 142 q 41 135 49 135 l 41 135 m 15 70 q 9 71 12 70 q 2 78 4 73 q 2 88 0 83 l 11 111 q 18 118 13 115 q 28 118 23 120 q 36 111 34 115 q 36 100 38 106 l 27 79 q 15 70 22 70 l 15 70 z "},"\"":{"ha":150,"x_min":0,"x_max":102,"o":"m 14 727 q 3 734 7 727 q 2 744 0 739 q 8 752 3 749 q 18 765 15 756 q 21 783 20 774 q 20 795 21 791 q 19 805 18 800 q 24 813 20 810 q 35 815 29 816 q 43 809 40 814 q 48 788 47 802 q 45 763 48 774 q 21 728 39 738 q 14 727 18 727 l 14 727 m 68 727 q 57 734 62 727 q 56 744 54 739 q 62 752 58 749 q 72 765 69 756 q 75 783 75 774 q 74 795 75 791 q 73 805 72 800 q 79 813 74 810 q 89 815 83 816 q 98 809 94 814 q 102 788 102 802 q 100 763 102 774 q 75 728 93 738 q 68 727 72 727 l 68 727 z "},"#":{"ha":517,"x_min":0,"x_max":469,"o":"m 120 346 q 181 473 149 408 l 74 475 q 64 479 68 475 q 60 490 60 484 q 65 499 61 495 q 75 503 68 503 l 195 499 q 264 630 227 563 q 272 636 267 635 q 282 635 277 637 q 289 627 288 632 q 288 616 290 622 q 224 498 254 556 l 333 495 l 382 607 q 390 614 385 612 q 400 614 395 616 q 408 607 406 612 q 407 596 410 602 l 361 494 l 456 492 q 466 488 462 492 q 469 477 469 484 q 465 468 469 472 q 456 465 461 465 l 350 467 l 294 342 l 376 340 q 385 336 381 340 q 389 326 389 332 q 385 317 389 321 q 375 313 380 313 l 282 315 l 225 186 q 213 178 220 178 q 208 180 210 178 q 200 187 202 182 q 201 197 198 192 l 253 315 l 138 319 q 85 193 109 254 q 72 185 80 185 q 67 186 69 185 q 60 194 62 189 q 60 204 58 199 q 108 319 82 260 l 14 321 q 4 326 7 321 q 0 335 0 330 q 4 345 0 341 q 14 349 8 349 l 120 346 m 211 471 q 150 345 178 407 l 265 342 l 321 469 l 211 471 z "},"$":{"ha":377,"x_min":0,"x_max":330,"o":"m 190 519 l 260 749 q 245 751 253 751 q 178 707 208 746 q 149 620 147 669 q 168 561 153 593 q 190 519 178 540 m 108 153 q 181 176 145 146 q 224 252 210 202 q 233 359 239 302 q 214 417 229 386 q 197 450 206 433 l 108 153 m 208 486 q 239 427 225 456 q 260 362 256 393 q 250 242 267 298 q 199 155 233 186 q 121 125 161 125 q 100 127 111 125 l 83 73 q 71 64 79 64 q 67 64 68 64 q 59 71 61 66 q 58 81 56 75 l 75 136 q 1 232 22 163 q 3 242 0 237 q 11 248 5 247 q 21 247 17 250 q 28 239 26 244 q 82 163 43 184 l 179 482 q 142 551 158 517 q 122 618 125 586 q 158 726 120 680 q 243 778 195 772 q 268 777 256 779 l 281 820 q 288 828 283 825 q 298 829 292 831 q 306 823 303 827 q 307 812 309 818 l 292 764 l 300 756 q 329 676 323 730 q 326 667 330 671 q 317 662 323 663 q 307 665 311 661 q 302 673 302 668 q 288 726 300 699 q 283 734 286 730 l 208 486 z "},"%":{"ha":503,"x_min":0,"x_max":456,"o":"m 14 93 q 7 95 11 93 q 1 103 2 98 q 3 114 0 109 l 430 781 q 438 787 433 786 q 448 785 444 788 q 454 777 453 782 q 452 766 456 771 l 26 99 q 14 93 21 93 l 14 93 m 153 605 q 110 624 128 605 q 92 671 92 644 q 110 717 92 698 q 153 736 128 736 q 196 717 178 736 q 214 671 214 698 q 196 624 214 644 q 153 605 178 605 l 153 605 m 153 709 q 129 697 139 709 q 119 671 119 686 q 129 643 119 654 q 153 632 139 632 q 177 643 168 632 q 187 671 187 654 q 177 697 187 686 q 153 709 168 709 l 153 709 m 252 111 q 209 130 227 111 q 191 176 191 149 q 209 223 191 203 q 252 242 227 242 q 295 223 277 242 q 313 176 313 203 q 295 130 313 149 q 252 111 277 111 l 252 111 m 252 215 q 228 204 238 215 q 218 176 218 193 q 228 150 218 161 q 252 138 238 138 q 276 150 267 138 q 286 176 286 161 q 276 204 286 193 q 252 215 267 215 l 252 215 z "},"&":{"ha":454,"x_min":-109,"x_max":338,"o":"m 279 43 q 273 44 276 43 q 195 144 222 77 q 39 94 109 99 q -61 125 -30 89 q -5 306 -109 189 q 146 453 74 391 q 162 644 146 576 q 200 729 177 703 q 243 761 222 755 q 285 765 266 768 q 316 751 304 761 q 336 686 338 733 q 302 578 335 639 q 251 514 284 547 q 173 441 218 481 q 210 183 174 301 q 258 223 240 202 q 284 264 275 245 q 294 295 292 283 q 296 308 296 307 q 301 318 297 314 q 311 321 304 321 q 320 317 316 321 q 323 307 323 313 q 318 279 324 304 q 290 220 312 254 q 219 157 268 186 q 219 157 219 157 q 219 157 219 157 q 286 68 244 94 q 293 60 292 65 q 292 50 294 54 q 279 43 287 43 l 279 43 m 146 417 q 14 288 83 361 q -40 142 -73 189 q 40 121 -20 117 q 185 169 100 125 q 153 326 160 248 q 146 417 148 372 l 146 417 m 271 739 q 252 735 262 739 q 189 638 208 719 q 173 477 175 577 q 279 591 248 542 q 309 683 307 645 q 299 730 311 721 q 271 739 290 739 l 271 739 z "},"'":{"ha":96,"x_min":0,"x_max":48,"o":"m 14 727 q 3 734 7 727 q 2 744 0 739 q 8 752 3 749 q 18 765 15 756 q 21 783 20 774 q 20 795 21 791 q 19 805 18 800 q 24 813 20 810 q 35 815 29 816 q 43 809 40 814 q 48 788 47 802 q 45 763 48 774 q 21 728 39 738 q 14 727 18 727 l 14 727 z "},"(":{"ha":324,"x_min":0,"x_max":277,"o":"m 41 102 q 31 108 35 102 q 2 239 0 153 q 23 410 3 325 q 110 659 54 548 q 256 828 176 784 q 266 829 260 831 q 274 823 271 827 q 275 812 277 817 q 269 804 273 807 q 170 707 213 772 q 96 561 126 641 q 50 405 65 480 q 29 231 28 307 q 52 124 30 155 q 54 114 55 119 q 50 105 54 109 q 41 102 45 102 l 41 102 z "},")":{"ha":340,"x_min":0,"x_max":292,"o":"m 14 80 q 3 87 7 80 q 1 97 0 92 q 7 106 3 102 q 138 277 78 152 q 227 546 197 401 q 235 795 256 690 q 237 805 234 801 q 245 811 240 810 q 256 809 251 812 q 262 801 260 806 q 216 400 292 642 q 22 82 134 156 q 14 80 18 80 l 14 80 z "},"*":{"ha":446,"x_min":0,"x_max":398,"o":"m 190 878 q 165 966 187 926 q 140 1023 140 1010 q 156 1058 140 1044 q 198 1071 172 1071 q 240 1059 223 1071 q 256 1027 256 1046 q 232 966 256 1013 q 207 878 210 925 q 283 929 252 895 q 330 970 318 966 q 345 972 338 972 q 368 966 357 972 q 394 930 386 954 q 398 905 398 917 q 395 886 398 895 q 370 861 389 866 q 357 859 366 859 q 305 865 340 859 q 268 869 286 869 q 213 861 240 869 q 284 805 243 824 q 338 773 330 783 q 347 747 347 761 q 345 736 347 741 q 319 700 340 715 q 279 685 299 685 q 278 686 278 685 q 245 701 257 686 q 231 765 237 713 q 199 850 224 810 q 168 766 173 810 q 154 705 161 715 q 121 686 141 688 l 117 686 q 79 701 98 686 q 52 735 58 715 q 50 749 50 742 q 57 770 50 760 q 113 805 66 782 q 184 861 155 825 q 130 868 157 868 q 94 865 112 868 q 41 857 58 857 q 32 859 35 857 q 4 884 12 865 q 0 904 0 893 q 4 928 0 916 q 28 964 12 952 q 52 972 40 972 q 64 970 58 972 q 114 928 77 966 q 190 878 146 895 z "},"+":{"ha":354,"x_min":0,"x_max":307,"o":"m 102 235 q 99 236 100 235 q 91 243 93 238 q 90 253 88 248 l 174 545 q 180 553 176 551 q 191 555 185 556 q 199 548 196 553 q 200 538 201 543 l 115 245 q 102 235 111 235 l 102 235 m 293 385 q 292 385 293 385 l 14 391 q 4 396 7 392 q 0 406 0 399 q 4 415 0 411 q 14 418 8 418 l 293 412 q 303 408 299 412 q 307 398 307 404 q 302 389 307 393 q 293 385 298 385 l 293 385 z "},",":{"ha":84,"x_min":0,"x_max":37,"o":"m 14 271 q 6 273 10 271 q 1 282 2 277 q 3 292 0 287 q 8 306 7 298 q 9 318 9 314 q 14 328 9 323 q 23 332 18 332 q 33 328 28 332 q 37 318 37 323 q 36 310 37 317 q 33 293 36 302 q 25 276 31 284 q 14 271 20 271 l 14 271 z "},"-":{"ha":296,"x_min":0,"x_max":248,"o":"m 235 378 q 235 378 235 378 q 235 378 235 378 l 14 382 q 4 387 7 382 q 0 396 0 391 q 4 406 0 402 q 14 410 8 410 l 235 406 q 244 401 241 405 q 248 391 248 397 q 244 382 248 386 q 235 378 240 378 l 235 378 z "},"­":{"ha":296,"x_min":0,"x_max":248,"o":"m 235 378 q 235 378 235 378 q 235 378 235 378 l 14 382 q 4 387 7 382 q 0 396 0 391 q 4 406 0 402 q 14 410 8 410 l 235 406 q 244 401 241 405 q 248 391 248 397 q 244 382 248 386 q 235 378 240 378 l 235 378 z "},".":{"ha":96,"x_min":27,"x_max":66,"o":"m 66 313 q 61 299 66 305 q 47 294 55 294 q 33 299 39 294 q 27 313 27 305 q 33 327 27 321 q 47 333 39 333 q 61 327 55 333 q 66 313 66 321 l 66 313 z "},"/":{"ha":479,"x_min":-17,"x_max":382,"o":"m -1 34 q -8 35 -4 33 q -15 43 -14 38 q -15 54 -17 48 l 355 826 q 363 833 358 831 q 374 832 368 835 q 380 824 378 829 q 380 814 382 819 l 10 41 q -1 34 6 35 l -1 34 z "},":":{"ha":101,"x_min":0,"x_max":54,"o":"m 54 459 q 48 445 54 451 q 35 439 43 439 q 21 445 26 439 q 15 459 15 451 q 21 473 15 467 q 35 479 26 479 q 48 473 43 479 q 54 459 54 467 l 54 459 m 39 330 q 34 316 39 322 q 20 311 28 311 q 6 316 12 311 q 0 330 0 322 q 6 344 0 338 q 20 350 12 350 q 34 344 28 350 q 39 330 39 338 l 39 330 z "},";":{"ha":89,"x_min":-14,"x_max":41,"o":"m 1 284 q -7 286 -3 284 q -13 295 -12 290 q -10 305 -14 300 q -5 319 -7 311 q -4 332 -4 328 q 0 341 -4 337 q 9 345 4 345 q 19 341 15 345 q 23 332 23 337 q 23 323 23 330 q 20 307 22 316 q 12 290 17 298 q 1 284 7 284 l 1 284 m 41 459 q 36 445 41 451 q 22 439 31 439 q 8 445 14 439 q 3 459 3 451 q 8 473 3 467 q 22 479 14 479 q 36 473 31 479 q 41 459 41 467 l 41 459 z "},";":{"ha":89,"x_min":-14,"x_max":41,"o":"m 1 284 q -7 286 -3 284 q -13 295 -12 290 q -10 305 -14 300 q -5 319 -7 311 q -4 332 -4 328 q 0 341 -4 337 q 9 345 4 345 q 19 341 15 345 q 23 332 23 337 q 23 323 23 330 q 20 307 22 316 q 12 290 17 298 q 1 284 7 284 l 1 284 m 41 459 q 36 445 41 451 q 22 439 31 439 q 8 445 14 439 q 3 459 3 451 q 8 473 3 467 q 22 479 14 479 q 36 473 31 479 q 41 459 41 467 l 41 459 z "},"<":{"ha":314,"x_min":0,"x_max":267,"o":"m 182 310 q 177 311 180 310 l 8 382 q 0 395 0 386 q 9 408 1 404 l 247 494 q 258 494 253 496 q 264 486 262 492 q 264 476 267 481 q 256 469 262 471 l 51 394 l 188 336 q 195 329 193 334 q 195 318 197 323 q 182 310 191 310 l 182 310 z "},"=":{"ha":309,"x_min":0,"x_max":262,"o":"m 248 425 q 248 425 248 425 q 248 425 248 425 l 26 429 q 17 433 21 429 q 14 443 14 437 q 17 453 14 449 q 27 456 21 456 l 248 452 q 258 448 254 452 q 262 438 262 444 q 257 429 261 433 q 248 425 254 425 l 248 425 m 235 311 q 235 311 235 311 q 235 311 235 311 l 14 316 q 4 320 7 316 q 0 330 0 324 q 4 339 0 336 q 14 343 8 343 l 235 338 q 244 335 241 338 q 248 325 248 331 q 244 315 248 319 q 235 311 240 311 l 235 311 z "},">":{"ha":310,"x_min":0,"x_max":262,"o":"m 14 311 q 6 314 10 311 q 1 321 3 317 q 3 332 0 327 q 11 338 5 336 l 210 389 l 47 469 q 40 476 42 471 q 41 486 39 481 q 49 493 44 492 q 60 493 54 495 l 254 397 q 262 384 262 393 q 252 372 260 375 l 18 311 q 14 311 16 311 l 14 311 z "},"?":{"ha":433,"x_min":0,"x_max":385,"o":"m 35 172 q 31 174 33 172 q 23 180 25 176 q 23 191 21 185 q 104 334 54 266 q 207 463 155 403 q 284 559 250 513 q 334 645 319 605 q 323 735 355 703 q 226 749 286 768 q 92 523 112 702 q 87 513 92 517 q 78 511 83 510 q 68 515 72 511 q 65 525 65 519 q 217 774 87 722 q 342 754 293 800 q 359 635 385 709 q 307 545 343 592 q 228 446 271 497 q 127 320 176 387 q 48 181 77 253 q 35 172 44 173 l 35 172 m 15 108 q 9 109 12 108 q 2 116 4 111 q 2 126 0 121 l 9 146 q 17 153 12 151 q 27 153 22 155 q 35 146 33 151 q 35 136 37 141 l 27 116 q 15 108 23 108 l 15 108 z "},"@":{"ha":582,"x_min":27,"x_max":543,"o":"m 184 68 q 98 100 127 71 q 31 279 35 160 q 83 517 27 397 q 199 658 126 601 q 351 728 272 715 q 467 705 422 738 q 523 618 508 676 q 508 427 543 530 q 404 294 469 322 q 345 300 366 280 q 328 333 332 312 q 326 377 323 354 q 292 336 313 360 q 176 271 216 241 q 159 354 149 296 q 203 461 170 412 q 363 499 273 555 q 369 490 368 496 q 367 480 370 485 q 358 474 363 475 q 349 476 353 473 q 274 488 305 503 q 224 446 243 474 q 187 353 195 399 q 192 292 179 306 q 216 299 197 288 q 271 353 236 310 q 320 415 307 396 q 335 439 334 435 q 336 443 336 441 q 345 452 338 450 q 357 450 352 454 q 363 441 362 447 q 363 437 363 439 q 361 430 363 435 q 352 366 353 399 q 363 319 351 333 q 394 320 372 311 q 483 437 452 347 q 496 612 515 527 q 456 679 488 650 q 355 701 425 709 q 215 636 282 690 q 108 505 148 583 q 59 284 56 395 q 117 120 61 174 q 305 141 184 62 q 315 143 310 144 q 324 137 321 142 q 326 127 327 132 q 320 119 325 121 q 184 68 237 65 l 184 68 z "},"A":{"ha":1071,"x_min":-9,"x_max":1114,"o":"m 703 -96 q 695 -93 699 -96 q 690 -85 692 -90 q 697 148 669 11 q 786 432 726 284 q 919 707 846 579 q 1057 916 991 836 q 854 778 960 876 q 643 564 749 680 q 426 345 534 446 q 212 198 317 243 q 8 203 106 153 q 2 211 3 205 q 3 221 0 216 q 11 228 5 227 q 21 227 16 229 q 210 227 110 182 q 414 370 309 272 q 623 583 518 469 q 787 752 707 673 q 944 886 867 831 q 1095 954 1021 940 q 1110 947 1105 955 q 1107 931 1114 938 q 966 736 1042 864 q 826 457 890 608 q 717 -79 677 101 q 715 -89 718 -84 q 707 -95 713 -94 q 703 -96 705 -96 l 703 -96 m 4 516 q -6 522 -2 517 q -9 532 -9 526 q -3 541 -8 537 q 43 568 0 545 q 160 611 85 592 q 332 622 234 631 q 573 583 453 607 q 730 557 657 568 q 855 549 804 546 q 989 568 941 557 q 1039 580 1038 578 q 1049 579 1044 581 q 1056 571 1054 576 q 1055 560 1057 565 q 1047 553 1053 555 q 995 541 1044 552 q 857 522 946 530 q 728 530 803 519 q 568 557 653 541 q 330 595 448 581 q 166 584 237 603 q 55 544 95 566 q 13 519 14 522 q 4 516 9 516 l 4 516 z "},"B":{"ha":878,"x_min":0,"x_max":789,"o":"m 333 430 q 220 167 273 303 q 208 158 216 158 q 203 159 205 158 q 196 166 198 161 q 195 177 193 172 q 301 427 245 306 q 278 422 290 425 q 129 339 186 397 q 55 218 73 281 q 87 64 30 123 q 178 15 127 26 q 273 7 229 4 q 487 63 380 14 q 655 182 594 112 q 708 266 688 222 q 355 431 526 431 q 333 430 344 431 m 315 456 q 534 855 416 668 q 543 861 538 860 q 553 859 548 862 q 559 851 558 856 q 557 840 560 846 q 347 458 444 661 q 509 428 426 460 q 719 293 615 387 q 713 487 756 401 q 526 572 660 584 q 513 571 521 572 q 499 568 506 569 q 486 565 491 566 q 479 564 484 564 q 471 566 475 564 q 465 574 467 568 q 465 579 465 576 q 467 586 465 583 q 476 592 470 589 q 659 712 601 641 q 705 844 718 784 q 564 910 686 919 q 282 797 420 895 q 68 562 143 700 q 60 556 65 557 q 50 556 55 554 q 43 565 45 559 q 44 574 41 570 q 260 816 117 711 q 562 937 412 922 q 732 850 705 947 q 683 699 746 778 q 562 601 650 653 q 656 579 614 600 q 738 500 709 553 q 740 273 788 397 q 785 227 763 251 q 789 217 789 222 q 785 208 789 212 q 775 204 781 203 q 766 208 770 204 q 728 246 747 229 q 675 165 708 204 q 499 39 612 90 q 274 -20 387 -13 l 253 -20 q 68 45 135 -20 q 29 225 0 115 q 113 361 51 301 q 272 448 181 426 q 315 456 294 454 z "},"C":{"ha":644,"x_min":0,"x_max":597,"o":"m 149 -23 q 100 -15 123 -24 q 0 210 0 22 q 36 432 0 313 q 132 652 71 551 q 281 835 198 758 q 436 934 363 911 q 519 935 490 948 q 562 901 549 922 q 578 749 597 846 q 511 595 559 656 q 502 591 507 591 q 492 593 496 590 q 487 603 488 597 q 490 612 486 608 q 551 751 534 669 q 539 886 569 834 q 444 908 512 928 q 297 813 375 886 q 155 637 218 740 q 61 425 96 540 q 27 210 27 310 q 109 10 27 41 q 240 25 165 -7 q 391 117 316 58 q 519 239 466 177 q 528 244 522 243 q 538 241 533 245 q 543 232 542 237 q 539 222 543 227 q 453 134 507 182 q 334 44 399 86 q 245 -2 294 18 q 149 -23 197 -22 l 149 -23 z "},"D":{"ha":912,"x_min":0,"x_max":877,"o":"m 261 325 q 158 297 202 319 q 68 224 100 267 q 52 55 3 131 q 189 -5 94 0 q 418 36 285 -10 q 642 200 542 81 q 474 292 568 254 q 298 326 376 326 l 290 326 q 283 309 286 317 l 212 94 q 199 85 208 85 q 195 85 197 85 q 188 92 190 87 q 186 102 185 97 l 258 317 q 261 325 260 321 m 298 353 q 484 317 386 353 q 659 221 583 277 q 736 345 703 277 q 802 755 848 574 q 718 883 772 846 q 609 924 663 920 q 363 873 488 937 q 170 696 239 808 q 161 690 167 692 q 151 692 156 689 q 145 700 146 695 q 146 711 144 705 q 352 897 217 826 q 612 951 488 966 q 827 762 778 927 q 761 332 877 571 q 682 205 726 263 q 739 160 718 178 q 763 139 761 142 q 767 130 767 135 q 764 120 768 124 q 754 116 760 116 q 745 119 749 115 q 722 138 744 120 q 665 184 701 157 q 427 10 559 58 q 209 -33 292 -35 q 86 -7 127 -31 q 31 39 44 17 q 4 135 0 81 q 46 240 8 189 q 212 343 106 317 q 270 351 241 349 q 345 551 303 446 q 431 762 393 673 q 471 856 468 850 q 478 863 473 861 q 489 863 484 865 q 496 855 494 860 q 496 845 498 850 q 456 751 493 839 q 370 541 418 663 q 298 353 330 443 z "},"E":{"ha":623,"x_min":0,"x_max":575,"o":"m 219 -1 q 168 7 193 -1 q 20 197 53 45 q 41 424 0 309 q 197 637 88 551 q 386 677 288 707 q 345 799 340 741 q 380 899 349 858 q 447 954 409 938 q 516 957 484 970 q 557 912 538 950 q 560 783 575 875 q 554 774 559 777 q 545 772 550 771 q 535 778 538 773 q 534 788 532 783 q 505 932 554 908 q 453 927 482 941 q 401 883 425 913 q 380 841 391 871 q 373 770 368 812 q 418 680 378 728 l 446 647 q 450 638 450 643 q 446 629 450 633 q 438 625 443 625 q 429 627 433 624 q 213 616 317 696 q 95 479 135 553 q 46 332 56 405 q 47 202 36 260 q 176 33 76 66 q 465 167 302 -1 l 511 214 q 520 218 515 218 q 530 215 526 218 q 534 205 534 211 q 530 195 534 200 l 485 148 q 313 20 396 55 q 219 -1 264 -1 l 219 -1 z "},"F":{"ha":482,"x_min":0,"x_max":772,"o":"m 415 916 l 418 922 q 426 928 420 926 q 436 928 431 930 q 444 920 441 925 l 444 916 q 516 911 479 915 q 654 900 606 903 q 724 897 703 897 q 748 899 744 898 q 751 901 749 901 q 761 902 756 904 q 769 895 766 901 q 768 881 772 888 q 764 877 767 879 q 753 873 761 875 q 729 870 745 871 q 685 871 713 870 q 615 875 657 872 q 513 884 573 878 q 432 888 471 888 q 327 655 381 783 q 283 554 305 604 l 404 552 q 414 548 410 552 q 418 538 418 544 q 413 529 417 532 q 404 525 410 525 l 404 525 l 271 528 q 185 345 230 435 q 24 87 110 191 q 14 83 20 83 q 5 86 9 83 q 0 96 1 90 q 3 105 0 101 q 161 358 87 206 q 241 528 203 442 l 178 529 q 169 533 173 530 q 165 543 165 537 q 169 552 165 549 q 178 556 173 556 l 179 556 l 254 555 q 302 666 278 610 q 402 889 353 787 q 284 880 340 888 q 115 846 179 865 q 47 825 50 827 q 42 824 45 824 q 30 833 34 824 q 30 843 28 838 q 37 850 32 848 q 106 872 40 852 q 281 907 173 892 q 415 916 344 917 z "},"G":{"ha":733,"x_min":0,"x_max":675,"o":"m 603 434 q 569 386 595 422 q 489 251 533 334 q 416 71 445 168 q 397 -11 403 21 q 392 -60 392 -42 q 393 -84 391 -77 q 396 -93 395 -92 q 406 -94 401 -92 q 412 -101 410 -96 q 411 -112 413 -106 q 404 -119 409 -117 q 396 -120 400 -120 q 378 -113 387 -120 q 367 -90 371 -107 q 367 -33 362 -73 q 390 77 371 6 q 484 300 427 203 q 416 231 452 266 q 104 38 204 24 q 1 188 7 55 q 39 396 0 278 q 149 631 79 514 q 495 937 313 894 q 617 880 583 954 q 618 750 640 824 q 528 625 597 677 q 518 623 524 622 q 509 629 513 624 q 507 639 506 633 q 513 648 508 644 q 592 757 572 692 q 592 869 612 822 q 563 904 585 890 q 500 911 542 918 q 172 617 330 870 q 65 389 104 503 q 28 189 27 275 q 109 65 32 77 q 219 102 153 60 q 355 211 284 144 q 488 344 427 277 q 568 434 536 395 l 539 434 q 420 432 471 433 q 359 430 369 431 q 355 429 357 429 q 348 432 351 429 q 342 439 344 435 q 344 450 341 445 q 353 456 347 454 q 426 459 365 458 q 557 461 486 460 q 662 461 628 461 q 671 457 667 461 q 675 448 675 453 q 671 438 675 442 q 662 434 667 434 l 603 434 z "},"H":{"ha":919,"x_min":0,"x_max":978,"o":"m 136 -45 l 136 -45 l 136 -45 l 136 -45 m 362 524 q 281 351 320 435 q 196 155 224 228 q 161 56 174 95 q 143 -4 149 17 q 137 -35 138 -26 q 136 -45 136 -44 q 135 -55 137 -50 q 127 -61 132 -59 q 123 -62 125 -62 q 110 -53 115 -62 q 171 165 101 -24 q 256 361 199 237 q 332 524 292 441 q 255 519 293 523 q 88 498 155 511 q 18 485 21 486 q 14 484 16 484 q 6 487 9 484 q 1 494 3 490 q 3 505 0 500 q 12 511 5 509 q 83 525 15 513 q 254 547 151 538 q 345 551 299 551 q 376 614 360 582 q 483 832 438 743 q 531 928 528 922 q 539 936 534 934 q 549 935 544 937 q 556 927 554 932 q 555 916 557 922 q 507 821 552 910 q 400 602 463 731 q 375 551 388 576 q 462 546 418 550 q 720 545 607 533 q 774 659 747 602 q 897 911 846 809 q 951 1019 948 1013 q 959 1026 954 1025 q 970 1025 964 1028 q 976 1018 975 1023 q 975 1007 978 1013 q 921 899 972 1001 q 799 648 871 798 q 752 549 775 598 q 895 576 850 561 q 905 575 900 577 q 911 567 909 572 q 910 556 913 562 q 903 550 908 551 q 739 520 852 534 q 661 349 699 434 q 560 95 595 198 q 521 -34 536 19 q 498 -122 506 -87 q 487 -176 490 -157 q 483 -202 484 -195 q 483 -211 483 -210 l 483 -210 l 456 -216 q 456 -206 456 -214 q 459 -177 456 -197 q 470 -122 462 -157 q 494 -31 478 -86 q 534 103 509 24 q 635 358 569 208 q 707 517 671 437 q 459 519 597 507 q 362 524 410 524 z "},"I":{"ha":413,"x_min":0,"x_max":462,"o":"m 106 27 q 102 26 104 26 l 100 26 l 16 18 l 14 18 q 5 22 9 18 q 1 31 1 25 q 3 40 0 36 q 13 45 7 44 l 92 53 q 145 179 102 77 q 264 472 197 304 q 357 706 323 616 q 409 846 392 797 q 430 915 425 895 q 435 939 435 935 q 434 941 435 940 q 433 942 433 942 q 389 919 423 945 q 298 825 354 892 q 197 686 242 758 q 130 551 152 613 q 120 455 107 489 q 120 445 122 450 q 113 437 118 439 q 103 437 108 435 q 96 444 98 439 q 134 630 71 503 q 277 843 189 737 q 328 900 298 869 q 388 951 358 930 q 439 968 417 972 q 450 963 444 968 q 461 945 457 958 q 462 938 462 943 q 460 923 462 934 q 452 892 458 912 q 434 838 446 871 q 404 753 422 804 q 358 632 385 703 q 292 467 330 562 q 171 171 224 298 q 123 56 136 88 l 186 62 q 196 60 192 63 q 201 50 200 56 q 198 40 201 45 q 189 35 195 36 l 106 27 z "},"J":{"ha":564,"x_min":0,"x_max":563,"o":"m 89 -9 q 63 -4 75 -9 q 1 119 0 21 q 121 371 9 248 q 424 560 235 492 q 503 795 472 694 q 536 920 534 895 q 470 894 523 924 q 385 812 413 857 q 399 722 352 757 q 405 713 404 719 q 402 703 406 708 q 393 698 399 699 q 383 701 388 697 q 355 813 324 745 q 445 910 385 869 q 543 945 506 951 q 563 919 563 940 q 531 794 561 892 q 457 572 500 696 q 512 588 484 581 q 523 587 518 589 q 529 578 527 584 q 528 568 530 573 q 519 562 525 564 q 446 539 481 551 q 356 309 409 437 q 255 112 302 181 q 89 -9 165 -7 l 89 -9 m 412 527 q 141 352 243 461 q 28 119 35 237 q 72 22 27 40 q 233 128 138 3 q 412 527 300 222 l 412 527 z "},"K":{"ha":688,"x_min":0,"x_max":837,"o":"m 103 271 l 27 86 q 15 78 23 78 q 9 79 12 78 q 2 86 4 81 q 2 96 0 91 l 80 287 q 66 289 73 290 q 61 287 62 287 q 51 287 56 285 q 43 294 46 289 q 43 303 41 298 q 50 311 45 309 q 58 315 54 314 q 100 334 71 319 l 351 948 q 358 956 353 954 q 369 956 363 958 q 376 948 374 953 q 376 938 378 943 l 136 353 q 163 368 149 359 q 380 505 245 412 q 584 689 486 583 q 745 878 682 795 q 812 966 808 960 q 821 971 815 970 q 831 969 826 972 q 836 960 836 966 q 834 950 837 955 q 766 861 831 944 q 603 670 702 777 q 395 484 503 562 q 216 366 289 409 q 121 314 157 332 l 113 297 q 178 231 142 273 q 288 120 224 177 q 442 36 353 64 q 650 37 531 7 q 661 36 656 39 q 667 28 665 33 q 666 18 668 22 q 657 11 663 13 q 539 -5 596 -5 q 347 47 438 -5 q 240 127 286 83 q 158 213 194 172 q 105 269 129 246 l 103 271 z "},"L":{"ha":781,"x_min":0,"x_max":808,"o":"m 188 79 q 186 74 186 76 q 184 61 184 64 q 183 57 184 59 q 170 47 178 47 l 166 47 q 159 53 162 48 q 157 66 155 57 l 159 77 q 115 72 136 74 q 16 60 22 62 l 14 60 q 5 64 9 60 q 1 73 1 67 q 3 82 0 78 q 12 87 7 87 q 112 99 18 89 q 166 104 138 102 q 182 173 172 131 q 237 343 196 222 q 327 603 278 464 q 414 845 376 741 q 456 962 451 948 q 463 970 458 968 q 473 970 468 972 q 481 964 479 968 q 481 954 484 959 q 442 844 479 946 q 356 602 406 743 q 264 338 306 461 q 209 166 222 216 q 195 107 200 129 q 334 119 258 113 q 578 127 463 128 q 766 123 730 123 l 790 123 q 793 122 791 122 l 794 122 q 808 109 808 121 q 803 99 807 103 q 793 95 799 95 q 791 95 793 95 q 787 95 790 95 q 777 96 783 96 q 759 96 770 96 q 732 97 748 96 q 694 97 716 97 q 643 98 672 98 q 577 100 614 99 q 336 92 464 101 q 188 79 254 85 z "},"M":{"ha":720,"x_min":0,"x_max":770,"o":"m 473 -48 q 472 -48 473 -48 q 463 -44 467 -48 q 459 -34 459 -40 q 470 54 458 -29 q 518 283 481 136 q 636 632 560 428 q 710 842 677 745 q 743 968 743 939 q 742 979 743 978 q 723 968 738 979 q 683 926 709 956 q 587 784 635 868 q 452 532 537 696 q 300 248 361 359 q 216 112 239 136 q 207 106 211 107 q 199 105 202 104 q 195 107 196 106 q 190 159 180 115 q 212 248 196 191 q 283 502 241 362 q 334 685 311 602 q 357 784 357 768 q 356 804 357 800 q 341 789 352 802 q 310 747 330 777 q 257 663 290 718 q 171 490 214 586 q 93 312 127 395 q 26 168 37 178 q 7 165 17 161 q 1 181 0 170 q 9 216 3 192 q 37 303 19 246 q 125 565 68 399 q 213 818 174 707 q 256 942 252 928 q 256 943 256 943 q 263 950 258 948 q 274 951 269 953 q 282 944 279 949 q 282 934 284 939 q 181 644 235 798 q 86 366 128 490 q 234 676 155 531 q 311 796 281 759 q 364 831 344 838 q 379 819 374 828 q 384 800 383 810 q 385 784 385 790 q 365 691 385 766 q 309 494 345 617 q 256 309 282 404 q 218 159 229 214 q 311 325 253 216 q 428 545 370 433 q 563 798 513 709 q 665 946 614 886 q 707 989 690 976 q 734 1005 724 1002 q 750 1006 744 1008 q 764 996 758 1004 q 770 968 770 988 q 739 841 770 935 q 662 623 707 747 q 545 276 586 419 q 496 49 507 131 q 486 -35 486 -33 q 482 -45 486 -41 q 473 -48 478 -48 l 473 -48 z "},"N":{"ha":861,"x_min":0,"x_max":994,"o":"m 14 41 q 3 47 8 41 q 1 57 0 52 q 6 66 1 62 q 202 277 125 157 q 332 536 279 398 q 427 814 384 673 q 469 947 448 881 q 475 955 471 953 q 485 956 479 958 q 493 951 490 955 q 496 941 496 947 q 486 849 494 936 q 470 633 477 762 q 467 376 463 505 q 495 159 471 248 q 532 101 512 103 q 532 101 532 101 q 532 101 532 101 q 551 111 538 101 q 586 153 564 120 q 637 253 608 186 q 689 384 666 319 q 724 486 711 448 l 725 488 q 732 510 727 495 q 732 511 732 510 q 779 651 746 559 q 860 841 811 743 q 970 1004 908 939 q 980 1008 975 1008 q 990 1004 985 1008 q 994 995 994 1000 q 990 985 994 989 q 882 827 930 922 q 803 641 835 731 q 758 503 772 551 q 751 479 753 487 l 749 477 q 628 171 681 269 q 532 74 575 73 q 532 74 532 74 q 532 74 532 74 q 469 151 492 75 q 440 357 445 237 q 440 600 435 477 q 455 815 446 722 q 454 810 454 812 q 452 806 453 808 q 356 524 409 663 q 224 260 303 384 q 22 44 144 137 q 14 41 18 41 l 14 41 z "},"O":{"ha":657,"x_min":-15,"x_max":609,"o":"m 104 446 q 70 83 16 210 q 128 26 91 39 q 244 47 179 10 q 378 167 310 84 q 510 387 456 264 q 576 628 564 509 q 541 835 588 747 q 340 920 471 949 q 229 866 283 907 q 139 761 176 825 q 97 615 102 697 q 106 520 94 565 q 186 656 144 600 q 262 744 228 711 q 335 805 307 785 q 366 824 363 824 q 376 825 370 827 q 384 819 381 823 q 385 808 386 813 q 378 800 383 803 q 349 782 376 800 q 281 724 322 764 q 201 630 244 690 q 118 481 157 570 q 183 373 145 415 q 248 319 222 331 q 255 312 253 317 q 254 302 257 307 q 247 294 252 296 q 237 295 242 292 q 172 345 210 306 q 104 446 134 384 m 153 -5 q 120 1 136 -5 q 45 72 71 17 q 83 468 -15 212 q 89 482 86 475 q 70 617 66 543 q 116 774 76 705 q 214 888 155 844 q 334 947 272 932 q 564 848 485 979 q 606 670 609 764 q 580 499 603 576 q 399 150 524 306 q 153 -5 267 -9 z "},"P":{"ha":685,"x_min":0,"x_max":718,"o":"m 151 186 q 140 149 144 165 l 100 15 q 87 5 96 5 q 83 5 85 5 q 76 12 78 7 q 75 22 73 17 l 113 157 q 122 187 117 170 q 75 198 94 189 q 37 222 49 210 q 19 319 0 262 q 83 401 33 363 q 203 451 129 437 q 237 564 220 506 q 306 784 277 690 q 338 890 334 878 l 339 891 q 346 900 341 897 q 356 901 351 902 q 364 894 361 899 q 365 884 366 889 q 334 785 363 877 q 267 564 306 692 q 233 454 249 507 q 315 452 273 456 q 405 436 368 446 q 447 426 442 427 q 455 419 452 424 q 456 409 457 414 q 449 401 454 404 q 439 400 444 398 q 401 409 437 401 q 315 425 366 418 q 224 426 268 430 q 191 319 207 371 l 159 213 q 164 214 161 213 q 294 239 213 215 q 489 361 397 274 q 625 556 580 448 q 655 686 650 610 q 620 844 661 761 q 454 935 572 932 q 260 881 364 937 q 82 703 155 824 q 74 696 79 698 q 63 698 68 695 q 57 706 58 701 q 58 716 56 711 q 232 896 124 829 q 454 962 340 962 q 644 857 588 958 q 650 545 718 713 q 503 337 603 431 q 302 214 406 248 q 151 186 208 184 m 130 214 q 163 323 144 258 q 193 421 178 371 q 100 381 137 409 q 45 311 57 348 q 56 241 31 269 q 90 222 64 232 q 130 214 105 216 z "},"Q":{"ha":771,"x_min":0,"x_max":794,"o":"m 381 56 q 252 13 302 10 q 192 28 214 14 q 121 167 126 64 l 121 189 q 22 158 74 188 q 11 157 16 155 q 3 163 6 158 q 1 173 0 168 q 7 181 3 178 q 123 216 64 215 q 208 526 132 361 q 448 787 311 733 q 536 787 499 806 q 562 765 553 778 q 576 743 572 753 q 581 732 580 733 q 579 722 582 726 q 570 715 576 718 q 560 717 565 714 q 554 725 555 720 q 551 732 554 726 q 541 748 548 739 q 523 763 534 757 q 457 762 497 777 q 293 618 363 723 q 184 389 222 513 q 149 214 155 294 q 203 201 176 211 q 289 156 247 184 q 374 95 331 128 q 382 89 378 92 q 597 328 506 172 q 707 659 692 491 q 696 787 713 718 q 621 907 680 855 q 387 923 524 980 q 243 805 298 882 q 182 635 189 728 q 178 625 182 629 q 168 622 174 622 q 158 627 162 623 q 155 636 155 631 q 220 821 161 738 q 376 947 279 904 q 638 928 528 1010 q 734 656 745 838 q 620 314 718 483 q 405 71 528 158 q 493 12 448 39 q 623 -35 554 -25 q 774 -7 692 -44 q 784 -6 779 -4 q 791 -13 789 -8 q 792 -23 794 -18 q 785 -31 791 -28 q 651 -63 718 -63 q 548 -44 600 -63 q 450 7 496 -24 q 381 56 414 31 m 149 187 l 149 168 q 205 52 153 81 q 357 73 263 22 q 248 150 302 117 q 149 187 199 180 z "},"R":{"ha":740,"x_min":0,"x_max":768,"o":"m 193 202 q 296 226 237 210 q 258 248 279 240 q 210 256 237 255 q 193 202 201 227 m 163 197 q 180 254 171 223 q 165 253 173 254 q 60 226 84 240 q 36 212 42 218 q 31 205 30 206 q 38 199 31 203 q 61 193 45 196 q 106 191 78 191 q 163 197 128 191 m 217 282 q 262 275 243 281 q 327 235 301 261 l 343 240 q 538 361 447 275 q 675 556 629 448 q 705 686 699 610 q 669 844 710 761 q 503 936 621 932 q 309 881 414 938 q 132 703 205 825 q 123 697 128 699 q 113 699 118 696 q 106 706 108 701 q 108 717 105 711 q 281 896 174 829 q 503 963 389 963 q 693 857 637 959 q 700 546 768 713 q 553 338 652 431 q 351 214 455 248 l 347 213 q 371 184 359 199 q 433 114 396 150 q 532 46 470 77 q 698 -2 595 16 q 707 -8 704 -3 q 709 -18 710 -12 q 704 -26 708 -23 q 696 -29 701 -29 l 694 -29 q 519 22 585 -10 q 415 93 454 55 q 349 167 376 131 q 319 204 334 187 q 184 172 242 182 l 161 98 l 123 -37 q 110 -46 119 -46 l 106 -46 q 98 -39 100 -44 q 96 -29 95 -35 l 136 105 q 155 168 143 130 q 111 165 130 165 q 12 184 33 163 q 5 214 0 197 q 161 279 25 260 q 189 282 176 281 q 260 512 222 391 q 328 732 298 639 q 361 840 357 826 l 361 840 q 368 848 363 846 q 378 849 372 850 q 386 842 383 847 q 387 832 389 838 q 356 733 385 825 q 288 513 328 641 q 217 282 251 392 z "},"S":{"ha":561,"x_min":0,"x_max":618,"o":"m 83 6 q 24 27 37 8 q 18 100 0 55 q 107 203 36 149 q 306 288 179 258 q 229 408 283 341 q 154 515 189 458 q 107 635 118 572 q 128 764 96 698 q 292 941 186 873 q 478 1000 388 1000 q 597 937 566 998 q 603 830 618 902 q 498 637 587 758 q 489 631 494 632 q 479 634 484 631 q 474 643 475 638 q 476 653 473 648 q 559 787 536 733 q 582 875 582 842 q 573 924 583 908 q 477 972 549 971 q 475 972 476 972 q 364 947 425 972 q 247 873 303 922 q 153 751 191 824 q 134 636 123 692 q 178 527 145 580 q 251 424 212 473 q 301 355 279 388 q 332 293 323 323 q 417 303 372 300 q 427 300 422 304 q 431 291 431 296 q 428 281 431 285 q 418 276 425 277 q 338 267 375 273 q 288 106 349 178 q 149 17 233 44 q 83 6 109 6 l 83 6 m 311 261 q 158 203 209 236 q 43 90 69 151 q 37 68 39 81 q 44 45 36 56 q 142 43 68 22 q 266 121 214 65 q 311 261 317 178 l 311 261 z "},"T":{"ha":486,"x_min":0,"x_max":979,"o":"m 153 27 q 148 28 151 27 q 140 35 142 30 q 140 45 138 40 l 466 891 q 451 892 458 892 q 241 905 361 899 q 55 905 104 909 q 36 903 43 904 q 27 900 30 901 q 23 897 24 898 q 14 892 19 892 q 4 897 8 892 q 0 906 0 901 q 4 916 0 911 q 17 925 9 921 q 48 931 26 929 q 117 934 71 934 q 242 932 163 935 q 452 920 363 926 q 689 910 575 909 q 962 942 804 911 q 973 940 968 943 q 979 932 977 937 q 977 921 979 926 q 968 916 974 917 q 711 883 819 886 q 494 889 604 880 l 165 36 q 153 27 161 27 l 153 27 z "},"U":{"ha":650,"x_min":-5,"x_max":721,"o":"m 413 -38 q 403 -35 408 -38 q 389 26 386 -24 q 424 213 393 87 q 500 459 452 323 q 596 718 548 595 q 442 451 527 593 q 275 194 357 309 q 133 38 193 80 q 31 29 66 -6 q 10 196 -5 66 q 69 464 23 306 q 165 743 113 613 q 260 937 218 873 q 269 942 264 941 q 279 941 274 943 q 284 932 283 937 q 283 922 286 926 q 190 731 242 860 q 95 456 138 602 q 36 184 47 292 q 51 48 24 77 q 118 61 70 29 q 260 219 176 102 q 431 485 343 337 q 590 763 519 633 q 694 958 661 893 q 702 965 697 964 q 712 964 707 967 q 719 957 717 962 q 719 947 721 952 q 663 811 715 939 q 548 514 610 684 q 450 207 486 344 q 424 82 431 127 q 416 16 416 37 q 418 -9 416 -5 q 429 -15 425 -9 q 431 -25 432 -20 q 426 -34 431 -31 q 413 -38 420 -38 l 413 -38 m 396 -50 l 396 -50 q 396 -50 396 -50 q 396 -50 396 -50 z "},"V":{"ha":454,"x_min":0,"x_max":690,"o":"m 32 -13 q 23 -11 27 -13 q 13 -2 18 -9 q 4 23 7 5 q 0 74 1 41 q 3 161 0 107 q 38 483 11 281 q 83 796 62 661 q 107 941 105 932 q 112 949 108 946 q 123 951 117 952 q 131 946 128 950 q 134 936 134 941 q 111 797 132 928 q 66 491 90 665 q 31 174 40 294 q 28 56 26 90 q 34 17 31 22 l 37 20 q 151 192 88 81 q 282 434 214 302 q 417 682 350 562 q 548 889 484 802 q 668 1010 612 977 q 679 1012 673 1013 q 687 1005 684 1010 q 688 995 690 1000 q 682 987 686 989 q 565 867 628 955 q 436 661 502 779 q 307 421 370 543 q 173 177 237 289 q 57 2 110 66 q 32 -13 42 -13 z "},"W":{"ha":788,"x_min":0,"x_max":771,"o":"m 394 -61 q 355 -49 373 -61 q 281 297 277 5 q 288 454 282 384 q 219 284 260 375 q 128 131 178 193 q 36 80 71 62 q 6 200 0 97 q 53 468 12 299 q 157 819 116 716 q 201 922 198 922 q 210 928 205 927 q 220 927 215 930 q 227 919 225 924 q 225 909 228 913 q 182 808 223 911 q 79 462 141 706 q 39 254 48 331 q 34 143 29 178 q 48 104 38 108 q 68 111 54 101 q 108 149 83 120 q 180 267 146 196 q 241 407 214 337 q 283 526 268 477 q 300 577 299 574 q 306 585 302 582 q 316 586 311 587 q 324 581 321 585 q 326 571 327 576 q 318 486 326 566 q 308 296 311 406 q 370 -26 305 22 q 432 -22 395 -43 q 673 480 567 60 q 731 783 711 637 q 739 935 747 925 q 738 944 736 939 q 743 953 739 949 q 753 955 748 956 q 762 949 759 954 q 768 881 771 931 q 758 778 765 831 q 696 462 737 625 q 592 151 650 277 q 446 -45 523 -2 q 394 -61 418 -61 z "},"X":{"ha":836,"x_min":0,"x_max":1108,"o":"m 559 452 q 592 257 574 345 q 646 32 621 117 q 673 -56 671 -53 q 672 -66 675 -61 q 665 -73 670 -71 q 661 -74 663 -74 q 648 -64 652 -74 q 621 24 646 -61 q 566 252 595 110 q 536 424 549 330 q 279 143 391 252 q 92 -27 160 26 q 22 -80 24 -80 q 15 -82 18 -82 q 3 -76 8 -82 q 1 -66 0 -71 q 7 -58 3 -61 q 76 -5 9 -58 q 261 163 143 47 q 530 460 378 277 q 519 562 524 509 q 517 929 501 740 q 522 938 517 935 q 532 941 526 942 q 541 937 537 941 q 544 926 544 932 q 547 564 528 740 q 555 490 550 526 q 815 774 699 661 q 1011 951 939 894 q 1086 1008 1083 1008 q 1096 1011 1090 1012 q 1105 1005 1101 1010 q 1107 995 1108 1000 q 1101 986 1106 989 q 1027 929 1099 985 q 833 754 956 873 q 559 452 712 637 z "},"Y":{"ha":720,"x_min":0,"x_max":787,"o":"m 106 -60 q 50 -48 73 -60 q 16 -25 28 -37 q 3 -11 4 -13 q 1 -1 0 -6 q 6 8 1 5 q 16 11 11 12 q 25 5 22 9 q 36 -6 26 3 q 65 -25 46 -16 q 113 -33 85 -34 q 515 317 332 -18 q 619 538 573 423 q 699 757 665 653 q 600 578 656 673 q 477 396 543 482 q 317 248 401 295 q 177 230 232 201 q 141 270 157 239 q 127 362 124 300 q 169 532 130 425 q 242 715 203 623 q 310 868 281 806 q 340 935 338 930 q 348 941 342 939 q 358 941 353 943 q 365 933 363 939 q 364 923 367 928 q 334 858 363 920 q 267 704 306 795 q 194 522 228 613 q 154 346 155 416 q 190 254 153 275 q 302 271 229 233 q 456 412 374 309 q 606 644 538 523 q 716 851 675 765 q 760 943 758 937 q 767 950 762 948 q 777 950 772 951 q 785 943 783 948 q 785 933 787 939 q 768 882 777 909 l 768 880 q 673 602 730 757 q 537 299 616 446 q 353 52 458 152 q 115 -60 249 -47 q 106 -60 110 -60 z "},"Z":{"ha":761,"x_min":0,"x_max":841,"o":"m 16 50 q 5 55 9 50 q 3 70 0 62 q 191 319 14 87 q 393 536 273 422 q 624 744 513 650 q 789 880 735 837 q 535 890 736 883 q 411 890 454 893 q 351 883 368 888 q 332 876 334 879 q 324 865 331 869 q 313 866 318 863 q 307 873 309 868 q 305 880 305 875 q 309 891 305 885 q 316 898 311 894 q 334 906 321 902 q 371 914 347 911 q 436 919 395 918 q 536 918 476 920 q 712 910 649 913 q 802 906 776 907 q 827 905 827 905 q 839 895 836 903 q 834 880 841 886 q 711 781 826 875 q 452 556 596 688 q 213 302 309 424 q 48 85 76 123 q 151 97 83 93 q 316 90 218 100 q 485 92 412 81 q 599 116 557 102 q 643 132 641 130 q 653 133 648 134 q 661 125 658 131 q 661 116 663 121 q 654 108 659 111 q 580 82 649 103 q 395 58 511 61 q 313 63 356 58 q 96 65 171 76 q 20 51 21 54 q 16 50 18 50 z "},"[":{"ha":354,"x_min":0,"x_max":307,"o":"m 43 103 q 12 105 26 103 q 1 115 5 106 q 0 119 1 116 q 1 131 0 123 q 5 153 2 138 q 16 193 9 168 q 34 255 22 218 q 61 345 45 292 q 101 467 78 397 q 146 601 121 526 q 192 733 172 675 q 216 798 212 791 q 221 802 218 800 q 232 806 224 804 q 255 807 239 808 q 294 803 270 807 q 303 798 300 802 q 306 788 307 793 q 301 779 305 782 q 290 777 296 776 q 259 780 274 779 q 238 780 245 781 q 198 669 229 758 q 127 460 168 580 q 28 130 31 165 q 57 130 42 130 q 81 132 73 131 q 91 129 87 132 q 96 119 95 125 q 93 110 96 114 q 83 105 90 106 q 69 104 81 104 q 43 103 57 103 l 43 103 m 235 779 l 235 779 l 235 779 l 235 779 z "},"\\":{"ha":479,"x_min":-17,"x_max":382,"o":"m 366 34 l 366 34 q 355 41 359 35 l -15 814 q -15 824 -17 819 q -8 832 -14 829 q 2 833 -3 835 q 10 826 7 831 l 380 54 q 380 43 382 48 q 374 35 378 38 q 366 34 370 33 z "},"]":{"ha":353,"x_min":0,"x_max":306,"o":"m 14 98 q 4 101 8 98 q 0 111 1 105 q 4 120 0 117 q 13 125 7 124 l 71 127 q 148 368 105 233 q 226 613 191 502 q 274 764 262 725 q 252 765 265 765 q 227 765 239 766 q 217 769 220 765 q 212 778 213 772 q 216 788 212 784 q 226 792 220 792 q 265 792 250 793 q 287 789 279 791 q 297 785 294 787 q 301 782 300 783 q 304 768 306 776 q 275 677 302 762 q 211 476 248 593 q 141 257 174 360 q 94 109 108 154 q 81 100 90 100 l 14 98 q 14 98 14 98 l 14 98 z "},"^":{"ha":688,"x_min":0,"x_max":0,"o":""},"_":{"ha":513,"x_min":-7,"x_max":433,"o":"m 409 182 q 409 182 409 182 q 409 182 409 182 l 17 186 q 0 190 7 186 q -7 199 -7 194 q 1 209 -6 205 q 18 213 7 213 l 410 209 q 427 204 420 208 q 433 195 433 201 q 426 185 433 189 q 409 182 419 182 l 409 182 z "},"`":{"ha":694,"x_min":144,"x_max":456,"o":"m 456 732 l 410 732 l 186 869 q 154 896 165 882 q 144 924 144 909 q 158 959 144 945 q 194 972 172 972 q 221 964 208 972 q 259 932 235 956 l 456 732 z "},"a":{"ha":333,"x_min":-75,"x_max":348,"o":"m -45 283 q -57 286 -52 283 q -68 296 -62 288 q -75 323 -75 304 q -38 420 -72 366 q 41 494 -5 475 q 77 497 57 500 q 119 471 98 494 q 141 500 133 488 q 150 511 149 511 q 158 517 153 516 q 168 515 163 518 q 174 508 172 513 q 173 498 175 503 q 141 387 142 425 q 153 342 139 350 q 221 360 174 331 q 323 456 268 389 q 332 461 327 460 q 342 458 338 462 q 347 449 347 454 q 345 439 348 444 q 166 312 242 316 q 139 319 151 312 q 116 352 123 327 q 120 427 109 377 q 48 345 86 384 q -45 283 -14 283 l -45 283 m -45 311 q -45 311 -45 311 q -43 311 -45 311 q -35 313 -41 311 q -21 321 -30 315 q -1 337 -13 326 q 28 364 12 347 q 102 449 68 404 q 100 452 101 450 q 56 470 80 475 q -2 425 26 462 q -43 347 -30 388 q -47 320 -48 328 q -45 311 -47 311 q -45 311 -45 311 l -45 311 z "},"b":{"ha":229,"x_min":-88,"x_max":262,"o":"m -73 267 q -79 268 -77 267 q -86 275 -84 271 q -86 286 -88 280 q -60 348 -83 293 q -3 483 -37 402 q -3 484 -3 483 q 93 700 43 591 q 175 869 142 808 q 230 924 208 927 q 239 921 233 924 q 249 908 245 918 q 236 808 262 868 q 176 694 211 749 q 80 553 128 621 q 22 471 33 486 q 6 435 14 452 q 45 479 27 463 q 91 505 73 501 q 121 504 110 509 q 149 460 145 494 q 130 381 152 424 q 60 305 107 338 q -2 292 27 287 q -44 306 -31 298 q -62 274 -60 276 q -73 267 -66 267 l -73 267 m -31 329 q 1 319 -20 323 q 45 328 22 315 q 105 392 85 356 q 121 457 124 429 q 119 468 121 461 q 111 479 117 475 q 63 458 94 484 q 16 402 41 439 q -31 329 -9 365 l -31 329 m 225 894 q 199 855 218 889 q 74 591 149 764 q 153 709 115 649 q 225 894 235 840 l 225 894 z "},"c":{"ha":184,"x_min":-68,"x_max":197,"o":"m -21 272 q -39 275 -31 272 q -61 343 -68 289 q -19 444 -52 397 q 47 505 14 490 q 70 507 61 509 q 83 501 79 505 q 92 430 103 484 q 86 421 90 424 q 76 419 81 418 q 67 425 70 420 q 65 435 64 429 q 68 454 67 446 q 68 468 68 463 q 67 475 68 473 q 66 479 66 478 q 65 480 65 480 q 56 479 64 481 q 3 429 32 469 q -34 340 -26 389 q -27 300 -38 306 q 2 305 -20 296 q 61 341 24 314 q 173 447 122 388 q 182 452 177 452 q 193 448 188 452 q 197 439 197 445 q 194 429 197 434 q 77 319 140 368 q -21 272 14 272 l -21 272 z "},"d":{"ha":282,"x_min":-86,"x_max":393,"o":"m 74 100 q 64 102 70 100 q 50 155 50 109 q 67 262 50 189 q 113 416 84 336 q -23 260 21 298 q -52 248 -41 247 q -69 254 -64 248 q -84 301 -86 269 q -67 365 -82 334 q -28 433 -58 388 q 42 500 1 477 q 91 500 70 511 q 122 473 113 489 q 153 515 138 494 q 251 715 197 611 q 332 859 304 819 q 344 872 336 864 q 361 886 351 881 q 380 886 370 890 q 392 867 391 880 q 390 842 393 854 q 385 823 387 829 q 342 741 376 798 q 223 566 308 684 q 177 502 199 532 q 155 451 164 473 q 99 279 121 366 q 77 155 77 193 q 79 126 77 130 q 86 120 83 125 q 87 110 89 115 q 81 102 86 105 q 74 100 78 100 l 74 100 m 66 479 q 54 475 60 478 q -43 353 5 450 q -57 301 -56 324 q -52 275 -58 279 q -49 276 -52 275 q -41 281 -46 277 q 106 452 5 320 q 102 456 103 454 q 96 463 101 457 q 84 473 92 468 q 66 479 76 479 l 66 479 m 365 855 q 354 842 361 851 q 308 765 338 820 q 244 642 278 710 q 359 832 343 785 q 365 855 364 846 l 365 855 z "},"e":{"ha":229,"x_min":-47,"x_max":243,"o":"m 28 286 q -40 340 -28 287 q -22 435 -47 385 q 48 503 6 488 q 81 502 68 509 q 98 481 94 494 q 95 445 104 464 q 66 418 87 426 q 42 416 54 414 q 19 420 29 417 q 3 425 8 423 q -14 345 -19 382 q 33 313 -7 311 q 218 453 123 319 q 227 459 222 458 q 237 456 232 460 q 242 448 241 453 q 240 437 243 442 q 156 341 208 388 q 35 286 104 294 q 28 286 31 286 l 28 286 m 19 449 q 39 444 28 446 q 57 444 50 442 q 71 457 67 448 q 73 473 75 466 q 71 476 73 474 q 66 478 70 477 q 56 477 63 479 q 19 449 35 469 l 19 449 z "},"f":{"ha":206,"x_min":-163,"x_max":254,"o":"m -144 30 q -158 38 -153 30 q -161 46 -160 40 q -161 65 -163 52 q -152 104 -159 78 q -129 174 -144 130 q -29 414 -91 278 q 93 659 29 543 q 197 810 156 774 q 221 821 212 821 q 235 817 231 821 q 244 764 254 806 q 183 633 227 696 q 92 523 139 570 q 19 453 45 475 q 0 413 9 433 q -46 308 -24 359 q 83 357 26 319 q 196 456 139 394 q 205 460 200 460 q 215 456 211 460 q 219 447 219 452 q 216 437 220 441 q 95 333 156 373 q -46 281 33 292 q -52 142 -25 216 q -132 34 -79 68 q -144 30 -138 30 l -144 30 m -68 256 q -99 176 -85 213 q -134 66 -132 85 q -77 154 -96 98 q -68 256 -58 209 l -68 256 m 220 793 q 214 789 218 791 q 51 520 161 743 q 149 632 99 566 q 218 770 199 699 q 220 793 222 788 l 220 793 z "},"g":{"ha":289,"x_min":-258,"x_max":304,"o":"m -214 -137 q -237 -130 -227 -137 q -253 -102 -249 -123 q -242 -39 -258 -81 q -162 96 -222 14 q -1 268 -102 178 q 102 349 52 314 q 127 410 116 381 q 25 307 68 342 q -60 267 -33 257 q -73 275 -66 268 q -81 298 -80 281 q -46 405 -83 342 q 39 495 -9 467 q 118 487 84 517 q 123 477 123 483 q 119 468 123 472 q 110 463 115 463 q 100 467 104 463 q 52 471 80 485 q -23 390 9 446 q -54 300 -55 334 q -52 292 -54 293 q -50 292 -52 292 q -42 294 -47 292 q -29 300 -37 296 q -9 313 -21 304 q 19 337 3 322 q 56 372 35 351 q 103 423 77 393 q 161 492 130 453 q 170 496 165 496 q 179 495 174 497 q 185 488 183 492 q 184 478 186 483 q 144 378 167 434 q 243 438 204 418 q 283 460 281 459 q 293 460 288 463 q 301 454 298 458 q 302 443 304 448 q 295 435 300 438 q 244 408 292 435 q 124 332 196 382 q 10 100 75 217 q -133 -94 -55 -17 q -214 -137 -178 -136 l -214 -137 m 80 300 q 16 248 48 275 q -139 81 -81 160 q -217 -49 -197 2 q -222 -108 -235 -100 q -196 -105 -215 -113 q -151 -74 -178 -98 q -25 94 -84 -8 q 80 300 33 195 l 80 300 z "},"h":{"ha":295,"x_min":-95,"x_max":308,"o":"m -80 249 q -86 250 -83 249 q -93 257 -92 252 q -93 267 -95 262 q -67 327 -92 271 q -7 465 -43 382 q 64 629 28 547 q 126 769 100 712 q 225 892 180 888 q 250 880 241 893 q 198 705 273 829 q 136 616 175 670 q 63 516 97 562 q 20 460 28 471 q -3 408 8 433 q 71 492 36 461 q 92 504 81 499 q 115 504 104 509 q 131 474 130 496 q 129 420 132 452 q 126 388 127 406 q 127 356 125 370 q 134 338 128 342 q 137 337 135 338 q 145 338 140 337 q 159 344 151 340 q 180 357 168 349 q 231 400 208 378 q 269 437 254 422 q 283 454 283 453 q 293 459 288 458 q 302 456 298 459 q 308 446 307 452 q 304 437 308 441 q 288 418 303 435 q 249 379 273 402 q 196 336 225 357 q 159 314 180 323 q 121 315 138 306 q 100 357 102 327 q 102 422 98 387 q 104 455 103 438 q 102 479 104 471 q 88 470 100 479 q 38 416 64 450 q -13 345 11 381 q -53 283 -37 309 q -68 256 -68 257 q -80 249 -73 249 l -80 249 m 226 866 q 200 845 220 867 q 151 758 180 823 q 67 568 117 682 q 127 651 98 609 q 175 720 157 692 q 223 824 216 787 q 226 866 231 860 l 226 866 z "},"i":{"ha":175,"x_min":-54,"x_max":189,"o":"m -19 291 q -40 297 -31 291 q -53 320 -51 307 q -52 348 -54 334 q -47 368 -50 361 q 16 505 -32 418 q 24 511 19 509 q 35 510 30 513 q 41 502 39 507 q 40 491 43 496 q 17 449 27 469 q 0 414 7 430 q -12 387 -7 399 q -19 365 -16 374 q -24 348 -22 355 q -26 335 -26 340 q -26 327 -26 330 q -25 322 -26 324 q -24 320 -24 321 q -24 319 -24 319 q -23 318 -24 319 q -20 318 -22 318 q -15 318 -18 318 q -7 320 -12 319 q 4 325 -2 321 q 19 332 11 328 q 39 345 28 337 q 165 454 94 382 q 174 458 169 458 q 184 454 180 458 q 189 444 189 450 q 184 435 189 439 q 124 377 161 410 q 48 318 87 344 q -19 291 9 292 l -19 291 m 58 551 q 52 552 55 551 q 45 560 47 555 q 46 570 43 565 l 56 589 q 63 595 58 593 q 73 595 68 597 q 80 587 79 592 q 79 576 82 581 l 71 558 q 58 551 66 551 l 58 551 z "},"j":{"ha":138,"x_min":-420,"x_max":151,"o":"m -378 -148 q -393 -144 -386 -148 q -406 -131 -399 -140 q -415 -104 -412 -122 q -374 28 -420 -54 q -220 207 -327 111 q -58 334 -143 273 q 7 491 -18 425 q 15 498 9 496 q 25 498 20 500 q 33 491 31 496 q 33 481 35 486 q -15 364 13 431 q 87 434 46 408 q 130 462 127 460 q 140 464 135 465 q 149 458 145 463 q 150 447 151 452 q 144 439 149 442 q 90 403 141 437 q -36 317 38 369 q -168 60 -92 186 q -333 -130 -243 -66 q -378 -148 -359 -148 l -378 -148 m -81 284 q -202 186 -145 236 q -355 6 -317 83 q -388 -101 -393 -70 q -379 -120 -386 -116 q -378 -120 -379 -120 q -375 -120 -377 -121 q -369 -119 -373 -120 q -360 -115 -366 -117 q -348 -107 -355 -112 q -202 56 -270 -53 q -81 284 -134 165 l -81 284 m 42 543 q 37 544 39 543 q 30 552 32 547 q 30 562 28 557 l 39 583 q 46 590 41 588 q 56 589 52 591 q 64 582 62 587 q 64 572 66 577 l 55 551 q 42 543 50 543 l 42 543 z "},"k":{"ha":283,"x_min":-95,"x_max":297,"o":"m -81 229 q -86 230 -83 229 q -93 237 -91 232 q -94 246 -95 241 q -92 250 -94 246 q -87 261 -91 253 q -78 286 -84 270 q -62 325 -72 301 q -37 384 -52 349 q 34 545 -15 435 l 40 557 q 97 680 67 617 q 141 770 122 732 q 174 831 160 807 q 196 868 187 854 q 211 888 205 882 q 220 897 217 895 q 227 899 224 899 q 252 890 243 902 q 246 819 265 867 q 204 734 227 772 q 126 621 171 677 q 63 543 82 565 q 3 409 27 463 q 43 463 24 440 q 153 527 111 541 q 160 522 156 526 q 166 511 163 518 q 167 493 169 505 q 131 431 160 460 q 68 391 101 401 q 36 385 48 387 q 103 332 68 336 q 177 361 138 330 q 257 436 216 392 q 258 437 257 436 q 273 453 265 445 q 283 457 278 457 q 293 453 289 457 q 297 444 297 449 q 293 434 297 438 q 277 417 285 426 q 194 339 235 372 q 111 304 153 307 q 100 305 105 304 q 12 372 52 311 q -27 308 -9 339 q -57 257 -45 277 q -68 235 -68 237 q -81 229 -73 229 l -81 229 m 139 503 q 112 490 132 503 q 64 446 92 477 q 39 414 52 431 q 62 418 49 415 q 111 449 87 425 q 140 498 134 473 q 140 503 140 501 q 139 503 140 503 l 139 503 m 231 870 q 214 847 227 866 q 179 784 202 828 q 117 659 155 739 q 110 644 114 652 q 180 747 151 697 q 220 829 210 799 q 231 870 231 860 l 231 870 z "},"l":{"ha":165,"x_min":-81,"x_max":242,"o":"m -56 125 q -65 129 -61 125 q -73 137 -68 131 q -79 159 -77 144 q -79 203 -81 174 q -65 277 -76 231 q -20 428 -49 345 l -7 461 q 26 545 8 503 q 116 742 81 675 q 171 833 151 809 q 203 861 191 858 q 220 861 214 864 q 228 856 226 859 q 221 788 242 842 q 174 686 205 747 q 95 557 144 628 q 17 448 46 487 q -39 271 -20 349 q -47 231 -44 248 q -52 201 -50 214 q -53 179 -53 188 q -52 164 -53 170 q -51 155 -52 158 q -49 151 -50 152 q -47 150 -48 150 q -43 140 -43 146 q -46 130 -43 135 q -56 125 -51 125 l -56 125 m 206 831 q 187 810 199 827 q 155 759 175 793 q 59 554 116 688 q 151 698 115 633 q 206 831 205 809 l 206 831 z "},"m":{"ha":392,"x_min":-88,"x_max":408,"o":"m -74 242 q -81 244 -78 242 q -88 257 -88 250 q -84 273 -87 264 q -73 304 -81 283 q -37 394 -60 337 q 1 483 -16 444 q 18 524 17 522 q 25 531 20 529 q 36 531 31 533 q 43 523 41 528 q 43 513 45 518 q -22 357 7 431 q 55 473 21 427 q 96 511 80 505 q 121 511 113 517 q 129 474 138 500 q 79 330 86 369 q 100 358 88 341 q 121 391 111 375 q 165 455 148 435 q 197 471 182 475 q 209 463 205 469 q 213 451 212 457 q 214 441 214 445 q 223 385 217 405 q 236 351 229 364 q 241 346 239 347 q 245 344 243 345 q 288 366 260 344 q 342 414 315 387 q 384 457 369 441 q 393 461 388 461 q 403 458 399 462 q 407 448 407 454 q 404 439 408 443 q 302 342 340 370 q 241 317 264 314 q 227 322 235 318 q 212 338 219 326 q 197 376 203 353 q 187 439 191 399 q 166 411 178 429 q 144 376 155 393 q 80 295 103 309 q 65 293 71 291 q 57 297 60 294 q 53 303 55 298 q 51 318 50 307 q 56 348 51 328 q 72 401 60 368 q 104 484 83 434 q 76 456 95 479 q 37 399 59 433 q -7 330 14 365 q -62 248 -46 268 q -74 242 -68 242 l -74 242 z "},"n":{"ha":319,"x_min":-95,"x_max":333,"o":"m -81 241 q -87 242 -83 241 q -93 250 -92 245 q -93 260 -95 254 l 21 521 q 28 528 23 526 q 39 528 33 530 q 46 520 44 526 q 45 510 48 515 l -3 397 q 41 450 21 431 q 81 483 66 473 q 106 493 97 492 q 121 491 116 494 q 132 483 126 489 q 137 463 137 477 q 136 451 137 458 q 137 402 135 431 q 153 360 139 373 q 156 358 153 359 q 162 356 158 357 q 174 357 167 355 q 220 378 197 363 q 264 410 244 393 q 296 440 284 427 q 309 453 309 452 q 319 457 313 457 q 328 454 324 458 q 333 444 332 450 q 329 435 333 439 q 304 410 327 431 q 249 365 282 389 q 180 331 216 341 q 153 331 164 328 q 136 339 142 334 q 111 392 115 358 q 109 452 108 426 q 109 452 109 452 q 110 463 110 458 q 109 465 110 465 q 95 458 106 465 q 60 431 83 452 q 21 385 43 414 q -21 324 -1 355 q -55 271 -41 293 q -69 248 -68 249 q -81 241 -74 241 l -81 241 z "},"o":{"ha":174,"x_min":-85,"x_max":187,"o":"m -36 251 q -67 261 -58 250 q -83 315 -85 280 q -66 385 -81 351 q -33 434 -52 416 q -1 459 -15 452 q 14 467 12 467 q 24 466 20 468 q 31 458 29 463 q 31 448 33 452 q 23 441 28 443 q 11 435 22 441 q -15 414 0 429 q -41 374 -29 399 q -56 316 -54 342 q -48 281 -57 290 q -36 278 -43 277 q -22 283 -28 279 q 46 370 26 309 q 40 471 62 427 l 38 475 q 37 486 35 481 q 43 494 39 491 q 53 495 48 496 q 62 488 58 493 q 64 485 62 487 q 78 466 67 478 q 113 446 88 454 q 165 452 137 437 q 175 454 170 455 q 184 448 180 453 q 186 438 187 443 q 180 429 184 433 q 115 417 142 408 q 79 431 87 426 q 73 362 83 397 q -9 259 50 290 q -36 251 -25 252 z "},"p":{"ha":247,"x_min":-168,"x_max":174,"o":"m -152 -8 q -157 -7 -155 -8 q -165 0 -163 -5 q -165 10 -168 5 q -155 39 -162 20 l 10 493 q 17 501 12 498 q 27 501 22 503 q 35 494 33 499 q 35 484 37 489 l 0 387 q 105 506 60 489 q 147 504 127 514 q 169 471 163 495 q 171 426 174 452 q 151 371 168 399 q 105 321 135 345 q 41 291 75 297 q -14 302 10 287 q -128 34 -81 165 l -140 1 q -152 -8 -144 -7 l -152 -8 m -1 327 q 37 318 15 315 q 89 342 64 323 q 128 385 114 362 q 144 429 142 408 q 142 465 146 450 q 138 476 140 472 q 134 480 136 479 q 115 480 125 485 q 60 429 90 470 q -1 327 30 387 l -1 327 z "},"q":{"ha":217,"x_min":-95,"x_max":174,"o":"m -81 -81 q -87 -79 -83 -81 q -93 -72 -92 -77 q -93 -62 -95 -67 l 96 384 q 68 348 83 368 q -55 269 -8 249 q -74 347 -87 288 q -33 429 -64 383 q 42 487 -1 475 q 74 485 56 490 q 111 457 92 480 q 113 454 112 456 q 134 485 127 474 q 144 502 142 496 q 147 507 147 507 q 155 514 150 512 q 165 513 160 515 q 172 506 170 511 q 172 496 174 501 l -20 43 q 6 53 -3 56 q 16 48 11 53 q 23 33 21 44 q 30 8 26 15 q 37 1 34 2 q 47 1 39 -1 q 71 13 55 3 q 82 15 77 16 q 90 9 87 14 q 92 -1 94 4 q 86 -9 91 -6 q 58 -24 74 -18 q 25 -24 41 -30 q -2 22 5 -14 q -33 -17 -14 9 q -68 -74 -52 -44 q -81 -81 -73 -81 l -81 -81 m 55 461 q 47 460 52 461 q -11 413 16 451 q -47 340 -38 374 q -43 294 -56 300 q -14 302 -36 289 q 47 364 9 316 q 100 435 79 408 q 90 440 94 435 q 55 461 73 461 l 55 461 z "},"r":{"ha":229,"x_min":-83,"x_max":243,"o":"m 15 512 l 17 516 q 24 522 20 520 q 34 522 28 524 q 41 515 39 520 q 43 508 43 512 l 43 507 q 42 505 42 506 l 9 419 q 45 470 31 452 q 68 493 59 487 q 84 498 77 499 q 102 489 96 499 l 103 488 q 136 444 121 458 q 172 436 151 431 q 210 449 199 444 q 220 454 220 454 q 238 448 233 459 q 237 432 243 437 q 223 425 235 431 q 180 410 210 419 q 159 407 169 407 q 115 427 133 408 q 83 470 97 446 q 59 444 77 467 q 4 359 41 420 q -38 283 -20 316 q -56 249 -55 251 q -68 241 -60 241 q -73 243 -71 241 q -81 250 -79 245 q -81 260 -83 255 l 15 512 z "},"s":{"ha":185,"x_min":-95,"x_max":199,"o":"m -62 161 q -75 163 -69 161 q -91 183 -87 168 q -76 238 -95 202 q -5 321 -57 273 q 7 332 1 327 q 1 394 5 366 q -5 438 -3 423 q 9 493 -10 472 q 48 522 29 515 q 59 521 54 524 q 66 514 64 519 q 66 504 68 509 q 58 496 64 498 q 51 492 57 496 q 36 482 44 489 q 24 466 28 475 q 21 443 19 456 q 33 354 28 410 q 132 428 89 399 q 177 458 174 457 q 187 460 182 461 q 196 454 193 459 q 197 444 199 449 q 191 435 196 439 q 141 402 188 434 q 35 320 94 370 q 22 233 36 270 q -18 178 6 195 q -62 161 -42 161 l -62 161 m -64 189 q -36 198 -54 186 q -3 243 -18 210 q 7 296 5 265 q -52 224 -38 252 q -64 189 -66 197 l -64 189 z "},"t":{"ha":144,"x_min":-190,"x_max":385,"o":"m -150 -74 q -159 -70 -155 -73 q -163 -60 -163 -66 q -106 181 -159 25 q 18 509 -54 337 q 150 815 90 682 q 158 822 153 820 q 168 822 163 824 q 175 814 173 819 q 174 804 177 809 q 54 524 125 695 q -74 190 -18 353 q -136 -60 -131 26 q -140 -70 -136 -66 q -149 -74 -144 -74 q -150 -74 -150 -74 l -150 -74 m 372 602 q 371 602 371 602 l -176 618 q -186 622 -182 618 q -190 631 -190 626 q -185 641 -189 637 q -176 645 -182 645 l 372 629 q 381 625 378 629 q 385 615 385 621 q 381 606 385 610 q 372 602 377 602 l 372 602 z "},"u":{"ha":303,"x_min":-54,"x_max":318,"o":"m -24 288 q -28 288 -26 288 q -47 303 -41 290 q -44 366 -54 329 q -21 434 -35 403 q -3 473 -7 465 q 5 479 0 477 q 16 478 10 481 q 22 470 20 475 q 21 460 24 465 q -11 384 4 427 q -22 315 -26 340 q 1 330 -17 316 q 58 385 20 345 q 104 439 85 415 q 127 469 124 464 q 145 494 144 493 q 153 498 149 497 q 163 496 158 498 q 168 488 167 493 q 168 479 170 484 q 145 408 153 448 q 153 352 137 369 q 211 375 169 343 q 294 453 252 406 q 303 458 298 458 q 313 454 309 458 q 318 446 317 451 q 314 435 318 440 q 294 414 313 433 q 248 370 275 394 q 136 331 170 302 q 117 367 120 345 q 118 414 114 389 q 77 366 99 391 q 8 302 31 317 q -24 288 -14 288 l -24 288 z "},"v":{"ha":233,"x_min":-27,"x_max":248,"o":"m -5 269 q -11 270 -8 269 q -14 273 -13 271 q -23 285 -20 275 q -26 321 -27 295 q -16 397 -24 347 q -2 467 -9 437 q 5 499 5 497 q 12 508 7 505 q 22 509 16 511 q 30 503 27 508 q 32 493 33 498 q 25 465 31 492 q 12 400 19 437 q 1 303 -2 318 q 72 397 31 335 q 136 496 113 459 q 143 503 139 501 q 153 502 148 504 q 160 496 157 500 q 161 486 162 492 q 160 481 161 486 q 160 470 159 476 q 165 457 161 463 q 178 446 170 450 q 196 443 187 442 q 211 446 204 443 q 221 451 217 448 q 224 454 224 454 q 235 457 229 458 q 244 453 240 457 q 248 444 248 449 q 243 434 248 438 q 237 429 243 433 q 220 420 231 425 q 196 415 210 416 q 166 422 182 415 q 139 450 146 433 q 75 353 113 407 q 11 275 37 298 q -5 269 2 269 z "},"w":{"ha":345,"x_min":-61,"x_max":360,"o":"m 73 184 q 52 192 59 184 q 39 367 14 221 l 36 363 q -13 307 5 324 q -23 299 -16 304 q -37 293 -29 295 q -52 296 -44 291 q -60 319 -61 301 q -41 382 -59 338 q 13 489 -17 441 q 21 495 16 494 q 32 493 26 496 q 38 485 37 490 q 36 475 39 479 q -6 394 12 437 q -31 328 -25 352 q 15 380 -20 337 l 52 428 q 60 433 56 432 q 68 432 64 434 q 75 426 73 430 q 76 417 77 422 q 59 314 63 353 q 57 253 55 274 q 62 223 58 231 q 68 214 66 214 q 70 212 68 213 q 75 212 72 212 q 84 215 79 212 q 140 271 111 229 q 193 366 170 313 q 215 459 215 418 q 214 465 215 463 q 213 467 214 466 q 209 479 210 473 q 212 490 208 485 q 227 494 218 497 q 236 487 233 492 q 240 474 239 481 q 252 453 243 467 q 273 437 260 439 q 311 442 292 434 q 338 456 330 450 q 348 459 342 460 q 357 453 353 458 q 359 443 360 448 q 353 434 358 437 q 339 426 352 433 q 307 413 326 418 q 268 410 288 407 q 239 426 251 414 q 181 283 224 353 q 96 191 138 214 q 73 184 83 184 z "},"x":{"ha":207,"x_min":-163,"x_max":178,"o":"m 173 517 q 10 372 75 435 q 12 335 10 351 q 33 276 18 284 q 38 268 37 273 q 37 258 39 262 q 25 252 32 252 q 18 254 21 252 q -16 345 -12 273 q -139 211 -75 285 q -149 206 -143 206 q -158 210 -154 206 q -162 219 -162 214 q -159 229 -163 224 q -18 382 -86 314 l -17 382 q -8 491 -16 429 q -3 500 -7 497 q 7 503 1 503 q 16 498 13 502 q 19 488 20 494 q 12 410 14 444 q 155 538 71 467 q 165 541 160 542 q 175 536 171 541 q 178 526 178 532 q 173 517 177 521 z "},"y":{"ha":255,"x_min":-245,"x_max":271,"o":"m -178 -125 q -185 -125 -181 -125 q -222 -95 -211 -121 q -139 109 -245 -20 q 81 325 -33 231 q 98 363 90 345 q 51 314 75 335 q 1 288 26 294 q -25 287 -16 283 q -39 297 -35 291 q -46 314 -43 302 q -44 348 -48 326 q -25 408 -40 370 q -2 459 -13 438 q 9 483 9 481 q 18 489 13 488 q 28 488 23 491 q 35 480 33 486 q 34 470 37 475 q 23 448 33 469 q 0 397 12 427 q -12 363 -8 377 q -18 339 -16 349 q -19 324 -20 330 q -18 316 -19 319 q -17 314 -18 314 q -6 313 -15 311 q 58 358 25 323 q 117 434 90 393 q 156 500 143 475 q 164 506 159 505 q 174 506 169 508 q 181 498 179 503 q 181 488 182 494 q 164 449 178 483 q 127 363 151 416 q 213 430 180 406 q 248 456 246 455 q 258 458 253 459 q 267 452 264 457 q 270 443 271 448 q 264 433 269 437 q 216 398 261 432 q 104 309 172 365 q 8 99 58 203 q -76 -54 -42 -5 q -178 -125 -131 -125 l -178 -125 m 56 267 q -118 92 -37 186 q -187 -17 -170 29 q -196 -85 -205 -63 q -181 -98 -192 -96 q -147 -86 -169 -100 q -98 -37 -125 -73 q -28 87 -70 3 q 56 267 14 172 l 56 267 z "},"z":{"ha":222,"x_min":-102,"x_max":237,"o":"m -50 83 q -68 89 -62 83 q -66 186 -102 116 q 54 323 -26 253 q 40 357 49 343 q 24 378 31 371 q 16 386 17 386 q 11 396 11 389 q 15 406 10 402 q 73 466 48 438 q 104 509 97 494 q 55 475 95 508 q 24 448 37 460 q 11 435 12 436 q 11 435 11 435 q 1 431 7 431 q -8 435 -4 431 q -13 444 -12 439 q -9 454 -13 450 q 7 469 -7 455 q 41 499 21 482 q 123 534 100 549 q 134 518 132 528 q 126 492 136 510 q 83 437 117 475 q 44 397 60 412 q 69 360 56 385 q 77 342 73 352 q 214 450 154 407 q 224 452 219 452 q 233 446 230 451 q 236 436 237 441 q 230 427 235 431 q 83 313 173 388 q 72 224 90 275 q 23 135 52 172 q -20 94 -1 104 q -50 83 -38 83 l -50 83 m 58 289 q -42 173 -9 229 q -57 131 -56 146 q -53 111 -58 115 q -35 116 -49 109 q 2 152 -20 124 q 46 233 28 186 q 58 289 58 264 l 58 289 z "},"{":{"ha":372,"x_min":0,"x_max":325,"o":"m 44 24 q 26 32 36 25 q 8 52 16 38 q 0 87 0 65 q 14 171 0 113 q 44 281 28 228 q 66 353 59 334 q 67 388 71 373 q 56 412 64 402 q 41 428 48 422 q 33 433 34 433 q 26 446 26 437 q 34 457 26 454 q 46 464 35 458 q 73 483 58 471 q 100 513 88 495 q 123 564 108 527 q 156 645 139 602 q 195 741 176 696 q 225 805 213 785 q 273 842 247 836 q 315 842 299 847 q 322 834 320 840 q 323 824 325 829 q 317 816 321 819 q 307 816 312 814 q 294 818 304 817 q 272 813 285 819 q 248 791 260 808 q 219 728 237 772 q 181 635 200 684 q 148 551 163 589 q 123 498 132 514 q 94 465 111 479 q 64 444 78 451 q 91 404 81 429 q 92 345 101 379 q 50 200 72 283 q 27 87 27 117 q 30 68 27 75 q 37 57 33 61 q 44 52 41 54 q 48 51 47 51 l 46 37 l 44 24 l 44 24 z "},"|":{"ha":688,"x_min":290,"x_max":398,"o":"m 290 1069 l 398 1069 l 398 -283 l 290 -283 l 290 1069 z "},"}":{"ha":391,"x_min":0,"x_max":344,"o":"m 14 10 q 5 14 9 10 q 1 22 1 17 q 3 32 0 28 q 12 37 7 37 q 39 47 23 38 q 67 78 54 56 q 96 142 77 97 q 134 236 115 186 q 161 317 153 286 q 188 370 170 350 q 222 399 206 389 q 207 435 212 410 q 261 618 203 472 q 304 741 291 694 q 309 776 311 764 q 304 791 307 787 q 299 795 302 793 q 295 797 297 796 q 294 797 294 797 q 284 801 288 797 q 280 810 280 805 q 284 820 280 816 q 294 824 288 824 q 300 823 294 824 q 312 819 305 823 q 326 808 319 815 q 331 733 344 783 q 287 608 317 686 q 250 508 267 558 q 233 440 232 457 q 239 421 235 428 q 246 413 243 415 q 251 410 250 410 q 262 398 260 408 q 260 390 262 393 q 252 384 257 386 q 244 380 252 384 q 225 367 236 376 q 203 345 214 359 q 188 311 193 331 q 160 228 179 278 q 121 131 140 177 q 91 65 101 85 q 52 23 74 35 q 16 11 31 12 q 14 10 15 10 l 14 10 z "},"~":{"ha":688,"x_min":64,"x_max":626,"o":"m 626 595 l 626 490 q 543 424 583 441 q 465 406 503 406 q 344 439 424 406 q 224 472 264 472 q 152 453 190 472 q 64 377 113 434 l 64 483 q 147 550 107 532 q 224 568 187 568 q 348 534 268 568 q 465 500 427 500 q 538 519 500 500 q 626 595 576 538 z "},"¡":{"ha":456,"x_min":0,"x_max":0,"o":""},"¢":{"ha":772,"x_min":0,"x_max":0,"o":""},"£":{"ha":404,"x_min":0,"x_max":357,"o":"m 161 121 q 109 127 134 121 q 42 140 66 140 q 18 139 18 140 q 15 139 16 139 q 6 142 10 139 q 1 149 3 144 q 4 161 0 157 q 12 167 7 165 q 38 182 20 172 q 118 349 79 208 q 127 382 122 363 q 127 382 127 382 q 182 575 149 466 q 247 739 215 684 q 307 785 274 783 q 330 782 320 786 q 346 773 340 778 q 353 767 352 768 q 356 758 357 763 q 352 748 356 752 q 342 745 347 745 q 333 749 336 745 q 329 752 332 749 q 321 756 326 754 q 309 758 315 759 q 270 725 290 756 q 208 565 240 673 q 153 376 175 458 q 144 342 149 357 q 111 241 132 292 q 62 166 90 191 q 117 153 85 163 q 167 148 140 147 q 219 153 194 149 q 261 163 244 158 q 278 168 277 168 q 289 167 283 170 q 295 159 294 164 q 295 149 297 153 q 287 142 292 144 q 266 136 284 141 q 219 126 247 131 q 161 121 191 121 l 161 121 m 75 438 q 66 442 70 438 q 62 451 62 446 q 65 461 62 457 q 75 465 69 465 l 290 469 q 299 466 296 469 q 304 456 303 462 q 300 446 304 450 q 290 442 296 442 l 76 438 q 75 438 76 438 l 75 438 z "},"¤":{"ha":688,"x_min":83,"x_max":604,"o":"m 237 380 q 304 341 265 353 q 344 336 324 336 q 383 341 363 336 q 450 380 422 353 q 489 447 477 408 q 495 486 495 467 q 489 526 495 506 q 450 593 477 565 q 382 631 422 620 q 343 637 363 637 q 304 631 323 637 q 237 593 264 619 q 199 526 211 566 q 193 486 193 506 q 199 448 193 467 q 237 380 210 408 m 163 612 l 83 692 l 137 747 l 217 667 q 284 699 247 688 q 345 708 314 708 q 401 700 372 708 q 470 667 439 688 l 550 747 l 604 692 l 525 613 q 557 544 546 582 q 566 486 566 515 q 557 429 566 458 q 525 359 546 391 l 604 280 l 550 225 l 470 305 q 401 273 439 283 q 344 264 373 264 q 286 273 315 264 q 217 305 248 283 l 137 225 l 83 280 l 163 359 q 130 429 141 391 q 122 486 122 458 q 131 545 122 516 q 163 612 142 583 z "},"¥":{"ha":856,"x_min":5,"x_max":864,"o":"m 371 153 l 370 317 q 369 340 370 330 q 366 362 368 351 l 37 363 q 23 367 28 363 q 18 380 18 372 q 23 393 18 389 q 37 397 27 397 l 354 397 l 272 514 l 39 514 q 23 518 27 514 q 18 530 18 522 q 22 544 18 540 q 37 547 26 547 l 245 547 q 172 652 216 586 q 18 786 83 786 q 9 790 14 786 q 5 798 5 793 q 13 816 5 810 q 35 822 20 822 q 118 817 53 822 q 229 811 183 811 l 289 811 q 317 807 311 811 q 322 789 322 802 q 312 779 322 783 q 286 775 302 775 q 274 777 282 775 q 261 778 265 778 q 236 771 245 778 q 227 754 227 765 q 238 719 227 742 q 269 667 249 696 l 376 517 q 399 481 385 504 q 447 433 427 433 q 458 437 453 433 q 468 447 463 440 l 656 715 q 665 733 661 724 q 668 750 668 743 q 661 768 668 762 q 636 778 654 774 q 608 781 626 779 q 576 798 576 783 q 582 813 576 808 q 599 818 587 818 q 609 817 601 818 q 682 812 647 812 l 777 812 q 821 813 797 812 q 846 814 844 814 q 858 811 853 814 q 864 803 863 808 q 838 780 864 784 q 820 777 826 778 q 720 697 777 766 q 712 687 715 691 l 597 547 l 817 547 q 833 543 827 547 q 839 532 839 539 q 835 518 839 522 q 819 514 831 514 l 571 514 q 506 438 540 475 q 470 397 471 400 l 817 397 q 834 394 829 397 q 839 382 839 390 q 834 368 839 372 q 819 363 829 363 l 460 363 q 459 342 460 355 q 458 322 458 329 l 460 176 q 464 75 460 99 q 477 45 467 50 q 550 32 498 33 q 603 11 603 31 q 596 -3 603 3 q 579 -8 589 -8 q 555 -5 578 -8 q 511 -3 532 -3 q 370 -5 450 -3 q 273 -8 290 -8 q 246 -5 252 -8 q 240 5 240 -3 q 245 18 240 14 q 271 26 251 22 q 288 30 277 28 q 350 52 338 41 q 366 83 361 60 q 371 153 371 106 z "},"¦":{"ha":688,"x_min":290,"x_max":398,"o":"m 290 252 l 398 252 l 398 -283 l 290 -283 l 290 252 m 290 1070 l 398 1070 l 398 535 l 290 535 l 290 1070 z "},"§":{"ha":688,"x_min":115,"x_max":572,"o":"m 370 218 q 435 254 408 229 q 485 366 485 298 q 484 373 485 370 l 483 373 q 480 391 482 382 q 404 477 465 433 q 318 497 363 497 q 233 467 265 497 q 201 387 201 437 q 370 218 201 304 m 316 -235 q 441 -188 393 -231 q 490 -76 490 -144 q 276 111 490 9 q 157 204 193 155 q 121 324 121 254 q 182 485 121 425 q 297 541 227 529 l 270 553 q 151 646 186 597 q 115 766 115 696 q 176 927 115 867 q 322 985 231 981 q 334 986 328 986 l 336 986 q 446 975 380 986 q 512 947 512 964 l 512 815 l 477 815 q 423 905 474 870 q 322 939 376 937 l 312 939 q 227 909 259 939 q 195 829 195 879 q 390 647 195 740 q 529 550 491 602 q 566 422 566 498 q 498 231 566 307 q 431 188 466 205 q 535 108 504 150 q 572 -19 572 56 q 504 -211 572 -135 q 316 -282 420 -280 l 316 -281 q 307 -282 312 -282 l 305 -282 q 195 -271 260 -282 q 129 -243 129 -260 l 129 -111 l 163 -111 q 218 -201 167 -166 q 316 -235 264 -231 z "},"¨":{"ha":694,"x_min":142,"x_max":536,"o":"m 151 874 l 199 923 q 216 931 208 931 q 235 922 224 931 l 281 872 q 288 855 288 863 q 280 837 288 846 l 233 786 q 216 774 222 774 q 199 783 207 774 l 148 841 q 142 857 142 849 q 151 874 142 865 m 399 874 l 447 923 q 464 931 456 931 q 482 922 471 931 l 529 872 q 536 855 536 863 q 528 838 536 846 l 481 786 q 464 774 469 774 q 447 783 454 774 l 395 842 q 389 857 389 849 q 399 874 389 865 z "},"©":{"ha":1135,"x_min":68,"x_max":1067,"o":"m 570 987 q 760 949 668 987 q 922 840 851 911 q 1029 679 991 772 q 1067 487 1067 586 q 1029 296 1067 387 q 919 133 991 204 q 757 25 848 62 q 565 -12 666 -12 q 376 25 466 -12 q 215 134 287 63 q 105 295 143 205 q 68 487 68 386 q 105 679 68 587 q 214 840 143 770 q 375 949 283 911 q 570 987 468 987 m 242 812 q 143 663 178 747 q 109 487 109 579 q 143 311 109 394 q 243 163 178 229 q 392 63 310 98 q 566 28 474 28 q 742 63 659 28 q 890 161 825 97 q 991 312 956 228 q 1027 487 1027 395 q 991 663 1027 578 q 893 812 956 748 q 744 912 828 877 q 569 947 660 947 q 391 912 476 947 q 242 812 307 877 m 587 151 q 408 197 490 151 q 281 323 325 243 q 238 488 238 402 q 282 653 238 573 q 410 778 327 733 q 582 823 492 823 q 633 819 608 823 q 684 805 658 814 q 690 804 688 804 q 708 825 703 804 l 736 825 l 785 690 l 755 690 q 667 774 720 754 q 567 792 618 792 l 557 792 q 444 744 498 787 q 361 624 389 701 q 339 499 339 563 q 340 465 339 482 q 388 313 348 383 q 489 210 427 243 q 602 182 538 183 q 733 220 686 182 q 781 305 781 258 l 817 305 l 817 237 q 751 179 817 206 q 587 151 686 151 z "},"ª":{"ha":439,"x_min":0,"x_max":0,"o":""},"«":{"ha":640,"x_min":118,"x_max":572,"o":"m 118 325 l 350 530 l 359 530 l 359 505 l 220 325 l 359 144 l 359 119 l 350 119 l 118 325 m 330 325 l 562 530 l 572 530 l 572 505 l 433 325 l 572 144 l 572 119 l 562 119 l 330 325 z "},"¬":{"ha":688,"x_min":59,"x_max":629,"o":"m 59 520 l 629 520 l 629 187 l 628 186 l 562 186 l 562 452 l 59 452 l 59 520 z "},"®":{"ha":1135,"x_min":68,"x_max":1067,"o":"m 509 745 l 509 492 l 511 486 q 549 431 527 448 q 587 416 569 416 l 591 416 q 633 443 612 419 q 665 509 654 466 q 673 578 673 543 q 673 597 673 587 q 654 681 670 642 q 615 733 637 720 q 572 745 593 745 l 509 745 m 667 391 l 723 312 q 825 216 791 216 l 848 216 l 848 182 l 613 182 l 613 216 l 644 216 q 664 231 664 216 q 617 309 664 251 l 566 378 q 509 406 538 378 l 509 298 q 534 216 509 216 l 570 216 l 570 182 l 355 182 l 355 216 l 385 216 q 410 298 410 216 l 410 663 q 385 745 410 745 l 355 745 l 355 793 l 597 793 q 682 764 640 792 q 744 687 722 736 q 766 584 766 637 q 745 482 766 531 q 667 391 723 433 m 570 987 q 760 949 668 987 q 922 840 851 911 q 1029 679 991 772 q 1067 487 1067 586 q 1029 296 1067 387 q 919 133 991 204 q 757 25 848 62 q 565 -12 666 -12 q 376 25 466 -12 q 215 134 287 63 q 105 295 143 205 q 68 487 68 386 q 105 679 68 587 q 214 840 143 770 q 375 949 283 911 q 570 987 468 987 m 242 812 q 143 663 178 747 q 109 487 109 579 q 143 311 109 394 q 243 163 178 229 q 392 63 310 98 q 566 28 474 28 q 742 63 659 28 q 890 161 825 97 q 991 312 956 228 q 1027 487 1027 395 q 991 663 1027 578 q 893 812 956 748 q 744 912 828 877 q 569 947 660 947 q 391 912 476 947 q 242 812 307 877 z "},"¯":{"ha":454,"x_min":0,"x_max":0,"o":""},"°":{"ha":457,"x_min":41,"x_max":418,"o":"m 230 930 q 130 889 172 930 q 88 789 88 848 q 130 689 88 730 q 230 648 171 648 q 330 689 289 648 q 370 789 370 730 q 329 889 370 848 q 230 930 288 930 m 230 978 q 363 923 308 978 q 418 789 418 867 q 362 656 418 712 q 229 601 307 601 q 95 656 149 601 q 41 789 41 711 q 96 923 41 868 q 230 978 151 978 z "},"±":{"ha":688,"x_min":0,"x_max":0,"o":""},"²":{"ha":688,"x_min":0,"x_max":0,"o":""},"³":{"ha":688,"x_min":0,"x_max":0,"o":""},"´":{"ha":694,"x_min":214,"x_max":527,"o":"m 412 932 q 449 964 435 956 q 477 972 463 972 q 513 959 499 972 q 527 924 527 945 q 516 896 527 909 q 485 869 506 882 l 261 731 l 214 731 l 412 932 z "},"µ":{"ha":800,"x_min":0,"x_max":0,"o":""},"¶":{"ha":694,"x_min":63,"x_max":630,"o":"m 630 973 l 630 926 l 544 926 l 544 0 l 488 0 l 488 926 l 376 926 l 376 0 l 319 0 l 319 500 q 132 570 201 506 q 63 736 63 634 q 136 908 63 843 q 330 973 209 973 l 630 973 z "},"·":{"ha":345,"x_min":87,"x_max":257,"o":"m 98 502 l 154 559 q 174 568 164 568 q 195 557 182 568 l 249 499 q 257 479 257 488 q 248 458 257 469 l 193 399 q 174 385 180 385 q 154 395 163 385 l 94 463 q 87 481 87 472 q 98 502 87 491 z "},"∙":{"ha":345,"x_min":87,"x_max":257,"o":"m 98 502 l 154 559 q 174 568 164 568 q 195 557 182 568 l 249 499 q 257 479 257 488 q 248 458 257 469 l 193 399 q 174 385 180 385 q 154 395 163 385 l 94 463 q 87 481 87 472 q 98 502 87 491 z "},"¸":{"ha":694,"x_min":244,"x_max":521,"o":"m 244 -197 q 347 -232 302 -232 q 411 -217 392 -232 q 431 -172 431 -203 q 397 -129 431 -142 q 328 -118 370 -118 q 305 -119 317 -118 l 338 0 l 380 0 l 355 -71 q 397 -67 377 -68 q 488 -95 456 -67 q 521 -172 521 -122 q 481 -253 521 -223 q 372 -283 441 -283 q 244 -262 298 -283 l 244 -197 z "},"¹":{"ha":688,"x_min":0,"x_max":0,"o":""},"º":{"ha":487,"x_min":0,"x_max":0,"o":""},"»":{"ha":640,"x_min":68,"x_max":522,"o":"m 78 119 l 68 119 l 68 144 l 208 325 l 68 505 l 68 530 l 78 530 l 310 325 l 78 119 m 290 119 l 281 119 l 281 144 l 420 325 l 281 505 l 281 530 l 290 530 l 522 325 l 290 119 z "},"¼":{"ha":1158,"x_min":0,"x_max":0,"o":""},"½":{"ha":1332,"x_min":0,"x_max":0,"o":""},"¾":{"ha":1158,"x_min":0,"x_max":0,"o":""},"¿":{"ha":433,"x_min":-15,"x_max":370,"o":"m 335 660 q 340 659 337 660 q 347 652 345 657 q 347 642 349 647 q 266 498 317 566 q 163 369 216 430 q 86 274 121 319 q 36 188 52 228 q 47 98 16 130 q 144 84 84 64 q 278 310 258 131 q 283 319 279 315 q 292 322 287 323 q 302 317 298 321 q 304 307 305 313 q 153 58 283 111 q 28 78 77 33 q 10 197 -15 123 q 63 288 27 240 q 142 387 99 336 q 243 513 194 446 q 322 652 293 579 q 335 660 326 660 l 335 660 m 355 725 q 361 724 358 725 q 368 717 366 722 q 368 707 370 712 l 361 687 q 354 680 359 682 q 343 680 349 677 q 336 687 338 682 q 336 697 334 692 l 343 716 q 355 725 347 725 l 355 725 z "},"À":{"ha":1071,"x_min":-9,"x_max":1116,"o":"m 703 -96 q 695 -93 699 -96 q 690 -85 692 -90 q 697 148 669 11 q 786 432 726 284 q 919 707 846 579 q 1057 916 991 836 q 854 778 960 876 q 643 564 749 680 q 426 345 534 446 q 212 198 317 243 q 8 203 106 153 q 2 211 3 205 q 3 221 0 216 q 11 228 5 227 q 21 227 16 229 q 210 227 110 182 q 414 370 309 272 q 623 583 518 469 q 787 752 707 673 q 944 886 867 831 q 1095 954 1021 940 q 1110 947 1105 955 q 1107 931 1114 938 q 966 736 1042 864 q 826 457 890 608 q 717 -79 677 101 q 715 -89 718 -84 q 707 -95 713 -94 q 703 -96 705 -96 l 703 -96 m 4 516 q -6 522 -2 517 q -9 532 -9 526 q -3 541 -8 537 q 43 568 0 545 q 160 611 85 592 q 332 622 234 631 q 573 583 453 607 q 730 557 657 568 q 855 549 804 546 q 989 568 941 557 q 1039 580 1038 578 q 1049 579 1044 581 q 1056 571 1054 576 q 1055 560 1057 565 q 1047 553 1053 555 q 995 541 1044 552 q 857 522 946 530 q 728 530 803 519 q 568 557 653 541 q 330 595 448 581 q 166 584 237 603 q 55 544 95 566 q 13 519 14 522 q 4 516 9 516 l 4 516 m 1101 1044 q 1093 1048 1097 1044 l 1061 1076 q 1056 1086 1057 1080 q 1059 1095 1056 1091 q 1069 1100 1063 1099 q 1078 1097 1074 1100 l 1111 1068 q 1115 1059 1115 1065 q 1112 1049 1116 1054 q 1101 1044 1107 1044 l 1101 1044 z "},"Á":{"ha":1071,"x_min":-9,"x_max":1139,"o":"m 703 -96 q 695 -93 699 -96 q 690 -85 692 -90 q 697 148 669 11 q 786 432 726 284 q 919 707 846 579 q 1057 916 991 836 q 854 778 960 876 q 643 564 749 680 q 426 345 534 446 q 212 198 317 243 q 8 203 106 153 q 2 211 3 205 q 3 221 0 216 q 11 228 5 227 q 21 227 16 229 q 210 227 110 182 q 414 370 309 272 q 623 583 518 469 q 787 752 707 673 q 944 886 867 831 q 1095 954 1021 940 q 1110 947 1105 955 q 1107 931 1114 938 q 966 736 1042 864 q 826 457 890 608 q 717 -79 677 101 q 715 -89 718 -84 q 707 -95 713 -94 q 703 -96 705 -96 l 703 -96 m 4 516 q -6 522 -2 517 q -9 532 -9 526 q -3 541 -8 537 q 43 568 0 545 q 160 611 85 592 q 332 622 234 631 q 573 583 453 607 q 730 557 657 568 q 855 549 804 546 q 989 568 941 557 q 1039 580 1038 578 q 1049 579 1044 581 q 1056 571 1054 576 q 1055 560 1057 565 q 1047 553 1053 555 q 995 541 1044 552 q 857 522 946 530 q 728 530 803 519 q 568 557 653 541 q 330 595 448 581 q 166 584 237 603 q 55 544 95 566 q 13 519 14 522 q 4 516 9 516 l 4 516 m 1075 1042 q 1063 1049 1067 1042 q 1062 1060 1061 1055 q 1069 1067 1064 1065 l 1119 1093 q 1129 1094 1124 1095 q 1137 1086 1135 1092 q 1138 1077 1139 1082 q 1131 1069 1137 1072 l 1081 1043 q 1075 1042 1078 1042 l 1075 1042 z "},"Â":{"ha":1071,"x_min":-9,"x_max":1128,"o":"m 703 -96 q 695 -93 699 -96 q 690 -85 692 -90 q 697 148 669 11 q 786 432 726 284 q 919 707 846 579 q 1057 916 991 836 q 854 778 960 876 q 643 564 749 680 q 426 345 534 446 q 212 198 317 243 q 8 203 106 153 q 2 211 3 205 q 3 221 0 216 q 11 228 5 227 q 21 227 16 229 q 210 227 110 182 q 414 370 309 272 q 623 583 518 469 q 787 752 707 673 q 944 886 867 831 q 1095 954 1021 940 q 1110 947 1105 955 q 1107 931 1114 938 q 966 736 1042 864 q 826 457 890 608 q 717 -79 677 101 q 715 -89 718 -84 q 707 -95 713 -94 q 703 -96 705 -96 l 703 -96 m 4 516 q -6 522 -2 517 q -9 532 -9 526 q -3 541 -8 537 q 43 568 0 545 q 160 611 85 592 q 332 622 234 631 q 573 583 453 607 q 730 557 657 568 q 855 549 804 546 q 989 568 941 557 q 1039 580 1038 578 q 1049 579 1044 581 q 1056 571 1054 576 q 1055 560 1057 565 q 1047 553 1053 555 q 995 541 1044 552 q 857 522 946 530 q 728 530 803 519 q 568 557 653 541 q 330 595 448 581 q 166 584 237 603 q 55 544 95 566 q 13 519 14 522 q 4 516 9 516 l 4 516 m 1114 1038 q 1112 1038 1113 1038 q 1103 1043 1106 1039 q 1100 1053 1099 1048 q 1101 1068 1101 1060 q 1077 1047 1089 1059 q 1067 1043 1073 1043 q 1058 1048 1062 1044 q 1054 1057 1054 1052 q 1059 1067 1055 1063 q 1085 1091 1075 1082 q 1102 1102 1096 1099 q 1112 1105 1108 1105 q 1118 1105 1116 1105 q 1128 1093 1126 1101 q 1128 1078 1128 1086 q 1127 1061 1128 1069 q 1126 1050 1127 1054 q 1122 1042 1126 1046 q 1114 1038 1118 1038 l 1114 1038 z "},"Ã":{"ha":1071,"x_min":-9,"x_max":1164,"o":"m 703 -96 q 695 -93 699 -96 q 690 -85 692 -90 q 697 148 669 11 q 786 432 726 284 q 919 707 846 579 q 1057 916 991 836 q 854 778 960 876 q 643 564 749 680 q 426 345 534 446 q 212 198 317 243 q 8 203 106 153 q 2 211 3 205 q 3 221 0 216 q 11 228 5 227 q 21 227 16 229 q 210 227 110 182 q 414 370 309 272 q 623 583 518 469 q 787 752 707 673 q 944 886 867 831 q 1095 954 1021 940 q 1110 947 1105 955 q 1107 931 1114 938 q 966 736 1042 864 q 826 457 890 608 q 717 -79 677 101 q 715 -89 718 -84 q 707 -95 713 -94 q 703 -96 705 -96 l 703 -96 m 4 516 q -6 522 -2 517 q -9 532 -9 526 q -3 541 -8 537 q 43 568 0 545 q 160 611 85 592 q 332 622 234 631 q 573 583 453 607 q 730 557 657 568 q 855 549 804 546 q 989 568 941 557 q 1039 580 1038 578 q 1049 579 1044 581 q 1056 571 1054 576 q 1055 560 1057 565 q 1047 553 1053 555 q 995 541 1044 552 q 857 522 946 530 q 728 530 803 519 q 568 557 653 541 q 330 595 448 581 q 166 584 237 603 q 55 544 95 566 q 13 519 14 522 q 4 516 9 516 l 4 516 m 1065 1044 q 1048 1051 1053 1044 q 1042 1064 1043 1057 q 1042 1078 1041 1072 q 1045 1087 1044 1084 q 1052 1095 1047 1093 q 1062 1095 1057 1097 q 1070 1088 1067 1093 q 1070 1078 1072 1084 q 1069 1072 1069 1075 q 1093 1080 1079 1075 q 1156 1090 1140 1101 q 1164 1075 1164 1084 q 1162 1051 1164 1061 q 1148 1041 1160 1038 q 1136 1053 1135 1044 q 1137 1067 1137 1062 q 1120 1061 1130 1065 q 1103 1055 1110 1058 q 1077 1046 1088 1049 q 1065 1044 1070 1044 l 1065 1044 z "},"Ä":{"ha":1071,"x_min":-9,"x_max":1129,"o":"m 703 -96 q 695 -93 699 -96 q 690 -85 692 -90 q 697 148 669 11 q 786 432 726 284 q 919 707 846 579 q 1057 916 991 836 q 854 778 960 876 q 643 564 749 680 q 426 345 534 446 q 212 198 317 243 q 8 203 106 153 q 2 211 3 205 q 3 221 0 216 q 11 228 5 227 q 21 227 16 229 q 210 227 110 182 q 414 370 309 272 q 623 583 518 469 q 787 752 707 673 q 944 886 867 831 q 1095 954 1021 940 q 1110 947 1105 955 q 1107 931 1114 938 q 966 736 1042 864 q 826 457 890 608 q 717 -79 677 101 q 715 -89 718 -84 q 707 -95 713 -94 q 703 -96 705 -96 l 703 -96 m 4 516 q -6 522 -2 517 q -9 532 -9 526 q -3 541 -8 537 q 43 568 0 545 q 160 611 85 592 q 332 622 234 631 q 573 583 453 607 q 730 557 657 568 q 855 549 804 546 q 989 568 941 557 q 1039 580 1038 578 q 1049 579 1044 581 q 1056 571 1054 576 q 1055 560 1057 565 q 1047 553 1053 555 q 995 541 1044 552 q 857 522 946 530 q 728 530 803 519 q 568 557 653 541 q 330 595 448 581 q 166 584 237 603 q 55 544 95 566 q 13 519 14 522 q 4 516 9 516 l 4 516 m 1058 1054 l 1058 1054 l 1058 1054 q 1045 1059 1050 1054 q 1040 1072 1040 1065 q 1045 1085 1040 1080 q 1058 1091 1050 1091 q 1071 1085 1065 1091 q 1076 1072 1076 1080 q 1071 1059 1076 1065 q 1058 1054 1065 1054 m 1110 1053 l 1110 1053 l 1110 1053 q 1097 1058 1103 1053 q 1092 1072 1092 1063 q 1097 1084 1092 1079 q 1110 1090 1103 1090 q 1123 1084 1118 1090 q 1129 1072 1129 1079 q 1123 1058 1129 1063 q 1110 1053 1118 1053 z "},"Å":{"ha":1071,"x_min":-9,"x_max":1147,"o":"m 703 -96 q 695 -93 699 -96 q 690 -85 692 -90 q 697 148 669 11 q 786 432 726 284 q 919 707 846 579 q 1057 916 991 836 q 854 778 960 876 q 643 564 749 680 q 426 345 534 446 q 212 198 317 243 q 8 203 106 153 q 2 211 3 205 q 3 221 0 216 q 11 228 5 227 q 21 227 16 229 q 210 227 110 182 q 414 370 309 272 q 623 583 518 469 q 787 752 707 673 q 944 886 867 831 q 1095 954 1021 940 q 1110 947 1105 955 q 1107 931 1114 938 q 966 736 1042 864 q 826 457 890 608 q 717 -79 677 101 q 715 -89 718 -84 q 707 -95 713 -94 q 703 -96 705 -96 l 703 -96 m 4 516 q -6 522 -2 517 q -9 532 -9 526 q -3 541 -8 537 q 43 568 0 545 q 160 611 85 592 q 332 622 234 631 q 573 583 453 607 q 730 557 657 568 q 855 549 804 546 q 989 568 941 557 q 1039 580 1038 578 q 1049 579 1044 581 q 1056 571 1054 576 q 1055 560 1057 565 q 1047 553 1053 555 q 995 541 1044 552 q 857 522 946 530 q 728 530 803 519 q 568 557 653 541 q 330 595 448 581 q 166 584 237 603 q 55 544 95 566 q 13 519 14 522 q 4 516 9 516 l 4 516 m 1109 1033 q 1082 1044 1093 1033 q 1071 1071 1071 1055 q 1082 1098 1071 1086 q 1109 1109 1093 1109 q 1136 1098 1124 1109 q 1147 1071 1147 1086 q 1136 1044 1147 1055 q 1109 1033 1124 1033 l 1109 1033 m 1109 1087 q 1098 1082 1102 1087 q 1093 1071 1093 1078 q 1098 1060 1093 1065 q 1109 1055 1102 1055 q 1120 1060 1116 1055 q 1125 1071 1125 1065 q 1120 1082 1125 1078 q 1109 1087 1116 1087 l 1109 1087 z "},"Æ":{"ha":1385,"x_min":-9,"x_max":1360,"o":"m 703 -96 q 695 -93 699 -96 q 690 -85 692 -90 q 697 148 669 11 q 786 432 726 284 q 919 707 846 579 q 1057 916 991 836 q 854 778 960 876 q 643 564 749 680 q 426 345 534 446 q 212 198 317 243 q 8 203 106 153 q 2 211 3 205 q 3 221 0 216 q 11 228 5 227 q 21 227 16 229 q 210 227 110 182 q 414 370 309 272 q 623 583 518 469 q 787 752 707 673 q 944 886 867 831 q 1095 954 1021 940 q 1110 947 1105 955 q 1107 931 1114 938 q 966 736 1042 864 q 826 457 890 608 q 717 -79 677 101 q 715 -89 718 -84 q 707 -95 713 -94 q 703 -96 705 -96 m 905 527 q 857 522 882 524 q 728 530 803 519 q 568 557 653 541 q 330 595 448 581 q 166 584 237 603 q 55 544 95 566 q 13 519 14 522 q 4 516 9 516 q -6 522 -2 517 q -9 532 -9 526 q -3 541 -8 537 q 43 568 0 545 q 160 611 85 592 q 332 622 234 631 q 573 583 453 607 q 730 557 657 568 q 855 549 804 546 q 916 555 888 552 l 905 527 m 1004 -16 q 953 -8 978 -16 q 806 182 838 30 q 826 409 785 294 q 981 622 873 536 q 1171 662 1073 692 q 1129 784 1126 726 q 1164 884 1133 843 q 1232 939 1194 923 q 1301 942 1269 955 q 1341 898 1323 935 q 1345 768 1360 860 q 1340 759 1344 762 q 1329 757 1335 756 q 1321 763 1324 758 q 1318 773 1318 767 q 1291 917 1339 892 q 1239 912 1267 926 q 1187 868 1210 899 q 1165 826 1177 856 q 1158 754 1153 796 q 1203 665 1163 713 l 1232 632 q 1235 623 1235 628 q 1232 614 1235 618 q 1223 610 1228 610 q 1214 612 1219 609 q 998 600 1103 682 q 881 464 920 538 q 831 317 841 390 q 832 187 821 245 q 960 18 861 51 q 1251 151 1088 -16 l 1296 199 q 1305 203 1300 203 q 1315 199 1311 203 q 1319 190 1319 195 q 1316 180 1320 184 l 1270 133 q 1097 5 1181 40 q 1004 -16 1048 -16 z "},"Ç":{"ha":644,"x_min":0,"x_max":597,"o":"m 129 -22 q 100 -15 114 -20 q 0 210 0 22 q 36 432 0 313 q 132 652 71 551 q 281 835 198 758 q 436 934 363 911 q 519 935 490 948 q 562 901 549 922 q 578 749 597 846 q 511 595 559 656 q 502 591 507 591 q 492 593 496 590 q 487 603 488 597 q 490 612 486 608 q 551 751 534 669 q 539 886 569 834 q 444 908 512 928 q 297 813 375 886 q 155 637 218 740 q 61 425 96 540 q 27 210 27 310 q 109 10 27 41 q 240 25 165 -7 q 391 117 316 58 q 519 239 466 177 q 528 244 522 243 q 538 241 533 245 q 543 232 542 237 q 539 222 543 227 q 453 134 507 182 q 334 44 399 86 q 245 -2 294 18 q 159 -22 202 -20 q 157 -29 159 -26 q 146 -47 151 -39 q 166 -50 157 -47 q 180 -60 175 -53 q 183 -71 182 -64 q 177 -87 184 -77 q 162 -103 170 -96 q 149 -113 155 -110 q 143 -117 144 -117 q 136 -119 140 -119 q 125 -112 130 -119 q 123 -102 122 -107 q 130 -94 125 -96 q 134 -91 130 -94 q 142 -85 137 -89 q 152 -75 147 -81 q 138 -75 146 -74 q 124 -74 129 -77 q 118 -68 119 -71 q 116 -60 117 -66 q 118 -44 115 -55 q 129 -22 121 -35 z "},"È":{"ha":623,"x_min":0,"x_max":575,"o":"m 219 -1 q 168 7 193 -1 q 20 197 53 45 q 41 424 0 309 q 197 637 88 551 q 386 677 288 707 q 345 799 340 741 q 380 899 349 858 q 447 954 409 938 q 516 957 484 970 q 557 912 538 950 q 560 783 575 875 q 554 774 559 777 q 545 772 550 771 q 535 778 538 773 q 534 788 532 783 q 505 932 554 908 q 453 927 482 941 q 401 883 425 913 q 380 841 391 871 q 373 770 368 812 q 418 680 378 728 l 446 647 q 450 638 450 643 q 446 629 450 633 q 438 625 443 625 q 429 627 433 624 q 213 616 317 696 q 95 479 135 553 q 46 332 56 405 q 47 202 36 260 q 176 33 76 66 q 465 167 302 -1 l 511 214 q 520 218 515 218 q 530 215 526 218 q 534 205 534 211 q 530 195 534 200 l 485 148 q 313 20 396 55 q 219 -1 264 -1 l 219 -1 m 525 1044 q 516 1048 520 1044 l 484 1076 q 480 1086 480 1080 q 483 1095 479 1091 q 492 1100 487 1099 q 502 1097 498 1100 l 534 1068 q 539 1059 538 1065 q 535 1049 539 1054 q 525 1044 531 1044 l 525 1044 z "},"É":{"ha":623,"x_min":0,"x_max":575,"o":"m 219 -1 q 168 7 193 -1 q 20 197 53 45 q 41 424 0 309 q 197 637 88 551 q 386 677 288 707 q 345 799 340 741 q 380 899 349 858 q 447 954 409 938 q 516 957 484 970 q 557 912 538 950 q 560 783 575 875 q 554 774 559 777 q 545 772 550 771 q 535 778 538 773 q 534 788 532 783 q 505 932 554 908 q 453 927 482 941 q 401 883 425 913 q 380 841 391 871 q 373 770 368 812 q 418 680 378 728 l 446 647 q 450 638 450 643 q 446 629 450 633 q 438 625 443 625 q 429 627 433 624 q 213 616 317 696 q 95 479 135 553 q 46 332 56 405 q 47 202 36 260 q 176 33 76 66 q 465 167 302 -1 l 511 214 q 520 218 515 218 q 530 215 526 218 q 534 205 534 211 q 530 195 534 200 l 485 148 q 313 20 396 55 q 219 -1 264 -1 l 219 -1 m 485 1042 q 473 1049 477 1042 q 472 1060 471 1055 q 479 1067 474 1065 l 529 1093 q 539 1094 534 1095 q 547 1086 545 1092 q 548 1077 549 1082 q 541 1069 547 1072 l 491 1043 q 485 1042 488 1042 l 485 1042 z "},"Ê":{"ha":623,"x_min":0,"x_max":575,"o":"m 219 -1 q 168 7 193 -1 q 20 197 53 45 q 41 424 0 309 q 197 637 88 551 q 386 677 288 707 q 345 799 340 741 q 380 899 349 858 q 447 954 409 938 q 516 957 484 970 q 557 912 538 950 q 560 783 575 875 q 554 774 559 777 q 545 772 550 771 q 535 778 538 773 q 534 788 532 783 q 505 932 554 908 q 453 927 482 941 q 401 883 425 913 q 380 841 391 871 q 373 770 368 812 q 418 680 378 728 l 446 647 q 450 638 450 643 q 446 629 450 633 q 438 625 443 625 q 429 627 433 624 q 213 616 317 696 q 95 479 135 553 q 46 332 56 405 q 47 202 36 260 q 176 33 76 66 q 465 167 302 -1 l 511 214 q 520 218 515 218 q 530 215 526 218 q 534 205 534 211 q 530 195 534 200 l 485 148 q 313 20 396 55 q 219 -1 264 -1 l 219 -1 m 537 1038 q 536 1038 536 1038 q 526 1043 530 1039 q 524 1053 523 1048 q 524 1068 524 1060 q 500 1047 513 1059 q 491 1043 496 1043 q 481 1048 486 1044 q 478 1057 477 1052 q 482 1067 478 1063 q 509 1091 498 1082 q 526 1102 519 1099 q 535 1105 532 1105 q 541 1105 539 1105 q 551 1093 549 1101 q 552 1078 552 1086 q 551 1061 551 1069 q 550 1050 551 1054 q 546 1042 549 1046 q 537 1038 542 1038 l 537 1038 z "},"Ë":{"ha":623,"x_min":0,"x_max":575,"o":"m 219 -1 q 168 7 193 -1 q 20 197 53 45 q 41 424 0 309 q 197 637 88 551 q 386 677 288 707 q 345 799 340 741 q 380 899 349 858 q 447 954 409 938 q 516 957 484 970 q 557 912 538 950 q 560 783 575 875 q 554 774 559 777 q 545 772 550 771 q 535 778 538 773 q 534 788 532 783 q 505 932 554 908 q 453 927 482 941 q 401 883 425 913 q 380 841 391 871 q 373 770 368 812 q 418 680 378 728 l 446 647 q 450 638 450 643 q 446 629 450 633 q 438 625 443 625 q 429 627 433 624 q 213 616 317 696 q 95 479 135 553 q 46 332 56 405 q 47 202 36 260 q 176 33 76 66 q 465 167 302 -1 l 511 214 q 520 218 515 218 q 530 215 526 218 q 534 205 534 211 q 530 195 534 200 l 485 148 q 313 20 396 55 q 219 -1 264 -1 l 219 -1 m 481 1054 l 481 1054 l 481 1054 q 469 1059 474 1054 q 463 1072 463 1065 q 469 1085 463 1080 q 481 1091 474 1091 q 494 1085 489 1091 q 500 1072 500 1080 q 494 1059 500 1065 q 481 1054 489 1054 m 554 1053 l 554 1053 l 554 1053 q 541 1058 547 1053 q 536 1072 536 1063 q 541 1084 536 1079 q 554 1090 547 1090 q 567 1084 562 1090 q 573 1072 573 1079 q 567 1058 573 1063 q 554 1053 562 1053 z "},"Ì":{"ha":413,"x_min":0,"x_max":489,"o":"m 106 27 q 102 26 104 26 l 100 26 l 16 18 l 14 18 q 5 22 9 18 q 1 31 1 25 q 3 40 0 36 q 13 45 7 44 l 92 53 q 145 179 102 77 q 264 472 197 304 q 357 706 323 616 q 409 846 392 797 q 430 915 425 895 q 435 939 435 935 q 434 941 435 940 q 433 942 433 942 q 389 919 423 945 q 298 825 354 892 q 197 686 242 758 q 130 551 152 613 q 120 455 107 489 q 120 445 122 450 q 113 437 118 439 q 103 437 108 435 q 96 444 98 439 q 134 630 71 503 q 277 843 189 737 q 328 900 298 869 q 388 951 358 930 q 439 968 417 972 q 450 963 444 968 q 461 945 457 958 q 462 938 462 943 q 460 923 462 934 q 452 892 458 912 q 434 838 446 871 q 404 753 422 804 q 358 632 385 703 q 292 467 330 562 q 171 171 224 298 q 123 56 136 88 l 186 62 q 196 60 192 63 q 201 50 200 56 q 198 40 201 45 q 189 35 195 36 l 106 27 m 475 1063 q 466 1067 470 1063 l 434 1095 q 430 1104 430 1099 q 433 1114 429 1109 q 442 1119 437 1118 q 452 1115 448 1119 l 484 1087 q 489 1078 488 1083 q 485 1068 489 1072 q 475 1063 481 1063 l 475 1063 z "},"Í":{"ha":413,"x_min":0,"x_max":500,"o":"m 106 27 q 102 26 104 26 l 100 26 l 16 18 l 14 18 q 5 22 9 18 q 1 31 1 25 q 3 40 0 36 q 13 45 7 44 l 92 53 q 145 179 102 77 q 264 472 197 304 q 357 706 323 616 q 409 846 392 797 q 430 915 425 895 q 435 939 435 935 q 434 941 435 940 q 433 942 433 942 q 389 919 423 945 q 298 825 354 892 q 197 686 242 758 q 130 551 152 613 q 120 455 107 489 q 120 445 122 450 q 113 437 118 439 q 103 437 108 435 q 96 444 98 439 q 134 630 71 503 q 277 843 189 737 q 328 900 298 869 q 388 951 358 930 q 439 968 417 972 q 450 963 444 968 q 461 945 457 958 q 462 938 462 943 q 460 923 462 934 q 452 892 458 912 q 434 838 446 871 q 404 753 422 804 q 358 632 385 703 q 292 467 330 562 q 171 171 224 298 q 123 56 136 88 l 186 62 q 196 60 192 63 q 201 50 200 56 q 198 40 201 45 q 189 35 195 36 l 106 27 m 435 1061 q 423 1068 427 1061 q 422 1078 420 1073 q 429 1086 424 1084 l 479 1112 q 489 1112 484 1114 q 497 1105 494 1110 q 498 1095 500 1100 q 491 1087 496 1090 l 441 1062 q 435 1061 438 1061 l 435 1061 z "},"Î":{"ha":413,"x_min":0,"x_max":495,"o":"m 106 27 q 102 26 104 26 l 100 26 l 16 18 l 14 18 q 5 22 9 18 q 1 31 1 25 q 3 40 0 36 q 13 45 7 44 l 92 53 q 145 179 102 77 q 264 472 197 304 q 357 706 323 616 q 409 846 392 797 q 430 915 425 895 q 435 939 435 935 q 434 941 435 940 q 433 942 433 942 q 389 919 423 945 q 298 825 354 892 q 197 686 242 758 q 130 551 152 613 q 120 455 107 489 q 120 445 122 450 q 113 437 118 439 q 103 437 108 435 q 96 444 98 439 q 134 630 71 503 q 277 843 189 737 q 328 900 298 869 q 388 951 358 930 q 439 968 417 972 q 450 963 444 968 q 461 945 457 958 q 462 938 462 943 q 460 923 462 934 q 452 892 458 912 q 434 838 446 871 q 404 753 422 804 q 358 632 385 703 q 292 467 330 562 q 171 171 224 298 q 123 56 136 88 l 186 62 q 196 60 192 63 q 201 50 200 56 q 198 40 201 45 q 189 35 195 36 l 106 27 m 480 1057 q 479 1057 479 1057 q 469 1062 473 1058 q 467 1072 466 1066 q 467 1087 467 1079 q 444 1066 456 1077 q 434 1062 439 1062 q 425 1066 429 1062 q 421 1076 420 1071 q 425 1086 421 1081 q 452 1109 441 1101 q 469 1121 463 1118 q 478 1124 475 1124 q 484 1123 482 1124 q 494 1111 492 1120 q 495 1096 495 1105 q 494 1080 495 1087 q 493 1069 494 1072 q 489 1061 493 1064 q 480 1057 485 1057 l 480 1057 z "},"Ï":{"ha":413,"x_min":0,"x_max":516,"o":"m 106 27 q 102 26 104 26 l 100 26 l 16 18 l 14 18 q 5 22 9 18 q 1 31 1 25 q 3 40 0 36 q 13 45 7 44 l 92 53 q 145 179 102 77 q 264 472 197 304 q 357 706 323 616 q 409 846 392 797 q 430 915 425 895 q 435 939 435 935 q 434 941 435 940 q 433 942 433 942 q 389 919 423 945 q 298 825 354 892 q 197 686 242 758 q 130 551 152 613 q 120 455 107 489 q 120 445 122 450 q 113 437 118 439 q 103 437 108 435 q 96 444 98 439 q 134 630 71 503 q 277 843 189 737 q 328 900 298 869 q 388 951 358 930 q 439 968 417 972 q 450 963 444 968 q 461 945 457 958 q 462 938 462 943 q 460 923 462 934 q 452 892 458 912 q 434 838 446 871 q 404 753 422 804 q 358 632 385 703 q 292 467 330 562 q 171 171 224 298 q 123 56 136 88 l 186 62 q 196 60 192 63 q 201 50 200 56 q 198 40 201 45 q 189 35 195 36 l 106 27 m 438 1072 l 438 1072 l 438 1072 q 425 1078 431 1072 q 420 1091 420 1083 q 425 1104 420 1099 q 438 1109 431 1109 q 451 1104 446 1109 q 456 1091 456 1099 q 451 1078 456 1083 q 438 1072 446 1072 m 497 1072 l 497 1072 l 497 1072 q 484 1077 490 1072 q 479 1090 479 1082 q 484 1103 479 1098 q 497 1109 490 1109 q 510 1103 505 1109 q 516 1090 516 1098 q 510 1077 516 1082 q 497 1072 505 1072 z "},"Ð":{"ha":912,"x_min":0,"x_max":877,"o":"m 261 325 q 158 297 202 319 q 68 224 100 267 q 52 55 3 131 q 189 -5 94 0 q 418 36 285 -10 q 642 200 542 81 q 474 292 568 254 q 298 326 376 326 l 290 326 q 283 309 286 317 l 212 94 q 199 85 208 85 q 195 85 197 85 q 188 92 190 87 q 186 102 185 97 l 258 317 q 261 325 260 321 m 357 509 q 298 353 325 428 q 484 317 386 353 q 659 221 583 277 q 736 345 703 277 q 802 755 848 574 q 718 883 772 846 q 609 924 663 920 q 363 873 488 937 q 170 696 239 808 q 161 690 167 692 q 151 692 156 689 q 145 700 146 695 q 146 711 144 705 q 352 897 217 826 q 612 951 488 966 q 827 762 778 927 q 761 332 877 571 q 682 205 726 263 q 739 160 718 178 q 763 139 761 142 q 767 130 767 135 q 764 120 768 124 q 754 116 760 116 q 745 119 749 115 q 722 138 744 120 q 665 184 701 157 q 427 10 559 58 q 209 -33 292 -35 q 86 -7 127 -31 q 31 39 44 17 q 4 135 0 81 q 46 240 8 189 q 212 343 106 317 q 270 351 241 349 q 328 509 296 427 l 235 511 q 225 515 229 511 q 222 525 222 519 q 226 535 222 531 q 235 538 230 538 l 339 536 q 345 551 342 544 q 431 762 393 673 q 471 856 468 850 q 478 863 473 861 q 489 863 484 865 q 496 855 494 860 q 496 845 498 850 q 456 751 493 839 q 370 541 418 663 q 368 536 368 538 l 456 534 q 466 530 463 534 q 470 520 470 526 q 466 511 469 515 q 456 507 462 507 l 456 507 l 357 509 z "},"Ñ":{"ha":861,"x_min":0,"x_max":994,"o":"m 14 41 q 3 47 8 41 q 1 57 0 52 q 6 66 1 62 q 202 277 125 157 q 332 536 279 398 q 427 814 384 673 q 469 947 448 881 q 475 955 471 953 q 485 956 479 958 q 493 951 490 955 q 496 941 496 947 q 486 849 494 936 q 470 633 477 762 q 467 376 463 505 q 495 159 471 248 q 532 101 512 103 q 532 101 532 101 q 532 101 532 101 q 551 111 538 101 q 586 153 564 120 q 637 253 608 186 q 689 384 666 319 q 724 486 711 448 l 725 488 q 732 510 727 495 q 732 511 732 510 q 779 651 746 559 q 860 841 811 743 q 970 1004 908 939 q 980 1008 975 1008 q 990 1004 985 1008 q 994 995 994 1000 q 990 985 994 989 q 882 827 930 922 q 803 641 835 731 q 758 503 772 551 q 751 479 753 487 l 749 477 q 628 171 681 269 q 532 74 575 73 q 532 74 532 74 q 532 74 532 74 q 469 151 492 75 q 440 357 445 237 q 440 600 435 477 q 455 815 446 722 q 454 810 454 812 q 452 806 453 808 q 356 524 409 663 q 224 260 303 384 q 22 44 144 137 q 14 41 18 41 l 14 41 m 679 1044 q 662 1051 667 1044 q 655 1064 656 1057 q 656 1078 654 1072 q 659 1087 657 1084 q 665 1095 661 1093 q 675 1095 670 1097 q 683 1088 681 1093 q 684 1078 686 1084 q 682 1072 683 1075 q 707 1080 692 1075 q 770 1090 753 1101 q 778 1075 778 1084 q 776 1051 778 1061 q 761 1041 774 1038 q 749 1053 749 1044 q 751 1067 750 1062 q 733 1061 743 1065 q 716 1055 724 1058 q 690 1046 701 1049 q 679 1044 684 1044 l 679 1044 z "},"Ò":{"ha":657,"x_min":-15,"x_max":609,"o":"m 104 446 q 70 83 16 210 q 128 26 91 39 q 244 47 179 10 q 378 167 310 84 q 510 387 456 264 q 576 628 564 509 q 541 835 588 747 q 340 920 471 949 q 229 866 283 907 q 139 761 176 825 q 97 615 102 697 q 106 520 94 565 q 186 656 144 600 q 262 744 228 711 q 335 805 307 785 q 366 824 363 824 q 376 825 370 827 q 384 819 381 823 q 385 808 386 813 q 378 800 383 803 q 349 782 376 800 q 281 724 322 764 q 201 630 244 690 q 118 481 157 570 q 183 373 145 415 q 248 319 222 331 q 255 312 253 317 q 254 302 257 307 q 247 294 252 296 q 237 295 242 292 q 172 345 210 306 q 104 446 134 384 m 153 -5 q 120 1 136 -5 q 45 72 71 17 q 83 468 -15 212 q 89 482 86 475 q 70 617 66 543 q 116 774 76 705 q 214 888 155 844 q 334 947 272 932 q 564 848 485 979 q 606 670 609 764 q 580 499 603 576 q 399 150 524 306 q 153 -5 267 -9 m 484 1044 q 475 1048 479 1044 l 444 1076 q 439 1086 439 1080 q 442 1095 439 1091 q 452 1100 446 1099 q 461 1097 457 1100 l 494 1068 q 498 1059 498 1065 q 494 1049 498 1054 q 484 1044 490 1044 l 484 1044 z "},"Ó":{"ha":657,"x_min":-15,"x_max":609,"o":"m 104 446 q 70 83 16 210 q 128 26 91 39 q 244 47 179 10 q 378 167 310 84 q 510 387 456 264 q 576 628 564 509 q 541 835 588 747 q 340 920 471 949 q 229 866 283 907 q 139 761 176 825 q 97 615 102 697 q 106 520 94 565 q 186 656 144 600 q 262 744 228 711 q 335 805 307 785 q 366 824 363 824 q 376 825 370 827 q 384 819 381 823 q 385 808 386 813 q 378 800 383 803 q 349 782 376 800 q 281 724 322 764 q 201 630 244 690 q 118 481 157 570 q 183 373 145 415 q 248 319 222 331 q 255 312 253 317 q 254 302 257 307 q 247 294 252 296 q 237 295 242 292 q 172 345 210 306 q 104 446 134 384 m 153 -5 q 120 1 136 -5 q 45 72 71 17 q 83 468 -15 212 q 89 482 86 475 q 70 617 66 543 q 116 774 76 705 q 214 888 155 844 q 334 947 272 932 q 564 848 485 979 q 606 670 609 764 q 580 499 603 576 q 399 150 524 306 q 153 -5 267 -9 m 417 1042 q 406 1049 410 1042 q 405 1060 403 1055 q 411 1067 406 1065 l 461 1093 q 472 1094 467 1095 q 479 1086 477 1092 q 480 1077 481 1082 q 473 1069 479 1072 l 423 1043 q 417 1042 420 1042 l 417 1042 z "},"Ô":{"ha":657,"x_min":-15,"x_max":609,"o":"m 104 446 q 70 83 16 210 q 128 26 91 39 q 244 47 179 10 q 378 167 310 84 q 510 387 456 264 q 576 628 564 509 q 541 835 588 747 q 340 920 471 949 q 229 866 283 907 q 139 761 176 825 q 97 615 102 697 q 106 520 94 565 q 186 656 144 600 q 262 744 228 711 q 335 805 307 785 q 366 824 363 824 q 376 825 370 827 q 384 819 381 823 q 385 808 386 813 q 378 800 383 803 q 349 782 376 800 q 281 724 322 764 q 201 630 244 690 q 118 481 157 570 q 183 373 145 415 q 248 319 222 331 q 255 312 253 317 q 254 302 257 307 q 247 294 252 296 q 237 295 242 292 q 172 345 210 306 q 104 446 134 384 m 153 -5 q 120 1 136 -5 q 45 72 71 17 q 83 468 -15 212 q 89 482 86 475 q 70 617 66 543 q 116 774 76 705 q 214 888 155 844 q 334 947 272 932 q 564 848 485 979 q 606 670 609 764 q 580 499 603 576 q 399 150 524 306 q 153 -5 267 -9 m 463 1038 q 461 1038 462 1038 q 452 1043 455 1039 q 449 1053 448 1048 q 450 1068 450 1060 q 426 1047 438 1059 q 416 1043 422 1043 q 407 1048 411 1044 q 403 1057 403 1052 q 408 1067 404 1063 q 434 1091 424 1082 q 451 1102 445 1099 q 461 1105 457 1105 q 467 1105 465 1105 q 477 1093 475 1101 q 477 1078 477 1086 q 476 1061 477 1069 q 475 1050 476 1054 q 471 1042 475 1046 q 463 1038 467 1038 l 463 1038 z "},"Õ":{"ha":657,"x_min":-15,"x_max":609,"o":"m 104 446 q 70 83 16 210 q 128 26 91 39 q 244 47 179 10 q 378 167 310 84 q 510 387 456 264 q 576 628 564 509 q 541 835 588 747 q 340 920 471 949 q 229 866 283 907 q 139 761 176 825 q 97 615 102 697 q 106 520 94 565 q 186 656 144 600 q 262 744 228 711 q 335 805 307 785 q 366 824 363 824 q 376 825 370 827 q 384 819 381 823 q 385 808 386 813 q 378 800 383 803 q 349 782 376 800 q 281 724 322 764 q 201 630 244 690 q 118 481 157 570 q 183 373 145 415 q 248 319 222 331 q 255 312 253 317 q 254 302 257 307 q 247 294 252 296 q 237 295 242 292 q 172 345 210 306 q 104 446 134 384 m 153 -5 q 120 1 136 -5 q 45 72 71 17 q 83 468 -15 212 q 89 482 86 475 q 70 617 66 543 q 116 774 76 705 q 214 888 155 844 q 334 947 272 932 q 564 848 485 979 q 606 670 609 764 q 580 499 603 576 q 399 150 524 306 q 153 -5 267 -9 m 408 1044 q 391 1051 395 1044 q 384 1064 385 1057 q 385 1078 383 1072 q 387 1087 386 1084 q 394 1095 389 1093 q 404 1095 399 1097 q 412 1088 410 1093 q 412 1078 414 1084 q 411 1072 412 1075 q 435 1080 421 1075 q 498 1090 482 1101 q 507 1075 507 1084 q 505 1051 507 1061 q 490 1041 503 1038 q 478 1053 477 1044 q 479 1067 479 1062 q 462 1061 472 1065 q 445 1055 452 1058 q 419 1046 430 1049 q 408 1044 412 1044 l 408 1044 z "},"Ö":{"ha":657,"x_min":-15,"x_max":609,"o":"m 104 446 q 70 83 16 210 q 128 26 91 39 q 244 47 179 10 q 378 167 310 84 q 510 387 456 264 q 576 628 564 509 q 541 835 588 747 q 340 920 471 949 q 229 866 283 907 q 139 761 176 825 q 97 615 102 697 q 106 520 94 565 q 186 656 144 600 q 262 744 228 711 q 335 805 307 785 q 366 824 363 824 q 376 825 370 827 q 384 819 381 823 q 385 808 386 813 q 378 800 383 803 q 349 782 376 800 q 281 724 322 764 q 201 630 244 690 q 118 481 157 570 q 183 373 145 415 q 248 319 222 331 q 255 312 253 317 q 254 302 257 307 q 247 294 252 296 q 237 295 242 292 q 172 345 210 306 q 104 446 134 384 m 153 -5 q 120 1 136 -5 q 45 72 71 17 q 83 468 -15 212 q 89 482 86 475 q 70 617 66 543 q 116 774 76 705 q 214 888 155 844 q 334 947 272 932 q 564 848 485 979 q 606 670 609 764 q 580 499 603 576 q 399 150 524 306 q 153 -5 267 -9 m 427 1054 l 427 1054 l 427 1054 q 414 1059 420 1054 q 409 1072 409 1065 q 414 1085 409 1080 q 427 1091 420 1091 q 440 1085 435 1091 q 446 1072 446 1080 q 440 1059 446 1065 q 427 1054 435 1054 m 500 1053 l 500 1053 l 500 1053 q 487 1058 492 1053 q 481 1072 481 1063 q 487 1084 481 1079 q 500 1090 492 1090 q 513 1084 507 1090 q 519 1072 519 1079 q 513 1058 519 1063 q 500 1053 507 1053 z "},"×":{"ha":354,"x_min":22,"x_max":271,"o":"m 29 284 q 26 286 27 285 q 22 296 22 291 q 26 306 22 302 l 248 515 q 257 518 252 519 q 267 514 262 518 q 271 505 271 510 q 267 495 271 499 l 45 286 q 29 284 37 279 l 29 284 m 216 271 q 216 271 216 271 l 75 513 q 74 523 72 518 q 80 532 75 528 q 90 533 85 534 q 98 527 96 532 l 239 285 q 240 275 241 280 q 234 267 239 270 q 224 265 229 264 q 216 271 218 267 l 216 271 z "},"Ø":{"ha":657,"x_min":-15,"x_max":611,"o":"m 153 -5 q 120 1 136 -5 q 45 72 71 17 q 83 468 -15 212 q 89 482 86 475 q 70 617 66 543 q 116 774 76 705 q 214 888 155 844 q 334 947 272 932 q 564 848 485 979 q 606 670 609 764 q 580 499 603 576 q 399 150 524 306 q 153 -5 267 -9 l 153 -5 m 104 446 q 70 83 16 210 q 128 26 91 39 q 244 47 179 10 q 378 167 310 84 q 510 387 456 264 q 576 628 564 509 q 541 835 588 747 q 340 920 471 949 q 229 866 283 907 q 139 761 176 825 q 97 615 102 697 q 106 520 94 565 q 186 656 144 600 q 262 744 228 711 q 335 805 307 785 q 366 824 363 824 q 376 825 370 827 q 384 819 381 823 q 385 808 386 813 q 378 800 383 803 q 349 782 376 800 q 281 724 322 764 q 201 630 244 690 q 118 481 157 570 q 183 373 145 415 q 248 319 222 331 q 255 312 253 317 q 254 302 257 307 q 247 294 252 296 q 237 295 242 292 q 172 345 210 306 q 104 446 134 384 l 104 446 m -1 3 q -8 5 -5 3 q -14 13 -13 8 q -12 24 -15 18 l 585 941 q 594 947 589 946 q 604 945 599 948 q 610 937 609 942 q 608 926 611 931 l 11 9 q -1 3 5 2 l -1 3 z "},"Ù":{"ha":650,"x_min":-5,"x_max":721,"o":"m 413 -38 q 403 -35 408 -38 q 389 26 386 -24 q 424 213 393 87 q 500 459 452 323 q 596 718 548 595 q 442 451 527 593 q 275 194 357 309 q 133 38 193 80 q 31 29 66 -6 q 10 196 -5 66 q 69 464 23 306 q 165 743 113 613 q 260 937 218 873 q 269 942 264 941 q 279 941 274 943 q 284 932 283 937 q 283 922 286 926 q 190 731 242 860 q 95 456 138 602 q 36 184 47 292 q 51 48 24 77 q 118 61 70 29 q 260 219 176 102 q 431 485 343 337 q 590 763 519 633 q 694 958 661 893 q 702 965 697 964 q 712 964 707 967 q 719 957 717 962 q 719 947 721 952 q 663 811 715 939 q 548 514 610 684 q 450 207 486 344 q 424 82 431 127 q 416 16 416 37 q 418 -9 416 -5 q 429 -15 425 -9 q 431 -25 432 -20 q 426 -34 431 -31 q 413 -38 420 -38 l 413 -38 m 396 -50 l 396 -50 q 396 -50 396 -50 q 396 -50 396 -50 m 559 1045 q 549 1048 554 1045 l 517 1076 q 513 1086 513 1080 q 516 1095 513 1091 q 526 1100 520 1100 q 535 1097 531 1101 l 568 1069 q 572 1059 572 1065 q 569 1049 572 1054 q 559 1045 564 1045 l 559 1045 z "},"Ú":{"ha":650,"x_min":-5,"x_max":721,"o":"m 413 -38 q 403 -35 408 -38 q 389 26 386 -24 q 424 213 393 87 q 500 459 452 323 q 596 718 548 595 q 442 451 527 593 q 275 194 357 309 q 133 38 193 80 q 31 29 66 -6 q 10 196 -5 66 q 69 464 23 306 q 165 743 113 613 q 260 937 218 873 q 269 942 264 941 q 279 941 274 943 q 284 932 283 937 q 283 922 286 926 q 190 731 242 860 q 95 456 138 602 q 36 184 47 292 q 51 48 24 77 q 118 61 70 29 q 260 219 176 102 q 431 485 343 337 q 590 763 519 633 q 694 958 661 893 q 702 965 697 964 q 712 964 707 967 q 719 957 717 962 q 719 947 721 952 q 663 811 715 939 q 548 514 610 684 q 450 207 486 344 q 424 82 431 127 q 416 16 416 37 q 418 -9 416 -5 q 429 -15 425 -9 q 431 -25 432 -20 q 426 -34 431 -31 q 413 -38 420 -38 l 413 -38 m 396 -50 l 396 -50 q 396 -50 396 -50 q 396 -50 396 -50 m 539 1046 q 527 1053 532 1046 q 526 1064 524 1059 q 533 1072 528 1069 l 583 1097 q 593 1098 588 1099 q 601 1090 598 1096 q 602 1081 604 1086 q 595 1073 600 1076 l 545 1047 q 539 1046 542 1046 l 539 1046 z "},"Û":{"ha":650,"x_min":-5,"x_max":721,"o":"m 413 -38 q 403 -35 408 -38 q 389 26 386 -24 q 424 213 393 87 q 500 459 452 323 q 596 718 548 595 q 442 451 527 593 q 275 194 357 309 q 133 38 193 80 q 31 29 66 -6 q 10 196 -5 66 q 69 464 23 306 q 165 743 113 613 q 260 937 218 873 q 269 942 264 941 q 279 941 274 943 q 284 932 283 937 q 283 922 286 926 q 190 731 242 860 q 95 456 138 602 q 36 184 47 292 q 51 48 24 77 q 118 61 70 29 q 260 219 176 102 q 431 485 343 337 q 590 763 519 633 q 694 958 661 893 q 702 965 697 964 q 712 964 707 967 q 719 957 717 962 q 719 947 721 952 q 663 811 715 939 q 548 514 610 684 q 450 207 486 344 q 424 82 431 127 q 416 16 416 37 q 418 -9 416 -5 q 429 -15 425 -9 q 431 -25 432 -20 q 426 -34 431 -31 q 413 -38 420 -38 l 413 -38 m 396 -50 l 396 -50 q 396 -50 396 -50 q 396 -50 396 -50 m 562 1039 q 560 1039 561 1039 q 551 1044 555 1040 q 548 1054 548 1048 q 549 1069 549 1061 q 526 1048 537 1059 q 516 1044 522 1044 q 507 1048 511 1044 q 503 1058 503 1053 q 507 1067 503 1063 q 534 1092 523 1083 q 551 1103 545 1100 q 560 1106 557 1106 q 566 1105 564 1106 q 576 1093 574 1102 q 577 1078 577 1087 q 576 1062 576 1069 q 575 1051 576 1054 q 571 1043 574 1046 q 562 1039 567 1039 l 562 1039 z "},"Ü":{"ha":650,"x_min":-5,"x_max":721,"o":"m 413 -38 q 403 -35 408 -38 q 389 26 386 -24 q 424 213 393 87 q 500 459 452 323 q 596 718 548 595 q 442 451 527 593 q 275 194 357 309 q 133 38 193 80 q 31 29 66 -6 q 10 196 -5 66 q 69 464 23 306 q 165 743 113 613 q 260 937 218 873 q 269 942 264 941 q 279 941 274 943 q 284 932 283 937 q 283 922 286 926 q 190 731 242 860 q 95 456 138 602 q 36 184 47 292 q 51 48 24 77 q 118 61 70 29 q 260 219 176 102 q 431 485 343 337 q 590 763 519 633 q 694 958 661 893 q 702 965 697 964 q 712 964 707 967 q 719 957 717 962 q 719 947 721 952 q 663 811 715 939 q 548 514 610 684 q 450 207 486 344 q 424 82 431 127 q 416 16 416 37 q 418 -9 416 -5 q 429 -15 425 -9 q 431 -25 432 -20 q 426 -34 431 -31 q 413 -38 420 -38 l 413 -38 m 396 -50 l 396 -50 q 396 -50 396 -50 q 396 -50 396 -50 m 526 1050 l 526 1050 l 526 1050 q 512 1056 517 1050 q 507 1069 507 1061 q 512 1082 507 1077 q 526 1088 517 1088 q 538 1082 533 1088 q 544 1069 544 1077 q 538 1056 544 1061 q 526 1050 533 1050 m 591 1050 l 591 1050 l 591 1050 q 578 1055 584 1050 q 573 1068 573 1061 q 578 1082 573 1076 q 591 1087 584 1087 q 604 1082 599 1087 q 610 1068 610 1076 q 604 1055 610 1061 q 591 1050 599 1050 z "},"Ý":{"ha":720,"x_min":0,"x_max":787,"o":"m 106 -60 q 50 -48 73 -60 q 16 -25 28 -37 q 3 -11 4 -13 q 1 -1 0 -6 q 6 8 1 5 q 16 11 11 12 q 25 5 22 9 q 36 -6 26 3 q 65 -25 46 -16 q 113 -33 85 -34 q 515 317 332 -18 q 619 538 573 423 q 699 757 665 653 q 600 578 656 673 q 477 396 543 482 q 317 248 401 295 q 177 230 232 201 q 141 270 157 239 q 127 362 124 300 q 169 532 130 425 q 242 715 203 623 q 310 868 281 806 q 340 935 338 930 q 348 941 342 939 q 358 941 353 943 q 365 933 363 939 q 364 923 367 928 q 334 858 363 920 q 267 704 306 795 q 194 522 228 613 q 154 346 155 416 q 190 254 153 275 q 302 271 229 233 q 456 412 374 309 q 606 644 538 523 q 716 851 675 765 q 760 943 758 937 q 767 950 762 948 q 777 950 772 951 q 785 943 783 948 q 785 933 787 939 q 768 882 777 909 l 768 880 q 673 602 730 757 q 537 299 616 446 q 353 52 458 152 q 115 -60 249 -47 q 106 -60 110 -60 m 580 1046 q 568 1053 572 1046 q 567 1064 565 1059 q 574 1072 568 1069 l 623 1097 q 634 1098 629 1099 q 642 1090 639 1096 q 643 1081 644 1086 q 635 1073 641 1076 l 586 1047 q 580 1046 583 1046 l 580 1046 z "},"Þ":{"ha":573,"x_min":0,"x_max":526,"o":"m 104 301 l 28 58 q 15 48 23 48 l 11 48 q 3 55 5 50 q 2 65 0 60 l 77 305 q 46 311 58 309 q 23 317 24 317 q 15 324 18 319 q 15 334 13 329 q 22 342 17 340 q 32 343 26 345 q 80 332 33 341 q 85 331 82 332 l 235 814 q 191 802 213 810 q 130 770 153 786 q 106 753 106 755 q 96 750 102 749 q 87 754 91 750 q 84 764 83 759 q 88 774 84 770 q 114 793 90 776 q 181 827 139 810 q 243 843 213 839 l 288 984 q 294 992 290 989 q 304 993 299 995 q 313 986 310 991 q 313 976 315 981 l 273 846 q 397 819 337 848 q 521 641 506 764 q 517 547 526 591 q 495 476 508 503 q 440 398 478 439 q 347 327 402 357 q 222 295 292 296 l 217 295 q 111 300 153 295 q 104 301 107 301 m 264 819 l 112 328 q 222 322 155 323 q 332 350 282 323 q 418 414 382 376 q 471 488 454 452 q 490 552 482 512 q 494 637 498 592 q 386 794 481 747 q 264 819 327 823 z "},"ß":{"ha":593,"x_min":0,"x_max":545,"o":"m 268 5 q 198 24 230 5 q 155 73 168 44 q 141 131 142 102 q 144 180 140 160 q 149 203 148 201 q 155 212 151 209 q 165 213 160 214 q 174 207 171 212 q 175 197 176 202 q 171 178 174 195 q 169 137 168 161 q 178 87 169 112 q 212 47 188 63 q 375 72 283 7 q 478 202 439 118 q 495 389 517 287 q 450 480 479 444 q 393 541 421 517 q 363 573 374 559 q 354 602 351 587 q 367 621 357 614 q 389 633 377 629 q 477 721 456 663 q 491 836 499 780 q 463 916 484 884 q 412 952 441 948 q 373 943 399 955 q 313 884 347 930 q 239 736 278 837 q 187 578 221 686 q 116 351 153 471 q 55 145 80 231 q 27 54 29 59 q 21 45 26 48 q 11 44 16 43 q 3 51 5 46 q 1 61 0 56 q 29 153 3 67 q 91 359 54 239 q 161 588 127 479 q 214 747 195 696 q 315 930 262 871 q 372 972 347 963 q 415 979 397 982 q 482 936 454 973 q 518 840 509 899 q 502 709 528 776 q 399 608 476 642 q 391 604 394 606 q 385 601 387 602 q 382 598 383 600 q 381 597 381 597 q 380 597 380 597 q 386 588 380 594 q 398 574 391 582 q 412 561 405 567 q 472 496 440 536 q 522 395 505 456 q 503 192 545 284 q 391 50 460 100 q 268 5 327 5 l 268 5 z "},"à":{"ha":333,"x_min":-75,"x_max":348,"o":"m -45 283 q -57 286 -52 283 q -68 296 -62 288 q -75 323 -75 304 q -38 420 -72 366 q 41 494 -5 475 q 77 497 57 500 q 119 471 98 494 q 141 500 133 488 q 150 511 149 511 q 158 517 153 516 q 168 515 163 518 q 174 508 172 513 q 173 498 175 503 q 141 387 142 425 q 153 342 139 350 q 221 360 174 331 q 323 456 268 389 q 332 461 327 460 q 342 458 338 462 q 347 449 347 454 q 345 439 348 444 q 166 312 242 316 q 139 319 151 312 q 116 352 123 327 q 120 427 109 377 q 48 345 86 384 q -45 283 -14 283 l -45 283 m -45 311 q -45 311 -45 311 q -43 311 -45 311 q -35 313 -41 311 q -21 321 -30 315 q -1 337 -13 326 q 28 364 12 347 q 102 449 68 404 q 100 452 101 450 q 56 470 80 475 q -2 425 26 462 q -43 347 -30 388 q -47 320 -48 328 q -45 311 -47 311 q -45 311 -45 311 l -45 311 m 119 595 q 111 598 115 595 l 79 626 q 74 635 74 630 q 77 646 73 641 q 86 650 81 650 q 96 646 92 650 l 128 618 q 133 609 133 614 q 130 600 134 604 q 119 595 125 595 l 119 595 z "},"á":{"ha":333,"x_min":-75,"x_max":348,"o":"m -45 283 q -57 286 -52 283 q -68 296 -62 288 q -75 323 -75 304 q -38 420 -72 366 q 41 494 -5 475 q 77 497 57 500 q 119 471 98 494 q 141 500 133 488 q 150 511 149 511 q 158 517 153 516 q 168 515 163 518 q 174 508 172 513 q 173 498 175 503 q 141 387 142 425 q 153 342 139 350 q 221 360 174 331 q 323 456 268 389 q 332 461 327 460 q 342 458 338 462 q 347 449 347 454 q 345 439 348 444 q 166 312 242 316 q 139 319 151 312 q 116 352 123 327 q 120 427 109 377 q 48 345 86 384 q -45 283 -14 283 l -45 283 m -45 311 q -45 311 -45 311 q -43 311 -45 311 q -35 313 -41 311 q -21 321 -30 315 q -1 337 -13 326 q 28 364 12 347 q 102 449 68 404 q 100 452 101 450 q 56 470 80 475 q -2 425 26 462 q -43 347 -30 388 q -47 320 -48 328 q -45 311 -47 311 q -45 311 -45 311 l -45 311 m 45 592 q 33 600 38 592 q 33 610 31 604 q 39 618 35 615 l 90 643 q 100 643 94 645 q 108 637 105 642 q 108 626 110 631 q 102 618 106 621 l 52 593 q 45 592 49 592 l 45 592 z "},"â":{"ha":333,"x_min":-75,"x_max":348,"o":"m -45 283 q -57 286 -52 283 q -68 296 -62 288 q -75 323 -75 304 q -38 420 -72 366 q 41 494 -5 475 q 77 497 57 500 q 119 471 98 494 q 141 500 133 488 q 150 511 149 511 q 158 517 153 516 q 168 515 163 518 q 174 508 172 513 q 173 498 175 503 q 141 387 142 425 q 153 342 139 350 q 221 360 174 331 q 323 456 268 389 q 332 461 327 460 q 342 458 338 462 q 347 449 347 454 q 345 439 348 444 q 166 312 242 316 q 139 319 151 312 q 116 352 123 327 q 120 427 109 377 q 48 345 86 384 q -45 283 -14 283 l -45 283 m -45 311 q -45 311 -45 311 q -43 311 -45 311 q -35 313 -41 311 q -21 321 -30 315 q -1 337 -13 326 q 28 364 12 347 q 102 449 68 404 q 100 452 101 450 q 56 470 80 475 q -2 425 26 462 q -43 347 -30 388 q -47 320 -48 328 q -45 311 -47 311 q -45 311 -45 311 l -45 311 m 111 589 q 109 589 110 589 q 100 593 104 589 q 97 604 97 597 q 98 618 98 610 q 75 597 86 608 q 65 593 71 593 q 56 597 60 593 q 52 607 52 602 q 56 617 52 612 q 83 641 72 633 q 100 653 94 650 q 109 655 106 656 q 115 654 113 655 q 125 642 123 651 q 126 627 126 636 q 125 611 125 618 q 124 601 125 604 q 120 592 123 595 q 111 589 116 589 l 111 589 z "},"ã":{"ha":333,"x_min":-75,"x_max":348,"o":"m -45 283 q -57 286 -52 283 q -68 296 -62 288 q -75 323 -75 304 q -38 420 -72 366 q 41 494 -5 475 q 77 497 57 500 q 119 471 98 494 q 141 500 133 488 q 150 511 149 511 q 158 517 153 516 q 168 515 163 518 q 174 508 172 513 q 173 498 175 503 q 141 387 142 425 q 153 342 139 350 q 221 360 174 331 q 323 456 268 389 q 332 461 327 460 q 342 458 338 462 q 347 449 347 454 q 345 439 348 444 q 166 312 242 316 q 139 319 151 312 q 116 352 123 327 q 120 427 109 377 q 48 345 86 384 q -45 283 -14 283 l -45 283 m -45 311 q -45 311 -45 311 q -43 311 -45 311 q -35 313 -41 311 q -21 321 -30 315 q -1 337 -13 326 q 28 364 12 347 q 102 449 68 404 q 100 452 101 450 q 56 470 80 475 q -2 425 26 462 q -43 347 -30 388 q -47 320 -48 328 q -45 311 -47 311 q -45 311 -45 311 l -45 311 m 56 594 q 39 601 43 594 q 33 614 34 607 q 33 628 32 621 q 35 637 35 634 q 42 645 37 642 q 53 646 47 647 q 61 638 58 644 q 61 628 63 633 q 60 622 60 625 q 83 631 70 625 q 147 641 130 651 q 155 625 155 635 q 153 602 155 612 q 138 591 151 589 q 127 603 126 594 q 127 616 127 612 q 111 611 120 615 q 94 605 101 608 q 67 596 79 600 q 56 594 61 594 l 56 594 z "},"ä":{"ha":333,"x_min":-75,"x_max":348,"o":"m -45 283 q -57 286 -52 283 q -68 296 -62 288 q -75 323 -75 304 q -38 420 -72 366 q 41 494 -5 475 q 77 497 57 500 q 119 471 98 494 q 141 500 133 488 q 150 511 149 511 q 158 517 153 516 q 168 515 163 518 q 174 508 172 513 q 173 498 175 503 q 141 387 142 425 q 153 342 139 350 q 221 360 174 331 q 323 456 268 389 q 332 461 327 460 q 342 458 338 462 q 347 449 347 454 q 345 439 348 444 q 166 312 242 316 q 139 319 151 312 q 116 352 123 327 q 120 427 109 377 q 48 345 86 384 q -45 283 -14 283 l -45 283 m -45 311 q -45 311 -45 311 q -43 311 -45 311 q -35 313 -41 311 q -21 321 -30 315 q -1 337 -13 326 q 28 364 12 347 q 102 449 68 404 q 100 452 101 450 q 56 470 80 475 q -2 425 26 462 q -43 347 -30 388 q -47 320 -48 328 q -45 311 -47 311 q -45 311 -45 311 l -45 311 m 75 583 l 75 583 l 75 583 q 62 589 68 583 q 57 602 57 594 q 62 615 57 610 q 75 621 68 621 q 89 615 83 621 q 94 602 94 610 q 89 589 94 594 q 75 583 83 583 m 128 583 l 128 583 l 128 583 q 115 588 120 583 q 109 602 109 593 q 115 614 109 609 q 128 620 120 620 q 141 614 136 620 q 146 602 146 609 q 141 588 146 593 q 128 583 136 583 z "},"å":{"ha":333,"x_min":-75,"x_max":348,"o":"m -45 283 q -57 286 -52 283 q -68 296 -62 288 q -75 323 -75 304 q -38 420 -72 366 q 41 494 -5 475 q 77 497 57 500 q 119 471 98 494 q 141 500 133 488 q 150 511 149 511 q 158 517 153 516 q 168 515 163 518 q 174 508 172 513 q 173 498 175 503 q 141 387 142 425 q 153 342 139 350 q 221 360 174 331 q 323 456 268 389 q 332 461 327 460 q 342 458 338 462 q 347 449 347 454 q 345 439 348 444 q 166 312 242 316 q 139 319 151 312 q 116 352 123 327 q 120 427 109 377 q 48 345 86 384 q -45 283 -14 283 l -45 283 m -45 311 q -45 311 -45 311 q -43 311 -45 311 q -35 313 -41 311 q -21 321 -30 315 q -1 337 -13 326 q 28 364 12 347 q 102 449 68 404 q 100 452 101 450 q 56 470 80 475 q -2 425 26 462 q -43 347 -30 388 q -47 320 -48 328 q -45 311 -47 311 q -45 311 -45 311 l -45 311 m 100 583 q 73 594 84 583 q 62 621 62 606 q 73 648 62 637 q 100 659 84 659 q 126 648 115 659 q 138 621 138 637 q 126 594 138 606 q 100 583 115 583 l 100 583 m 100 637 q 88 632 93 637 q 83 621 83 627 q 88 610 83 614 q 100 605 93 605 q 111 610 106 605 q 115 621 115 614 q 111 632 115 627 q 100 637 106 637 l 100 637 z "},"æ":{"ha":986,"x_min":844,"x_max":1343,"o":"m 874 284 l 874 284 q 967 345 905 283 q 1038 427 1004 384 q 1040 334 1022 363 q 1078 313 1053 315 q 1088 316 1084 313 q 1093 326 1092 319 q 1089 335 1093 331 q 1080 340 1085 339 q 1068 343 1072 340 q 1063 349 1065 346 q 1058 369 1059 353 q 1063 416 1057 385 q 1092 499 1070 447 q 1092 509 1094 504 q 1086 516 1090 513 q 1077 517 1082 519 q 1068 512 1072 516 q 1060 500 1068 511 q 1038 471 1052 489 q 996 497 1017 494 q 960 494 976 500 q 881 420 914 475 q 844 323 847 366 q 850 297 844 305 q 862 286 857 288 q 874 284 867 284 m 873 311 l 873 311 q 873 311 873 311 q 871 320 872 312 q 876 347 871 329 q 917 425 889 388 q 975 471 945 462 q 1018 452 998 475 q 1021 450 1019 450 q 947 364 987 405 q 918 337 930 348 q 897 321 906 327 q 883 313 888 315 q 876 311 878 311 q 873 311 873 311 q 873 311 873 311 m 1128 290 l 1128 290 q 1135 290 1131 290 q 1256 344 1204 297 q 1340 441 1308 391 q 1342 451 1343 446 q 1337 460 1341 456 q 1327 462 1332 463 q 1318 456 1322 461 q 1133 317 1223 322 q 1087 349 1093 314 q 1103 429 1082 385 q 1119 424 1108 427 q 1142 419 1129 420 q 1166 421 1154 418 q 1196 448 1187 429 q 1198 484 1204 467 q 1181 505 1194 498 q 1148 506 1168 512 q 1078 438 1103 489 q 1060 343 1053 388 q 1128 290 1072 290 m 1119 452 l 1119 452 q 1156 480 1135 473 q 1166 481 1163 482 q 1171 479 1170 481 q 1173 476 1173 477 q 1172 460 1175 469 q 1157 447 1168 451 q 1139 447 1150 445 q 1119 452 1128 448 z "},"ç":{"ha":184,"x_min":-68,"x_max":197,"o":"m -30 273 q -39 275 -35 273 q -61 343 -68 289 q -19 444 -52 397 q 47 505 14 490 q 70 507 61 509 q 83 501 79 505 q 92 430 103 484 q 86 421 90 424 q 76 419 81 418 q 67 425 70 420 q 65 435 64 429 q 68 454 67 446 q 68 468 68 463 q 67 475 68 473 q 66 479 66 478 l 65 479 l 65 480 q 56 479 64 481 q 3 429 32 469 q -34 340 -26 389 q -27 300 -38 306 q 2 305 -20 296 q 61 341 24 314 q 173 447 122 388 q 182 452 177 452 q 193 448 188 452 q 197 439 197 445 q 194 429 197 434 q 77 319 140 368 q 3 277 34 286 q -7 258 -3 267 q 13 256 3 259 q 26 245 22 253 q 30 235 29 242 q 24 218 31 229 q 9 203 17 210 q -4 193 1 196 q -10 189 -9 189 q -16 187 -13 187 q -28 194 -24 187 q -30 204 -31 199 q -23 212 -28 210 q -22 213 -22 212 l -22 213 l -20 215 q -11 221 -16 217 q -1 231 -6 225 q -16 231 -7 232 q -29 232 -24 229 q -35 238 -33 235 q -38 245 -37 240 q -35 262 -39 251 q -30 273 -33 267 z "},"è":{"ha":229,"x_min":-47,"x_max":243,"o":"m 28 286 q -40 340 -28 287 q -22 435 -47 385 q 48 503 6 488 q 81 502 68 509 q 98 481 94 494 q 95 445 104 464 q 66 418 87 426 q 42 416 54 414 q 19 420 29 417 q 3 425 8 423 q -14 345 -19 382 q 33 313 -7 311 q 218 453 123 319 q 227 459 222 458 q 237 456 232 460 q 242 448 241 453 q 240 437 243 442 q 156 341 208 388 q 35 286 104 294 q 28 286 31 286 l 28 286 m 19 449 q 39 444 28 446 q 57 444 50 442 q 71 457 67 448 q 73 473 75 466 q 71 476 73 474 q 66 478 70 477 q 56 477 63 479 q 19 449 35 469 l 19 449 m 79 595 q 70 598 74 595 l 38 626 q 33 635 33 630 q 37 646 33 641 q 46 650 41 650 q 56 646 51 650 l 87 618 q 93 609 92 614 q 89 600 93 604 q 79 595 84 595 l 79 595 z "},"é":{"ha":229,"x_min":-47,"x_max":243,"o":"m 28 286 q -40 340 -28 287 q -22 435 -47 385 q 48 503 6 488 q 81 502 68 509 q 98 481 94 494 q 95 445 104 464 q 66 418 87 426 q 42 416 54 414 q 19 420 29 417 q 3 425 8 423 q -14 345 -19 382 q 33 313 -7 311 q 218 453 123 319 q 227 459 222 458 q 237 456 232 460 q 242 448 241 453 q 240 437 243 442 q 156 341 208 388 q 35 286 104 294 q 28 286 31 286 l 28 286 m 19 449 q 39 444 28 446 q 57 444 50 442 q 71 457 67 448 q 73 473 75 466 q 71 476 73 474 q 66 478 70 477 q 56 477 63 479 q 19 449 35 469 l 19 449 m 45 592 q 33 600 38 592 q 33 610 31 604 q 39 618 35 615 l 90 643 q 100 643 94 645 q 108 637 105 642 q 108 626 110 631 q 102 618 106 621 l 52 593 q 45 592 49 592 l 45 592 z "},"ê":{"ha":229,"x_min":-47,"x_max":243,"o":"m 28 286 q -40 340 -28 287 q -22 435 -47 385 q 48 503 6 488 q 81 502 68 509 q 98 481 94 494 q 95 445 104 464 q 66 418 87 426 q 42 416 54 414 q 19 420 29 417 q 3 425 8 423 q -14 345 -19 382 q 33 313 -7 311 q 218 453 123 319 q 227 459 222 458 q 237 456 232 460 q 242 448 241 453 q 240 437 243 442 q 156 341 208 388 q 35 286 104 294 q 28 286 31 286 l 28 286 m 19 449 q 39 444 28 446 q 57 444 50 442 q 71 457 67 448 q 73 473 75 466 q 71 476 73 474 q 66 478 70 477 q 56 477 63 479 q 19 449 35 469 l 19 449 m 97 589 q 96 589 96 589 q 87 593 90 589 q 83 604 83 597 q 85 618 84 610 q 61 597 73 608 q 52 593 57 593 q 42 597 46 593 q 38 607 38 602 q 42 617 38 612 q 69 641 58 633 q 86 653 80 650 q 96 655 92 656 q 102 654 99 655 q 112 642 110 651 q 112 627 113 636 q 112 611 112 618 q 111 601 111 604 q 106 592 110 595 q 97 589 102 589 l 97 589 z "},"ë":{"ha":229,"x_min":-47,"x_max":243,"o":"m 28 286 q -40 340 -28 287 q -22 435 -47 385 q 48 503 6 488 q 81 502 68 509 q 98 481 94 494 q 95 445 104 464 q 66 418 87 426 q 42 416 54 414 q 19 420 29 417 q 3 425 8 423 q -14 345 -19 382 q 33 313 -7 311 q 218 453 123 319 q 227 459 222 458 q 237 456 232 460 q 242 448 241 453 q 240 437 243 442 q 156 341 208 388 q 35 286 104 294 q 28 286 31 286 l 28 286 m 19 449 q 39 444 28 446 q 57 444 50 442 q 71 457 67 448 q 73 473 75 466 q 71 476 73 474 q 66 478 70 477 q 56 477 63 479 q 19 449 35 469 l 19 449 m 48 576 l 48 576 l 48 576 q 35 582 41 576 q 30 595 30 587 q 35 608 30 603 q 48 614 41 614 q 62 608 56 614 q 67 595 67 603 q 62 582 67 587 q 48 576 56 576 m 101 576 l 101 576 l 101 576 q 87 581 93 576 q 82 595 82 587 q 87 608 82 602 q 101 613 93 613 q 114 608 109 613 q 119 595 119 602 q 114 581 119 587 q 101 576 109 576 z "},"ì":{"ha":175,"x_min":-54,"x_max":189,"o":"m -19 291 q -40 297 -31 291 q -53 320 -51 307 q -52 348 -54 334 q -47 368 -50 361 q 16 505 -32 418 q 24 511 19 509 q 35 510 30 513 q 41 502 39 507 q 40 491 43 496 q 17 449 27 469 q 0 414 7 430 q -12 387 -7 399 q -19 365 -16 374 q -24 348 -22 355 q -26 335 -26 340 q -26 327 -26 330 q -25 322 -26 324 q -24 320 -24 321 q -24 319 -24 319 q -23 318 -24 319 q -20 318 -22 318 q -15 318 -18 318 q -7 320 -12 319 q 4 325 -2 321 q 19 332 11 328 q 39 345 28 337 q 165 454 94 382 q 174 458 169 458 q 184 454 180 458 q 189 444 189 450 q 184 435 189 439 q 124 377 161 410 q 48 318 87 344 q -19 291 9 292 l -19 291 m 85 595 q 77 598 81 595 l 45 626 q 40 635 40 630 q 43 646 39 641 q 53 650 47 650 q 62 646 58 650 l 94 618 q 99 609 99 614 q 96 600 100 604 q 85 595 91 595 l 85 595 z "},"í":{"ha":175,"x_min":-54,"x_max":189,"o":"m -19 291 q -40 297 -31 291 q -53 320 -51 307 q -52 348 -54 334 q -47 368 -50 361 q 16 505 -32 418 q 24 511 19 509 q 35 510 30 513 q 41 502 39 507 q 40 491 43 496 q 17 449 27 469 q 0 414 7 430 q -12 387 -7 399 q -19 365 -16 374 q -24 348 -22 355 q -26 335 -26 340 q -26 327 -26 330 q -25 322 -26 324 q -24 320 -24 321 q -24 319 -24 319 q -23 318 -24 319 q -20 318 -22 318 q -15 318 -18 318 q -7 320 -12 319 q 4 325 -2 321 q 19 332 11 328 q 39 345 28 337 q 165 454 94 382 q 174 458 169 458 q 184 454 180 458 q 189 444 189 450 q 184 435 189 439 q 124 377 161 410 q 48 318 87 344 q -19 291 9 292 l -19 291 m 32 592 q 20 600 24 592 q 19 610 18 604 q 26 618 21 615 l 76 643 q 86 643 81 645 q 94 637 92 642 q 95 626 96 631 q 88 618 93 621 l 38 593 q 32 592 35 592 l 32 592 z "},"î":{"ha":175,"x_min":-54,"x_max":189,"o":"m -19 291 q -40 297 -31 291 q -53 320 -51 307 q -52 348 -54 334 q -47 368 -50 361 q 16 505 -32 418 q 24 511 19 509 q 35 510 30 513 q 41 502 39 507 q 40 491 43 496 q 17 449 27 469 q 0 414 7 430 q -12 387 -7 399 q -19 365 -16 374 q -24 348 -22 355 q -26 335 -26 340 q -26 327 -26 330 q -25 322 -26 324 q -24 320 -24 321 q -24 319 -24 319 q -23 318 -24 319 q -20 318 -22 318 q -15 318 -18 318 q -7 320 -12 319 q 4 325 -2 321 q 19 332 11 328 q 39 345 28 337 q 165 454 94 382 q 174 458 169 458 q 184 454 180 458 q 189 444 189 450 q 184 435 189 439 q 124 377 161 410 q 48 318 87 344 q -19 291 9 292 l -19 291 m 83 589 q 82 589 83 589 q 73 593 77 589 q 70 604 70 597 q 71 618 71 610 q 47 597 59 608 q 38 593 43 593 q 28 597 33 593 q 24 607 24 602 q 28 617 24 612 q 56 641 45 633 q 73 653 66 650 q 82 655 79 656 q 88 654 85 655 q 98 642 96 651 q 99 627 99 636 q 98 611 98 618 q 97 601 98 604 q 93 592 96 595 q 83 589 89 589 l 83 589 z "},"ï":{"ha":175,"x_min":-54,"x_max":189,"o":"m -19 291 q -40 297 -31 291 q -53 320 -51 307 q -52 348 -54 334 q -47 368 -50 361 q 16 505 -32 418 q 24 511 19 509 q 35 510 30 513 q 41 502 39 507 q 40 491 43 496 q 17 449 27 469 q 0 414 7 430 q -12 387 -7 399 q -19 365 -16 374 q -24 348 -22 355 q -26 335 -26 340 q -26 327 -26 330 q -25 322 -26 324 q -24 320 -24 321 q -24 319 -24 319 q -23 318 -24 319 q -20 318 -22 318 q -15 318 -18 318 q -7 320 -12 319 q 4 325 -2 321 q 19 332 11 328 q 39 345 28 337 q 165 454 94 382 q 174 458 169 458 q 184 454 180 458 q 189 444 189 450 q 184 435 189 439 q 124 377 161 410 q 48 318 87 344 q -19 291 9 292 l -19 291 m 35 583 l 35 583 l 35 583 q 22 589 27 583 q 16 602 16 594 q 22 615 16 610 q 35 621 27 621 q 48 615 43 621 q 54 602 54 610 q 48 589 54 594 q 35 583 43 583 m 87 583 l 87 583 l 87 583 q 74 588 79 583 q 68 602 68 593 q 74 614 68 609 q 87 620 79 620 q 100 614 95 620 q 106 602 106 609 q 100 588 106 593 q 87 583 95 583 z "},"ð":{"ha":282,"x_min":-86,"x_max":394,"o":"m 66 479 q 54 475 60 478 q -43 353 5 450 q -57 301 -56 324 q -52 275 -58 279 l -52 275 l -51 275 q -49 276 -50 275 q -41 281 -46 277 q 106 452 5 320 q 102 456 103 454 q 96 463 101 457 q 84 473 92 468 q 66 479 76 479 m 284 701 q 359 832 347 795 q 365 855 364 846 q 354 842 361 851 q 308 765 338 820 q 274 701 292 735 l 284 701 m 260 674 q 244 642 252 659 q 266 674 256 659 l 260 674 m 298 673 q 223 566 268 628 q 177 502 199 532 q 155 451 164 473 q 99 279 121 366 q 77 155 77 193 q 79 126 77 130 q 86 120 83 125 q 87 110 89 115 q 81 102 86 105 q 74 100 78 100 q 64 102 70 100 q 50 155 50 109 q 67 262 50 189 q 113 416 84 336 q -23 260 21 298 q -52 248 -41 247 q -69 254 -64 248 q -84 301 -86 269 q -67 365 -82 334 q -28 433 -58 388 q 42 500 1 477 q 91 500 70 511 q 122 473 113 489 q 153 515 138 494 q 230 675 188 592 l 159 676 q 150 680 153 676 q 146 690 146 684 q 150 700 146 696 q 159 703 154 703 l 243 701 q 251 715 247 708 q 332 859 304 819 q 344 872 336 864 q 361 886 351 881 q 380 886 370 890 q 392 867 391 880 q 390 842 393 854 q 385 823 387 829 q 342 741 376 798 q 316 700 332 724 l 380 699 q 390 694 387 699 q 394 685 394 690 q 390 675 393 680 q 380 671 386 671 l 380 671 l 298 673 z "},"ñ":{"ha":319,"x_min":-95,"x_max":333,"o":"m -81 241 q -87 242 -83 241 q -93 250 -92 245 q -93 260 -95 254 l 21 521 q 28 528 23 526 q 39 528 33 530 q 46 520 44 526 q 45 510 48 515 l -3 397 q 41 450 21 431 q 81 483 66 473 q 106 493 97 492 q 121 491 116 494 q 132 483 126 489 q 137 463 137 477 q 136 451 137 458 q 137 402 135 431 q 153 360 139 373 q 156 358 153 359 q 162 356 158 357 q 174 357 167 355 q 220 378 197 363 q 264 410 244 393 q 296 440 284 427 q 309 453 309 452 q 319 457 313 457 q 328 454 324 458 q 333 444 332 450 q 329 435 333 439 q 304 410 327 431 q 249 365 282 389 q 180 331 216 341 q 153 331 164 328 q 136 339 142 334 q 111 392 115 358 q 109 452 108 426 q 109 452 109 452 q 110 463 110 458 q 109 465 110 465 q 95 458 106 465 q 60 431 83 452 q 21 385 43 414 q -21 324 -1 355 q -55 271 -41 293 q -69 248 -68 249 q -81 241 -74 241 l -81 241 m 77 594 q 60 601 64 594 q 53 614 54 607 q 54 628 52 621 q 56 637 55 634 q 63 645 58 642 q 73 646 68 647 q 81 638 79 644 q 81 628 83 633 q 80 622 81 625 q 104 631 90 625 q 168 641 151 651 q 176 625 176 635 q 174 602 176 612 q 159 591 171 589 q 147 603 146 594 q 148 616 148 612 q 131 611 140 615 q 114 605 121 608 q 87 596 99 600 q 77 594 81 594 l 77 594 z "},"ò":{"ha":174,"x_min":-85,"x_max":187,"o":"m -36 251 q -67 261 -58 250 q -83 315 -85 280 q -66 385 -81 351 q -33 434 -52 416 q -1 459 -15 452 q 14 467 12 467 q 24 466 20 468 q 31 458 29 463 q 31 448 33 452 q 23 441 28 443 q 11 435 22 441 q -15 414 0 429 q -41 374 -29 399 q -56 316 -54 342 q -48 281 -57 290 q -36 278 -43 277 q -22 283 -28 279 q 46 370 26 309 q 40 471 62 427 l 38 475 q 37 486 35 481 q 43 494 39 491 q 53 495 48 496 q 62 488 58 493 q 64 485 62 487 q 78 466 67 478 q 113 446 88 454 q 165 452 137 437 q 175 454 170 455 q 184 448 180 453 q 186 438 187 443 q 180 429 184 433 q 115 417 142 408 q 79 431 87 426 q 73 362 83 397 q -9 259 50 290 q -36 251 -25 252 m 79 595 q 70 598 74 595 l 38 626 q 33 635 33 630 q 37 646 33 641 q 46 650 41 650 q 56 646 51 650 l 87 618 q 93 609 92 614 q 89 600 93 604 q 79 595 84 595 l 79 595 z "},"ó":{"ha":174,"x_min":-85,"x_max":187,"o":"m -36 251 q -67 261 -58 250 q -83 315 -85 280 q -66 385 -81 351 q -33 434 -52 416 q -1 459 -15 452 q 14 467 12 467 q 24 466 20 468 q 31 458 29 463 q 31 448 33 452 q 23 441 28 443 q 11 435 22 441 q -15 414 0 429 q -41 374 -29 399 q -56 316 -54 342 q -48 281 -57 290 q -36 278 -43 277 q -22 283 -28 279 q 46 370 26 309 q 40 471 62 427 l 38 475 q 37 486 35 481 q 43 494 39 491 q 53 495 48 496 q 62 488 58 493 q 64 485 62 487 q 78 466 67 478 q 113 446 88 454 q 165 452 137 437 q 175 454 170 455 q 184 448 180 453 q 186 438 187 443 q 180 429 184 433 q 115 417 142 408 q 79 431 87 426 q 73 362 83 397 q -9 259 50 290 q -36 251 -25 252 m 45 592 q 33 600 38 592 q 33 610 31 604 q 39 618 35 615 l 90 643 q 100 643 94 645 q 108 637 105 642 q 108 626 110 631 q 102 618 106 621 l 52 593 q 45 592 49 592 l 45 592 z "},"ô":{"ha":174,"x_min":-85,"x_max":187,"o":"m -36 251 q -67 261 -58 250 q -83 315 -85 280 q -66 385 -81 351 q -33 434 -52 416 q -1 459 -15 452 q 14 467 12 467 q 24 466 20 468 q 31 458 29 463 q 31 448 33 452 q 23 441 28 443 q 11 435 22 441 q -15 414 0 429 q -41 374 -29 399 q -56 316 -54 342 q -48 281 -57 290 q -36 278 -43 277 q -22 283 -28 279 q 46 370 26 309 q 40 471 62 427 l 38 475 q 37 486 35 481 q 43 494 39 491 q 53 495 48 496 q 62 488 58 493 q 64 485 62 487 q 78 466 67 478 q 113 446 88 454 q 165 452 137 437 q 175 454 170 455 q 184 448 180 453 q 186 438 187 443 q 180 429 184 433 q 115 417 142 408 q 79 431 87 426 q 73 362 83 397 q -9 259 50 290 q -36 251 -25 252 m 97 589 q 96 589 96 589 q 87 593 90 589 q 83 604 83 597 q 85 618 84 610 q 61 597 73 608 q 52 593 57 593 q 42 597 46 593 q 38 607 38 602 q 42 617 38 612 q 69 641 58 633 q 86 653 80 650 q 96 655 92 656 q 102 654 99 655 q 112 642 110 651 q 112 627 113 636 q 112 611 112 618 q 111 601 111 604 q 106 592 110 595 q 97 589 102 589 l 97 589 z "},"õ":{"ha":174,"x_min":-85,"x_max":187,"o":"m -36 251 q -67 261 -58 250 q -83 315 -85 280 q -66 385 -81 351 q -33 434 -52 416 q -1 459 -15 452 q 14 467 12 467 q 24 466 20 468 q 31 458 29 463 q 31 448 33 452 q 23 441 28 443 q 11 435 22 441 q -15 414 0 429 q -41 374 -29 399 q -56 316 -54 342 q -48 281 -57 290 q -36 278 -43 277 q -22 283 -28 279 q 46 370 26 309 q 40 471 62 427 l 38 475 q 37 486 35 481 q 43 494 39 491 q 53 495 48 496 q 62 488 58 493 q 64 485 62 487 q 78 466 67 478 q 113 446 88 454 q 165 452 137 437 q 175 454 170 455 q 184 448 180 453 q 186 438 187 443 q 180 429 184 433 q 115 417 142 408 q 79 431 87 426 q 73 362 83 397 q -9 259 50 290 q -36 251 -25 252 m 43 594 q 26 601 30 594 q 19 614 20 607 q 20 628 18 621 q 22 637 21 634 q 29 645 24 642 q 39 646 34 647 q 47 638 45 644 q 47 628 50 633 q 46 622 47 625 q 70 631 56 625 q 134 641 117 651 q 142 625 142 635 q 140 602 142 612 q 125 591 137 589 q 113 603 113 594 q 114 616 114 612 q 97 611 106 615 q 80 605 87 608 q 54 596 65 600 q 43 594 47 594 l 43 594 z "},"ö":{"ha":174,"x_min":-85,"x_max":187,"o":"m -36 251 q -67 261 -58 250 q -83 315 -85 280 q -66 385 -81 351 q -33 434 -52 416 q -1 459 -15 452 q 14 467 12 467 q 24 466 20 468 q 31 458 29 463 q 31 448 33 452 q 23 441 28 443 q 11 435 22 441 q -15 414 0 429 q -41 374 -29 399 q -56 316 -54 342 q -48 281 -57 290 q -36 278 -43 277 q -22 283 -28 279 q 46 370 26 309 q 40 471 62 427 l 38 475 q 37 486 35 481 q 43 494 39 491 q 53 495 48 496 q 62 488 58 493 q 64 485 62 487 q 78 466 67 478 q 113 446 88 454 q 165 452 137 437 q 175 454 170 455 q 184 448 180 453 q 186 438 187 443 q 180 429 184 433 q 115 417 142 408 q 79 431 87 426 q 73 362 83 397 q -9 259 50 290 q -36 251 -25 252 m 41 583 l 41 583 l 41 583 q 28 589 34 583 q 23 602 23 594 q 28 615 23 610 q 41 621 34 621 q 55 615 50 621 q 60 602 60 610 q 55 589 60 594 q 41 583 50 583 m 94 583 l 94 583 l 94 583 q 81 588 86 583 q 75 602 75 593 q 81 614 75 609 q 94 620 86 620 q 107 614 102 620 q 113 602 113 609 q 107 588 113 593 q 94 583 102 583 z "},"÷":{"ha":296,"x_min":0,"x_max":248,"o":"m 235 378 q 235 378 235 378 q 235 378 235 378 l 14 382 q 4 387 7 382 q 0 396 0 391 q 4 406 0 402 q 14 410 8 410 l 235 406 q 244 401 241 405 q 248 391 248 397 q 244 382 248 386 q 235 378 240 378 l 235 378 m 155 479 q 150 466 155 471 q 136 460 144 460 q 122 466 128 460 q 117 479 117 471 q 122 493 117 488 q 136 499 128 499 q 150 493 144 499 q 155 479 155 488 l 155 479 m 141 310 q 135 296 141 302 q 121 290 130 290 q 107 296 113 290 q 102 310 102 302 q 107 324 102 318 q 121 330 113 330 q 135 324 130 330 q 141 310 141 318 l 141 310 z "},"ø":{"ha":174,"x_min":-100,"x_max":187,"o":"m -36 251 l -36 251 q -9 259 -25 252 q 73 362 50 290 q 79 431 83 397 q 115 417 87 426 q 180 429 142 408 q 186 438 184 433 q 184 448 187 443 q 175 454 180 453 q 165 452 170 455 q 113 446 137 437 q 78 466 88 454 q 64 485 67 478 q 62 488 62 487 q 53 495 58 493 q 43 494 48 496 q 37 486 39 491 q 38 475 35 481 q 40 471 38 475 q 46 370 62 427 q -22 283 26 309 q -36 278 -28 279 q -48 281 -43 277 q -56 316 -57 290 q -41 374 -54 342 q -15 414 -29 399 q 11 435 0 429 q 23 441 22 441 q 31 448 28 443 q 31 458 33 452 q 24 466 29 463 q 14 467 20 468 q -1 459 12 467 q -33 434 -15 452 q -66 385 -52 416 q -83 315 -81 351 q -67 261 -85 280 q -36 251 -58 250 m -84 230 l -84 230 q -75 236 -79 231 l 97 492 q 99 503 100 497 q 94 511 98 508 q 83 513 89 514 q 75 507 78 512 l -97 251 q -99 241 -100 246 q -93 233 -98 236 q -84 230 -89 230 z "},"ù":{"ha":303,"x_min":-54,"x_max":318,"o":"m -24 288 q -28 288 -26 288 q -47 303 -41 290 q -44 366 -54 329 q -21 434 -35 403 q -3 473 -7 465 q 5 479 0 477 q 16 478 10 481 q 22 470 20 475 q 21 460 24 465 q -11 384 4 427 q -22 315 -26 340 q 1 330 -17 316 q 58 385 20 345 q 104 439 85 415 q 127 469 124 464 q 145 494 144 493 q 153 498 149 497 q 163 496 158 498 q 168 488 167 493 q 168 479 170 484 q 145 408 153 448 q 153 352 137 369 q 211 375 169 343 q 294 453 252 406 q 303 458 298 458 q 313 454 309 458 q 318 446 317 451 q 314 435 318 440 q 294 414 313 433 q 248 370 275 394 q 136 331 170 302 q 117 367 120 345 q 118 414 114 389 q 77 366 99 391 q 8 302 31 317 q -24 288 -14 288 l -24 288 m 106 595 q 97 598 101 595 l 65 626 q 60 635 60 630 q 64 646 60 641 q 73 650 68 650 q 83 646 78 650 l 115 618 q 120 609 119 614 q 116 600 120 604 q 106 595 111 595 l 106 595 z "},"ú":{"ha":303,"x_min":-54,"x_max":318,"o":"m -24 288 q -28 288 -26 288 q -47 303 -41 290 q -44 366 -54 329 q -21 434 -35 403 q -3 473 -7 465 q 5 479 0 477 q 16 478 10 481 q 22 470 20 475 q 21 460 24 465 q -11 384 4 427 q -22 315 -26 340 q 1 330 -17 316 q 58 385 20 345 q 104 439 85 415 q 127 469 124 464 q 145 494 144 493 q 153 498 149 497 q 163 496 158 498 q 168 488 167 493 q 168 479 170 484 q 145 408 153 448 q 153 352 137 369 q 211 375 169 343 q 294 453 252 406 q 303 458 298 458 q 313 454 309 458 q 318 446 317 451 q 314 435 318 440 q 294 414 313 433 q 248 370 275 394 q 136 331 170 302 q 117 367 120 345 q 118 414 114 389 q 77 366 99 391 q 8 302 31 317 q -24 288 -14 288 l -24 288 m 79 592 q 67 600 72 592 q 67 610 65 604 q 73 618 68 615 l 123 643 q 134 643 128 645 q 142 637 139 642 q 142 626 144 631 q 136 618 140 621 l 85 593 q 79 592 83 592 l 79 592 z "},"û":{"ha":303,"x_min":-54,"x_max":318,"o":"m -24 288 q -28 288 -26 288 q -47 303 -41 290 q -44 366 -54 329 q -21 434 -35 403 q -3 473 -7 465 q 5 479 0 477 q 16 478 10 481 q 22 470 20 475 q 21 460 24 465 q -11 384 4 427 q -22 315 -26 340 q 1 330 -17 316 q 58 385 20 345 q 104 439 85 415 q 127 469 124 464 q 145 494 144 493 q 153 498 149 497 q 163 496 158 498 q 168 488 167 493 q 168 479 170 484 q 145 408 153 448 q 153 352 137 369 q 211 375 169 343 q 294 453 252 406 q 303 458 298 458 q 313 454 309 458 q 318 446 317 451 q 314 435 318 440 q 294 414 313 433 q 248 370 275 394 q 136 331 170 302 q 117 367 120 345 q 118 414 114 389 q 77 366 99 391 q 8 302 31 317 q -24 288 -14 288 l -24 288 m 124 589 q 123 589 123 589 q 114 593 117 589 q 111 604 111 597 q 112 618 111 610 q 88 597 100 608 q 79 593 84 593 q 69 597 73 593 q 65 607 65 602 q 69 617 65 612 q 96 641 85 633 q 113 653 107 650 q 123 655 119 656 q 129 654 126 655 q 139 642 137 651 q 139 627 140 636 q 139 611 139 618 q 138 601 138 604 q 133 592 137 595 q 124 589 130 589 l 124 589 z "},"ü":{"ha":303,"x_min":-54,"x_max":318,"o":"m -24 288 q -28 288 -26 288 q -47 303 -41 290 q -44 366 -54 329 q -21 434 -35 403 q -3 473 -7 465 q 5 479 0 477 q 16 478 10 481 q 22 470 20 475 q 21 460 24 465 q -11 384 4 427 q -22 315 -26 340 q 1 330 -17 316 q 58 385 20 345 q 104 439 85 415 q 127 469 124 464 q 145 494 144 493 q 153 498 149 497 q 163 496 158 498 q 168 488 167 493 q 168 479 170 484 q 145 408 153 448 q 153 352 137 369 q 211 375 169 343 q 294 453 252 406 q 303 458 298 458 q 313 454 309 458 q 318 446 317 451 q 314 435 318 440 q 294 414 313 433 q 248 370 275 394 q 136 331 170 302 q 117 367 120 345 q 118 414 114 389 q 77 366 99 391 q 8 302 31 317 q -24 288 -14 288 l -24 288 m 82 583 l 82 583 l 82 583 q 69 589 75 583 q 64 602 64 594 q 69 615 64 610 q 82 621 75 621 q 96 615 90 621 q 101 602 101 610 q 96 589 101 594 q 82 583 90 583 m 135 583 l 135 583 l 135 583 q 121 588 127 583 q 116 602 116 593 q 121 614 116 609 q 135 620 127 620 q 148 614 142 620 q 153 602 153 609 q 148 588 153 593 q 135 583 142 583 z "},"ý":{"ha":266,"x_min":-203,"x_max":281,"o":"m -149 -112 q -155 -112 -152 -112 q -192 -79 -181 -107 q -189 4 -203 -47 q -126 111 -175 55 q 92 323 -21 229 q 111 366 101 345 q 58 311 85 335 q 3 279 30 286 q -23 279 -14 275 q -37 289 -33 283 q -47 321 -45 296 q -33 401 -50 345 q -14 454 -22 432 q -3 477 -5 475 q 4 485 -1 483 q 14 484 9 487 q 22 477 20 482 q 21 467 24 472 q 12 444 20 465 q -6 393 3 422 q -17 351 -14 368 q -20 325 -20 334 q -19 311 -20 315 q -16 307 -18 307 q -4 305 -14 303 q 61 352 27 315 q 124 431 96 389 q 167 500 153 473 q 175 506 170 505 q 185 505 180 508 q 192 498 190 503 q 191 488 193 493 q 175 449 189 483 q 138 361 161 414 q 224 430 191 405 q 258 456 257 454 q 269 458 263 459 q 277 452 274 457 q 280 443 281 448 q 275 434 279 437 q 227 398 272 432 q 114 307 182 363 q 19 100 68 202 q -64 -51 -31 -3 q -113 -99 -92 -87 q -149 -112 -134 -112 l -149 -112 m 65 264 q -106 94 -24 185 q -163 -4 -151 40 q -166 -69 -175 -48 q -151 -85 -161 -83 q -140 -83 -148 -85 q -118 -70 -132 -81 q -86 -35 -104 -59 q -17 87 -58 4 q 65 264 24 171 l 65 264 m 93 592 q 81 600 85 592 q 80 610 79 604 q 87 618 82 615 l 137 643 q 147 643 142 645 q 155 637 153 642 q 156 626 157 631 q 149 618 154 621 l 99 593 q 93 592 96 592 l 93 592 z "},"þ":{"ha":264,"x_min":-183,"x_max":161,"o":"m -168 55 q -174 56 -171 55 q -181 63 -179 58 q -181 74 -183 68 q -171 98 -177 82 q -170 99 -171 98 q -92 277 -134 189 l 52 604 q 59 611 54 609 q 70 611 64 613 q 77 603 75 608 q 77 593 79 598 l 19 460 q 90 512 56 505 q 115 510 101 514 q 143 491 129 507 q 160 436 159 473 q 136 361 161 399 q 83 314 117 335 q 12 289 50 293 q -47 305 -23 286 q -67 266 -57 286 l -156 63 q -168 55 -161 55 l -168 55 m -34 330 q -33 330 -33 330 q 10 315 -17 313 q 69 337 40 319 q 113 376 98 355 q 133 436 135 409 q 123 473 132 464 q 107 484 115 482 q 95 485 100 486 q 46 451 78 484 q -34 330 15 418 l -34 330 z "},"ÿ":{"ha":266,"x_min":-203,"x_max":281,"o":"m -149 -112 q -155 -112 -152 -112 q -192 -79 -181 -107 q -189 4 -203 -47 q -126 111 -175 55 q 92 323 -21 229 q 111 366 101 345 q 58 311 85 335 q 3 279 30 286 q -23 279 -14 275 q -37 289 -33 283 q -47 321 -45 296 q -33 401 -50 345 q -14 454 -22 432 q -3 477 -5 475 q 4 485 -1 483 q 14 484 9 487 q 22 477 20 482 q 21 467 24 472 q 12 444 20 465 q -6 393 3 422 q -17 351 -14 368 q -20 325 -20 334 q -19 311 -20 315 q -16 307 -18 307 q -4 305 -14 303 q 61 352 27 315 q 124 431 96 389 q 167 500 153 473 q 175 506 170 505 q 185 505 180 508 q 192 498 190 503 q 191 488 193 493 q 175 449 189 483 q 138 361 161 414 q 224 430 191 405 q 258 456 257 454 q 269 458 263 459 q 277 452 274 457 q 280 443 281 448 q 275 434 279 437 q 227 398 272 432 q 114 307 182 363 q 19 100 68 202 q -64 -51 -31 -3 q -113 -99 -92 -87 q -149 -112 -134 -112 l -149 -112 m 65 264 q -106 94 -24 185 q -163 -4 -151 40 q -166 -69 -175 -48 q -151 -85 -161 -83 q -140 -83 -148 -85 q -118 -70 -132 -81 q -86 -35 -104 -59 q -17 87 -58 4 q 65 264 24 171 l 65 264 m 82 583 l 82 583 l 82 583 q 69 589 75 583 q 64 602 64 594 q 69 615 64 610 q 82 621 75 621 q 96 615 90 621 q 101 602 101 610 q 96 589 101 594 q 82 583 90 583 m 135 583 l 135 583 l 135 583 q 121 588 127 583 q 116 602 116 593 q 121 614 116 609 q 135 620 127 620 q 148 614 142 620 q 153 602 153 609 q 148 588 153 593 q 135 583 142 583 z "},"ı":{"ha":349,"x_min":13,"x_max":321,"o":"m 222 151 q 290 34 222 34 l 321 34 l 321 0 l 22 0 l 22 34 l 53 34 q 121 151 121 34 l 121 444 q 45 496 121 496 l 13 496 l 13 526 q 190 650 163 573 l 222 650 l 222 151 z "},"ˆ":{"ha":694,"x_min":150,"x_max":545,"o":"m 150 732 l 307 972 l 387 972 l 545 732 l 505 732 l 347 878 l 189 732 l 150 732 z "},"ˇ":{"ha":694,"x_min":150,"x_max":545,"o":"m 150 972 l 189 972 l 347 827 l 505 972 l 545 972 l 387 731 l 307 731 l 150 972 z "},"ˉ":{"ha":694,"x_min":172,"x_max":522,"o":"m 172 810 l 172 895 l 522 895 l 522 810 l 172 810 z "},"˘":{"ha":694,"x_min":149,"x_max":545,"o":"m 149 915 l 183 915 q 234 842 195 865 q 347 819 273 819 q 460 842 421 819 q 510 915 498 865 l 545 915 q 481 778 531 825 q 347 732 431 732 q 214 779 264 732 q 149 915 163 825 z "},"˙":{"ha":694,"x_min":277,"x_max":422,"o":"m 286 874 l 333 923 q 342 929 337 927 q 351 931 347 931 q 360 929 355 931 q 368 923 364 927 l 416 871 q 421 865 420 869 q 422 855 422 861 q 420 845 422 849 q 415 837 419 841 l 367 785 q 356 776 359 778 q 351 774 353 774 q 340 776 345 774 q 333 782 336 778 l 282 841 q 278 847 279 844 q 277 857 277 851 q 279 865 277 861 q 286 874 281 869 z "},"˚":{"ha":694,"x_min":227,"x_max":468,"o":"m 279 852 q 298 804 279 824 q 347 785 318 785 q 395 804 375 785 q 414 852 414 824 q 394 900 414 880 q 347 920 374 920 q 299 900 319 920 q 279 852 279 880 m 227 852 q 262 938 227 903 q 347 972 296 972 q 433 938 398 972 q 468 852 468 903 q 433 767 468 802 q 347 732 398 732 q 262 767 296 732 q 227 852 227 802 z "},"˛":{"ha":694,"x_min":250,"x_max":500,"o":"m 434 0 q 359 -81 386 -42 q 332 -157 332 -120 q 351 -208 332 -189 q 400 -227 369 -227 q 447 -217 427 -227 q 481 -184 467 -206 l 500 -195 q 438 -260 475 -237 q 357 -283 401 -283 q 280 -259 310 -283 q 250 -198 250 -235 q 291 -92 250 -146 q 401 0 332 -37 l 434 0 z "},"˜":{"ha":694,"x_min":159,"x_max":548,"o":"m 548 937 q 502 833 534 867 q 416 798 469 798 l 413 798 q 336 814 379 798 q 259 830 292 830 q 218 816 233 830 q 195 768 203 802 l 159 768 q 205 875 172 840 q 292 911 238 911 q 369 895 323 910 q 445 879 412 879 l 448 879 q 487 892 472 879 q 511 937 502 906 l 548 937 z "},"˝":{"ha":694,"x_min":147,"x_max":547,"o":"m 147 732 l 245 917 q 276 960 261 947 q 307 972 290 972 q 340 959 326 972 q 353 927 353 945 q 346 903 353 916 q 326 876 339 890 l 186 732 l 147 732 m 340 732 l 438 917 q 469 960 454 947 q 500 972 484 972 q 533 959 519 972 q 547 927 547 945 q 539 903 547 916 q 519 876 532 890 l 380 732 l 340 732 z "},"–":{"ha":751,"x_min":38,"x_max":713,"o":"m 38 284 l 38 366 l 713 366 l 713 284 l 38 284 z "},"—":{"ha":1389,"x_min":0,"x_max":1389,"o":"m 0 284 l 0 366 l 1389 366 l 1389 284 l 0 284 z "},"‘":{"ha":96,"x_min":1,"x_max":49,"o":"m 35 815 q 46 808 41 815 q 47 798 49 803 q 41 789 46 793 q 31 777 34 785 q 28 759 28 768 q 29 747 28 751 q 30 737 31 742 q 24 729 29 732 q 14 727 20 726 q 5 733 9 728 q 1 754 1 741 q 4 779 1 768 q 28 814 10 804 q 35 815 31 815 l 35 815 z "},"’":{"ha":96,"x_min":0,"x_max":48,"o":"m 14 727 q 3 734 7 727 q 2 744 0 739 q 8 752 3 749 q 18 765 15 756 q 21 783 20 774 q 20 795 21 791 q 19 805 18 800 q 24 813 20 810 q 35 815 29 816 q 43 809 40 814 q 48 788 47 802 q 45 763 48 774 q 21 728 39 738 q 14 727 18 727 l 14 727 z "},"‚":{"ha":378,"x_min":81,"x_max":252,"o":"m 161 191 q 221 146 191 191 q 252 43 252 102 q 203 -110 252 -31 q 109 -190 155 -190 l 109 -161 q 168 -32 159 -132 q 81 77 168 49 l 81 106 l 161 191 z "},"“":{"ha":150,"x_min":1,"x_max":103,"o":"m 89 815 q 100 808 96 815 q 102 798 103 803 q 95 789 100 793 q 85 777 88 785 q 82 759 83 768 q 83 747 82 751 q 84 737 85 742 q 79 729 83 732 q 68 727 74 726 q 60 733 63 728 q 55 754 56 741 q 58 779 55 768 q 82 814 64 804 q 89 815 85 815 l 89 815 m 35 815 q 46 808 41 815 q 47 798 49 803 q 41 789 46 793 q 31 777 34 785 q 28 759 28 768 q 29 747 28 751 q 30 737 31 742 q 24 729 29 732 q 14 727 20 726 q 5 733 9 728 q 1 754 1 741 q 4 779 1 768 q 28 814 10 804 q 35 815 31 815 l 35 815 z "},"”":{"ha":150,"x_min":0,"x_max":102,"o":"m 14 727 q 3 734 7 727 q 2 744 0 739 q 8 752 3 749 q 18 765 15 756 q 21 783 20 774 q 20 795 21 791 q 19 805 18 800 q 24 813 20 810 q 35 815 29 816 q 43 809 40 814 q 48 788 47 802 q 45 763 48 774 q 21 728 39 738 q 14 727 18 727 l 14 727 m 68 727 q 57 734 62 727 q 56 744 54 739 q 62 752 58 749 q 72 765 69 756 q 75 783 75 774 q 74 795 75 791 q 73 805 72 800 q 79 813 74 810 q 89 815 83 816 q 98 809 94 814 q 102 788 102 802 q 100 763 102 774 q 75 728 93 738 q 68 727 72 727 l 68 727 z "},"„":{"ha":617,"x_min":81,"x_max":491,"o":"m 161 191 q 221 146 191 191 q 252 43 252 102 q 203 -110 252 -31 q 109 -190 155 -190 l 109 -161 q 168 -32 159 -132 q 81 77 168 49 l 81 106 l 161 191 m 401 191 q 461 146 431 191 q 491 43 491 102 q 443 -110 491 -31 q 349 -190 395 -190 l 349 -161 q 408 -32 398 -132 q 320 77 408 49 l 320 106 l 401 191 z "},"†":{"ha":688,"x_min":48,"x_max":640,"o":"m 330 693 q 293 814 324 759 q 254 901 254 882 q 279 955 254 935 q 344 975 303 975 q 408 956 382 975 q 433 907 433 937 q 396 814 433 886 q 359 693 365 757 q 479 730 424 699 q 566 768 547 768 q 620 744 600 768 q 640 679 640 720 q 622 615 640 640 q 572 589 603 589 q 480 627 551 589 q 359 665 422 658 q 433 477 364 546 q 357 -183 361 165 l 332 -183 q 254 477 328 165 q 330 665 323 546 q 209 628 264 659 q 121 589 140 589 q 68 614 88 589 q 48 679 48 638 q 67 743 48 718 q 115 768 85 768 q 208 730 137 768 q 330 693 266 699 z "},"‡":{"ha":688,"x_min":47,"x_max":640,"o":"m 358 126 q 479 165 422 134 q 572 202 550 202 q 621 177 602 202 q 640 113 640 151 q 619 47 640 72 q 566 23 599 23 q 478 62 547 23 q 358 98 423 93 q 395 -23 364 35 q 433 -116 433 -94 q 407 -164 433 -146 q 343 -183 382 -183 q 278 -163 302 -183 q 254 -110 254 -143 q 292 -22 254 -91 q 329 98 323 33 q 208 61 265 92 q 115 23 136 23 q 66 48 85 23 q 47 113 47 74 q 67 178 47 153 q 121 202 87 202 q 208 163 140 202 q 329 126 264 133 q 254 396 323 279 q 329 665 323 512 q 208 628 264 659 q 121 589 140 589 q 67 614 87 589 q 47 679 47 638 q 66 743 47 718 q 115 768 85 768 q 208 730 136 768 q 329 693 265 699 q 292 814 323 759 q 254 901 254 882 q 278 955 254 935 q 343 975 302 975 q 407 956 382 975 q 433 907 433 937 q 395 814 433 886 q 358 693 364 757 q 478 730 423 699 q 566 768 547 768 q 619 744 599 768 q 640 679 640 720 q 621 615 640 640 q 572 589 602 589 q 479 627 550 589 q 358 665 422 658 q 433 396 363 512 q 358 126 363 279 z "},"•":{"ha":694,"x_min":146,"x_max":548,"o":"m 146 487 q 205 629 146 570 q 348 687 264 687 q 489 628 431 687 q 548 487 548 570 q 489 345 548 404 q 347 286 429 286 q 205 345 263 286 q 146 487 146 404 z "},"…":{"ha":1389,"x_min":87,"x_max":1183,"o":"m 98 113 l 154 170 q 174 180 164 180 q 195 169 182 180 l 249 111 q 257 91 257 100 q 248 70 257 81 l 193 10 q 174 -3 180 -3 q 154 6 163 -3 l 94 75 q 87 92 87 83 q 98 113 87 102 m 562 113 l 617 170 q 637 180 627 180 q 658 169 646 180 l 712 111 q 720 91 720 100 q 711 70 720 81 l 656 10 q 637 -3 643 -3 q 617 6 626 -3 l 557 75 q 551 92 551 83 q 562 113 551 102 m 1025 113 l 1080 170 q 1100 180 1090 180 q 1121 169 1109 180 l 1175 111 q 1183 91 1183 100 q 1174 70 1183 81 l 1120 10 q 1100 -3 1106 -3 q 1080 6 1089 -3 l 1021 75 q 1014 92 1014 83 q 1025 113 1014 102 z "},"‹":{"ha":428,"x_min":118,"x_max":359,"o":"m 118 325 l 350 530 l 359 530 l 359 505 l 220 325 l 359 144 l 359 119 l 350 119 l 118 325 z "},"›":{"ha":428,"x_min":68,"x_max":310,"o":"m 78 119 l 68 119 l 68 144 l 208 325 l 68 505 l 68 530 l 78 530 l 310 325 l 78 119 z "},"⁄":{"ha":232,"x_min":-232,"x_max":463,"o":"m -232 -20 l 406 971 l 463 971 l -174 -20 l -232 -20 z "},"∕":{"ha":232,"x_min":-232,"x_max":463,"o":"m -232 -20 l 406 971 l 463 971 l -174 -20 l -232 -20 z "},"₣":{"ha":688,"x_min":33,"x_max":723,"o":"m 168 242 l 36 242 l 36 283 l 168 283 l 168 779 q 98 939 168 939 l 33 939 l 33 972 l 653 972 l 723 816 l 690 816 q 561 939 650 939 l 347 939 q 277 779 277 939 l 277 541 l 522 541 q 590 583 590 541 l 590 623 l 624 623 l 624 391 l 590 391 l 590 431 q 522 473 590 473 l 277 473 l 277 283 l 409 283 l 409 242 l 277 242 l 277 193 q 347 34 277 34 l 412 34 l 412 0 l 33 0 l 33 34 l 98 34 q 168 193 168 34 l 168 242 z "},"₤":{"ha":404,"x_min":0,"x_max":357,"o":"m 167 517 q 182 568 174 542 q 247 732 215 677 q 307 779 274 776 q 330 775 320 779 q 346 766 340 771 q 353 760 352 762 q 356 751 357 756 q 352 741 356 745 q 342 738 347 738 q 333 742 336 738 q 329 745 332 743 q 321 750 326 747 q 309 751 315 752 q 270 718 290 749 q 208 559 240 666 q 195 518 201 538 l 309 520 q 319 516 315 520 q 323 507 323 513 q 319 497 323 501 q 310 493 315 493 l 187 491 q 153 369 168 424 q 150 356 152 362 l 253 357 q 262 354 258 357 q 267 345 267 350 q 263 335 267 338 q 253 330 259 331 l 142 329 q 111 235 130 281 q 62 159 90 184 q 117 146 85 157 q 167 141 140 140 q 219 146 194 142 q 261 156 244 151 q 278 161 277 161 q 289 160 283 163 q 295 152 294 157 q 295 142 297 146 q 287 135 292 137 q 266 129 284 134 q 219 119 247 124 q 161 114 191 114 q 109 121 134 114 q 42 134 66 134 q 18 132 18 134 l 15 132 q 6 135 10 132 q 1 142 3 138 q 4 154 0 150 q 12 160 7 158 q 38 176 20 165 q 114 329 77 200 l 56 328 l 56 328 q 46 332 50 328 q 42 342 43 336 q 46 352 43 348 q 56 355 50 355 l 122 356 l 127 376 q 159 490 141 428 l 95 489 q 85 493 90 489 q 81 502 81 496 q 85 512 81 508 q 95 516 89 515 l 167 517 z "},"₧":{"ha":1375,"x_min":33,"x_max":1334,"o":"m 277 939 l 277 490 q 282 478 279 484 q 355 374 310 409 q 434 345 394 345 q 447 345 441 345 q 533 396 493 351 q 592 516 573 441 q 607 637 607 575 q 606 669 607 654 q 573 818 602 748 q 499 916 544 887 q 423 939 461 939 q 409 939 416 939 l 277 939 m 1015 616 l 893 616 l 893 151 q 916 71 893 96 q 971 45 935 50 l 923 176 l 956 176 q 1034 58 994 88 q 1120 28 1072 28 l 1124 28 q 1227 64 1187 28 q 1267 156 1267 100 q 1091 309 1267 225 q 994 385 1023 345 q 964 484 964 426 q 1014 615 964 566 l 1015 616 m 705 617 q 672 486 700 549 q 576 365 638 408 q 448 322 515 322 q 318 366 380 322 q 277 400 296 380 l 277 193 q 347 34 277 34 l 412 34 l 412 0 l 33 0 l 33 34 l 98 34 q 168 193 168 34 l 168 779 q 98 939 168 939 l 33 939 l 33 972 l 452 972 q 574 930 514 971 q 671 810 636 888 q 706 650 705 734 l 713 650 q 859 890 859 650 l 893 890 l 893 650 l 1069 650 q 1143 663 1097 663 l 1145 663 q 1235 654 1181 663 q 1289 631 1289 645 l 1289 524 l 1261 524 q 1216 597 1258 568 q 1126 625 1175 625 q 1056 601 1082 625 q 1030 535 1030 576 q 1190 386 1030 462 q 1303 306 1272 349 q 1334 202 1334 264 q 1278 45 1334 107 q 1123 -13 1208 -12 q 1052 -5 1084 -13 q 1014 -1 1033 -1 q 989 -3 1002 -1 q 949 -7 970 -7 q 832 32 865 -7 q 793 151 798 71 l 792 151 l 792 617 l 705 617 z "},"€":{"ha":456,"x_min":0,"x_max":409,"o":"m 163 114 l 163 114 q 290 172 215 114 q 296 181 295 176 q 293 191 296 186 q 284 197 290 196 q 274 194 279 197 q 201 150 239 167 q 135 150 163 133 q 92 350 80 193 q 125 514 100 431 q 192 662 151 597 q 283 751 233 726 q 322 758 304 760 q 354 749 340 756 q 376 735 368 742 q 385 726 384 728 q 395 722 389 722 q 404 726 400 722 q 409 735 408 730 q 405 745 409 741 q 393 755 404 747 q 364 774 382 764 q 322 786 346 783 q 272 776 299 788 q 171 679 214 747 q 100 524 127 610 q 65 352 73 437 q 119 127 52 179 q 163 114 138 114 m 241 518 l 241 518 q 251 522 247 518 q 254 532 254 526 q 251 541 254 537 q 241 545 247 545 l 48 548 q 39 544 43 547 q 35 534 35 540 q 38 525 35 528 q 48 521 42 521 l 241 518 q 241 518 241 518 m 14 360 l 14 360 q 14 360 14 360 l 213 364 q 223 369 219 365 q 227 378 227 372 q 222 388 226 384 q 213 391 218 391 q 212 391 213 391 l 14 387 q 4 383 7 387 q 0 373 0 379 q 4 364 0 368 q 14 360 8 360 z "},"№":{"ha":1540,"x_min":0,"x_max":0,"o":""},"™":{"ha":1015,"x_min":0,"x_max":0,"o":""},"∂":{"ha":688,"x_min":52,"x_max":635,"o":"m 157 364 q 161 311 157 336 q 202 155 170 228 q 283 43 235 81 q 370 7 326 7 q 378 7 374 7 q 465 55 426 11 q 519 177 504 100 q 530 278 530 227 q 527 336 530 307 q 485 493 517 418 q 404 605 452 567 q 317 639 359 639 l 309 639 q 224 592 263 635 q 168 471 184 548 q 157 364 157 414 m 635 323 q 597 153 635 234 q 489 28 559 73 q 344 -17 420 -17 q 198 28 268 -17 q 91 153 129 73 q 52 323 52 234 q 92 494 52 412 q 201 619 131 575 q 344 663 271 663 q 488 619 418 663 q 524 591 507 607 q 366 847 467 751 q 144 952 264 943 l 144 989 q 494 796 352 989 q 635 323 635 603 z "},"∆":{"ha":733,"x_min":4,"x_max":728,"o":"m 349 810 l 73 83 l 616 83 l 349 810 m 371 972 l 728 0 l 4 0 l 371 972 z "},"∏":{"ha":1027,"x_min":33,"x_max":995,"o":"m 347 939 q 277 779 277 939 l 277 -90 q 347 -249 277 -249 l 412 -249 l 412 -283 l 33 -283 l 33 -249 l 98 -249 q 168 -90 168 -249 l 168 779 q 98 939 168 939 l 33 939 l 33 972 l 995 972 l 995 939 l 929 939 q 860 779 860 939 l 860 -90 q 929 -249 860 -249 l 995 -249 l 995 -283 l 615 -283 l 615 -249 l 680 -249 q 750 -90 750 -249 l 750 779 q 680 939 750 939 l 347 939 z "},"∑":{"ha":818,"x_min":81,"x_max":776,"o":"m 718 372 l 184 -248 l 614 -248 q 743 -125 703 -248 l 776 -125 l 706 -282 l 81 -282 l 81 -248 q 153 -212 123 -248 l 603 317 l 153 900 q 81 939 123 939 l 81 972 l 706 972 l 776 815 l 743 815 q 614 939 703 939 l 286 939 l 718 372 z "},"−":{"ha":688,"x_min":59,"x_max":629,"o":"m 59 439 l 59 534 l 628 534 l 629 533 l 629 439 l 59 439 z "},"√":{"ha":688,"x_min":12,"x_max":715,"o":"m 123 0 l 12 243 l 62 267 l 119 142 l 613 1139 l 715 1139 l 715 1098 l 666 1098 l 123 0 z "},"∞":{"ha":688,"x_min":45,"x_max":645,"o":"m 298 512 q 248 602 288 582 q 191 617 216 617 q 175 616 182 617 q 112 586 142 609 q 68 528 83 562 q 54 467 54 497 l 54 462 q 73 401 56 429 q 121 362 90 374 q 163 355 141 355 q 185 357 174 355 q 247 386 217 363 q 298 512 276 409 m 316 466 q 380 362 324 401 q 463 330 427 330 q 477 331 471 330 q 557 366 519 339 q 614 435 595 393 q 632 508 632 471 l 632 515 q 608 589 631 556 q 546 635 585 622 q 494 644 521 644 q 465 642 479 644 q 378 600 419 635 q 316 466 338 564 m 305 561 q 319 608 311 585 q 384 701 342 667 q 471 734 425 734 q 557 701 516 734 q 622 610 599 669 q 645 486 645 551 q 622 363 645 422 q 557 271 599 304 q 471 239 516 239 q 384 272 425 239 q 319 364 342 305 q 305 412 311 388 q 297 384 302 397 q 247 307 279 334 q 180 280 215 280 q 112 308 144 280 q 62 385 79 336 q 45 486 45 434 q 62 587 45 538 q 112 665 79 637 q 180 692 144 692 q 247 665 215 692 q 297 589 279 638 q 305 561 302 575 z "},"∫":{"ha":451,"x_min":-49,"x_max":492,"o":"m -8 -191 q -49 -171 -49 -191 l -49 -63 l -24 -63 q -1 -107 -24 -92 q 42 -121 22 -121 l 43 -121 q 121 -12 98 -121 q 148 203 142 98 l 195 701 l 201 743 q 292 1034 219 904 q 451 1164 366 1164 q 492 1144 492 1164 l 492 1036 l 467 1036 q 444 1080 467 1065 q 401 1095 420 1095 q 322 989 353 1095 q 289 743 292 884 l 239 222 q 151 -62 226 66 q -8 -191 76 -191 z "},"≈":{"ha":688,"x_min":64,"x_max":626,"o":"m 626 714 l 626 608 q 543 542 583 559 q 465 525 503 525 q 344 558 424 525 q 224 591 264 591 q 152 572 190 591 q 64 496 113 553 l 64 602 q 147 669 107 651 q 224 686 187 686 q 348 653 268 686 q 465 619 427 619 q 538 638 500 619 q 626 714 576 657 m 626 478 l 626 372 q 543 306 583 323 q 465 289 503 289 q 344 322 424 289 q 224 355 264 355 q 152 336 190 355 q 64 260 113 317 l 64 366 q 147 433 107 415 q 224 450 187 450 q 348 417 268 450 q 465 383 427 383 q 538 402 500 383 q 626 478 576 421 z "},"≤":{"ha":688,"x_min":59,"x_max":629,"o":"m 629 728 l 205 485 l 629 244 l 629 131 l 59 457 l 59 513 l 629 842 l 629 728 m 59 1 l 59 96 l 628 96 l 629 95 l 629 1 l 59 1 z "},"≥":{"ha":688,"x_min":59,"x_max":629,"o":"m 59 842 l 629 513 l 629 457 l 59 131 l 59 244 l 483 485 l 59 728 l 59 842 m 59 1 l 59 96 l 628 96 l 629 96 l 629 1 l 59 1 z "},"":{"ha":345,"x_min":-115,"x_max":612,"o":"m 322 618 q 293 536 309 578 q 179 184 229 355 q 130 -73 130 14 q 126 -82 130 -78 q 117 -87 123 -86 l 117 -87 q 107 -83 111 -87 q 103 -74 104 -79 q 134 120 102 -5 q 216 393 166 246 q 294 618 255 511 l 284 618 q 191 456 241 542 q 95 293 136 360 q 24 183 54 227 q -24 116 -5 140 q -55 80 -43 91 q -74 65 -67 68 q -84 62 -81 62 q -102 66 -94 60 q -112 84 -109 71 q -111 127 -115 98 q -92 211 -106 157 q -7 457 -64 304 q 59 625 28 549 l -79 628 q -89 632 -85 628 q -93 642 -93 636 q -89 651 -92 648 q -79 655 -85 655 l -79 655 l 70 651 q 87 694 79 673 q 132 801 130 795 q 140 808 135 806 q 150 808 145 810 q 157 801 155 806 q 157 790 159 795 q 114 686 155 784 q 99 650 106 669 l 269 646 q 313 727 292 688 q 378 846 374 838 q 385 852 380 850 q 395 851 390 854 q 402 844 400 849 q 402 834 404 840 q 332 644 372 754 l 600 637 q 609 633 605 637 q 612 624 612 629 q 608 614 612 618 q 599 610 604 610 l 322 618 m 88 624 q 22 455 58 548 q -62 213 -35 306 q -84 122 -81 149 q -85 90 -87 95 q -58 117 -79 92 q 9 208 -37 142 q 168 469 73 304 q 254 619 214 549 l 88 624 m 303 645 q 312 669 308 657 q 299 646 306 657 l 303 645 z "},"ﬁ":{"ha":345,"x_min":-115,"x_max":612,"o":"m 322 618 q 293 536 309 578 q 179 184 229 355 q 130 -73 130 14 q 126 -82 130 -78 q 117 -87 123 -86 l 117 -87 q 107 -83 111 -87 q 103 -74 104 -79 q 134 120 102 -5 q 216 393 166 246 q 294 618 255 511 l 284 618 q 191 456 241 542 q 95 293 136 360 q 24 183 54 227 q -24 116 -5 140 q -55 80 -43 91 q -74 65 -67 68 q -84 62 -81 62 q -102 66 -94 60 q -112 84 -109 71 q -111 127 -115 98 q -92 211 -106 157 q -7 457 -64 304 q 59 625 28 549 l -79 628 q -89 632 -85 628 q -93 642 -93 636 q -89 651 -92 648 q -79 655 -85 655 l -79 655 l 70 651 q 87 694 79 673 q 132 801 130 795 q 140 808 135 806 q 150 808 145 810 q 157 801 155 806 q 157 790 159 795 q 114 686 155 784 q 99 650 106 669 l 269 646 q 313 727 292 688 q 378 846 374 838 q 385 852 380 850 q 395 851 390 854 q 402 844 400 849 q 402 834 404 840 q 332 644 372 754 l 600 637 q 609 633 605 637 q 612 624 612 629 q 608 614 612 618 q 599 610 604 610 l 322 618 m 88 624 q 22 455 58 548 q -62 213 -35 306 q -84 122 -81 149 q -85 90 -87 95 q -58 117 -79 92 q 9 208 -37 142 q 168 469 73 304 q 254 619 214 549 l 88 624 m 303 645 q 312 669 308 657 q 299 646 306 657 l 303 645 z "},"":{"ha":345,"x_min":-95,"x_max":357,"o":"m -61 163 q -75 166 -69 163 q -90 186 -87 171 q -75 241 -95 205 q -4 325 -56 277 q 7 335 1 330 q 2 398 6 369 q -5 441 -2 427 q 10 498 -9 476 q 49 526 30 519 q 59 526 54 528 q 66 518 64 524 q 66 507 68 513 q 59 500 64 503 q 52 496 58 500 q 37 486 45 493 q 24 470 29 479 q 22 447 20 460 q 33 357 28 414 q 133 432 90 403 q 178 463 176 461 q 189 464 183 465 q 197 458 194 463 q 199 448 200 453 q 193 439 197 442 q 142 406 189 438 q 35 323 94 373 q 23 235 37 273 q -17 181 7 198 q -61 163 -41 163 l -61 163 l -61 163 m -64 191 q -35 201 -54 189 q -2 245 -17 213 q 7 298 6 268 q -52 227 -37 255 q -64 191 -66 199 l -64 191 l -64 191 m 133 186 q 121 188 126 186 q 106 206 109 193 q 119 255 102 223 q 180 331 135 288 q 190 340 185 336 q 185 395 189 370 q 179 433 181 420 q 193 484 175 465 q 226 509 210 503 q 236 509 231 511 q 243 502 241 507 q 243 492 245 496 q 237 484 241 487 q 230 481 235 484 q 218 473 225 478 q 208 458 212 467 q 205 438 204 450 q 216 363 212 407 q 297 427 262 402 q 336 453 332 451 q 346 455 340 456 q 354 449 351 454 q 356 439 357 444 q 350 431 355 434 q 307 401 347 429 q 217 328 267 372 q 207 250 218 283 q 172 201 193 216 q 133 186 151 185 l 133 186 l 133 186 m 133 212 q 133 212 133 212 q 134 212 134 212 q 155 223 140 212 q 182 260 170 233 q 189 302 188 278 q 142 242 154 265 q 133 212 132 219 l 133 212 l 133 212 z "},"":{"ha":307,"x_min":-95,"x_max":573,"o":"m -55 195 q -77 204 -68 195 q -58 283 -95 228 q 2 374 -33 323 q -11 461 -4 425 q 7 515 -15 496 q 50 538 29 534 q 60 537 56 540 q 66 529 64 534 q 65 519 68 524 q 56 512 62 514 l 56 512 q 48 510 56 512 q 33 502 41 507 q 20 488 25 496 q 16 466 14 479 q 25 409 20 446 q 75 484 50 446 q 77 488 77 486 q 225 709 157 606 q 310 842 294 812 q 318 848 313 846 q 328 847 323 850 q 335 839 334 844 q 334 829 336 833 q 250 697 317 800 q 100 473 182 595 q 96 467 98 470 q 30 368 62 415 q 33 339 31 353 q 10 243 34 279 q -39 198 -14 207 q -55 195 -47 195 l -55 195 m -56 222 q -48 223 -54 222 q -36 231 -43 225 q -7 269 -20 243 q 5 331 6 294 q -35 269 -17 296 q -53 236 -49 248 q -56 222 -56 224 l -56 222 m 66 -66 q 57 -62 61 -66 q 53 -53 54 -58 q 94 191 52 32 q 197 527 137 351 q 309 840 258 703 q 316 847 311 845 q 327 848 321 850 q 334 841 332 846 q 335 830 336 836 q 232 544 292 719 q 125 202 172 369 q 80 -52 79 35 q 76 -62 80 -58 q 67 -66 73 -66 q 66 -66 66 -66 l 66 -66 m 559 591 q 559 591 559 591 l 12 607 q 2 611 6 608 q -1 621 -1 615 q 3 630 -1 627 q 12 634 7 634 q 12 634 12 634 l 559 618 q 569 614 566 618 q 573 605 573 610 q 569 595 572 600 q 559 591 565 591 l 559 591 z "},"ﬂ":{"ha":307,"x_min":-95,"x_max":573,"o":"m -55 195 q -77 204 -68 195 q -58 283 -95 228 q 2 374 -33 323 q -11 461 -4 425 q 7 515 -15 496 q 50 538 29 534 q 60 537 56 540 q 66 529 64 534 q 65 519 68 524 q 56 512 62 514 l 56 512 q 48 510 56 512 q 33 502 41 507 q 20 488 25 496 q 16 466 14 479 q 25 409 20 446 q 75 484 50 446 q 77 488 77 486 q 225 709 157 606 q 310 842 294 812 q 318 848 313 846 q 328 847 323 850 q 335 839 334 844 q 334 829 336 833 q 250 697 317 800 q 100 473 182 595 q 96 467 98 470 q 30 368 62 415 q 33 339 31 353 q 10 243 34 279 q -39 198 -14 207 q -55 195 -47 195 l -55 195 m -56 222 q -48 223 -54 222 q -36 231 -43 225 q -7 269 -20 243 q 5 331 6 294 q -35 269 -17 296 q -53 236 -49 248 q -56 222 -56 224 l -56 222 m 66 -66 q 57 -62 61 -66 q 53 -53 54 -58 q 94 191 52 32 q 197 527 137 351 q 309 840 258 703 q 316 847 311 845 q 327 848 321 850 q 334 841 332 846 q 335 830 336 836 q 232 544 292 719 q 125 202 172 369 q 80 -52 79 35 q 76 -62 80 -58 q 67 -66 73 -66 q 66 -66 66 -66 l 66 -66 m 559 591 q 559 591 559 591 l 12 607 q 2 611 6 608 q -1 621 -1 615 q 3 630 -1 627 q 12 634 7 634 q 12 634 12 634 l 559 618 q 569 614 566 618 q 573 605 573 610 q 569 595 572 600 q 559 591 565 591 l 559 591 z "},"":{"ha":237,"x_min":-34,"x_max":252,"o":"m -2 165 q -18 170 -11 165 q -32 209 -34 182 q -20 261 -30 235 q -4 301 -11 288 q 19 386 23 351 q 4 416 15 403 q -6 431 -1 423 q -8 436 -7 433 q -16 460 -14 446 q -2 514 -18 492 q 31 546 14 537 q 68 547 54 557 q 75 534 73 543 q 72 509 77 525 q 49 470 64 490 q 22 438 33 450 q 26 432 24 435 q 26 431 26 432 q 45 391 39 416 q 42 343 50 367 q 20 290 35 319 q -3 219 0 243 q -3 193 -7 195 q 1 193 -2 192 q 11 197 4 193 q 28 210 18 201 q 53 234 38 218 q 129 322 90 272 q 197 411 169 373 q 227 452 225 450 q 236 458 231 457 q 245 456 241 458 q 251 447 250 452 q 249 437 252 441 q 217 393 245 431 q 149 304 189 354 q 73 215 109 254 q -2 165 25 165 l -2 165 m 48 524 q 30 511 41 522 q 18 495 24 506 q 11 467 12 484 q 32 493 22 479 q 47 517 43 507 q 48 524 48 522 l 48 524 z "},"":{"ha":345,"x_min":-115,"x_max":404,"o":"m -12 444 l -5 463 q 26 547 9 504 q 112 745 79 677 q 165 838 146 813 q 197 866 185 863 q 214 867 208 869 q 222 861 220 864 q 216 793 237 848 q 172 690 202 753 q 95 561 142 632 q 20 452 49 491 q -62 213 -35 304 q -84 122 -81 149 q -85 90 -87 95 q -58 117 -79 92 q 9 208 -37 142 q 168 469 73 304 q 313 727 252 615 q 378 846 374 838 q 385 852 380 850 q 395 851 390 854 q 402 844 400 849 q 402 834 404 840 q 293 535 357 716 q 179 184 229 355 q 130 -73 130 14 q 126 -82 130 -78 q 117 -87 123 -86 l 117 -87 q 107 -83 111 -87 q 103 -74 104 -79 q 134 120 102 -5 q 215 392 166 246 q 312 669 264 538 q 191 456 258 571 q 95 293 136 360 q 24 183 54 227 q -24 116 -5 140 q -55 80 -43 91 q -74 65 -67 68 q -84 62 -81 62 q -102 66 -94 60 q -112 84 -109 71 q -111 127 -115 98 q -92 211 -106 157 q -12 444 -66 300 m 104 664 l 104 664 q 64 565 85 618 q 148 702 116 640 q 201 837 200 814 q 182 815 194 831 q 151 763 170 798 q 104 664 130 723 z "}}}
